<svg xmlns="http://www.w3.org/2000/svg" xmlns:xlink="http://www.w3.org/1999/xlink" width="128" zoomAndPan="magnify" viewBox="0 0 96 48" height="64" preserveAspectRatio="xMidYMid meet" version="1.0"><defs><filter x="0%" y="0%" width="100%" height="100%" id="f9d26350e3"><feColorMatrix values="0 0 0 0 1 0 0 0 0 1 0 0 0 0 1 0 0 0 1 0" color-interpolation-filters="sRGB"/></filter><g/><mask id="dbd0cccf0d"><g filter="url(#f9d26350e3)"><rect x="-9.6" width="115.2" fill="#000000" y="-4.8" height="57.6" fill-opacity="0.4196"/></g></mask><clipPath id="d2c640ddc1"><path d="M 0.46875 0.90625 L 19.421875 0.90625 L 19.421875 20.304688 L 0.46875 20.304688 Z M 0.46875 0.90625 " clip-rule="nonzero"/></clipPath><clipPath id="fa962afd71"><path d="M 2.671875 0.90625 L 17.101562 0.90625 C 17.6875 0.90625 18.246094 1.140625 18.660156 1.554688 C 19.074219 1.96875 19.308594 2.527344 19.308594 3.113281 L 19.308594 17.910156 C 19.308594 19.125 18.320312 20.113281 17.101562 20.113281 L 2.671875 20.113281 C 2.085938 20.113281 1.527344 19.878906 1.113281 19.46875 C 0.699219 19.054688 0.46875 18.492188 0.46875 17.910156 L 0.46875 3.113281 C 0.46875 2.527344 0.699219 1.96875 1.113281 1.554688 C 1.527344 1.140625 2.085938 0.90625 2.671875 0.90625 " clip-rule="nonzero"/></clipPath><clipPath id="515524be3a"><rect x="0" width="20" y="0" height="21"/></clipPath><mask id="aea7f6cdd5"><g filter="url(#f9d26350e3)"><rect x="-9.6" width="115.2" fill="#000000" y="-4.8" height="57.6" fill-opacity="0.4196"/></g></mask><clipPath id="d54a648dd4"><path d="M 0.867188 0.34375 L 15.632812 0.34375 L 15.632812 15.332031 L 0.867188 15.332031 Z M 0.867188 0.34375 " clip-rule="nonzero"/></clipPath><clipPath id="a30297cc36"><path d="M 3.070312 0.34375 L 13.316406 0.34375 C 14.53125 0.34375 15.519531 1.332031 15.519531 2.546875 L 15.519531 13.113281 C 15.519531 14.332031 14.53125 15.320312 13.316406 15.320312 L 3.070312 15.320312 C 1.855469 15.320312 0.867188 14.332031 0.867188 13.113281 L 0.867188 2.546875 C 0.867188 1.332031 1.855469 0.34375 3.070312 0.34375 " clip-rule="nonzero"/></clipPath><clipPath id="b573d9dad5"><rect x="0" width="16" y="0" height="16"/></clipPath><mask id="90938da9bb"><g filter="url(#f9d26350e3)"><rect x="-9.6" width="115.2" fill="#000000" y="-4.8" height="57.6" fill-opacity="0.4196"/></g></mask><clipPath id="d94e94a2dc"><path d="M 0.847656 0.765625 L 8.34375 0.765625 L 8.34375 8.261719 L 0.847656 8.261719 Z M 0.847656 0.765625 " clip-rule="nonzero"/></clipPath><clipPath id="9651527752"><path d="M 3.054688 0.765625 L 6.125 0.765625 C 7.34375 0.765625 8.332031 1.753906 8.332031 2.96875 L 8.332031 6.050781 C 8.332031 7.265625 7.34375 8.253906 6.125 8.253906 L 3.054688 8.253906 C 1.835938 8.253906 0.847656 7.265625 0.847656 6.050781 L 0.847656 2.96875 C 0.847656 1.753906 1.835938 0.765625 3.054688 0.765625 " clip-rule="nonzero"/></clipPath><clipPath id="f65ba4885a"><rect x="0" width="9" y="0" height="9"/></clipPath><mask id="24fb041fa0"><g filter="url(#f9d26350e3)"><rect x="-9.6" width="115.2" fill="#000000" y="-4.8" height="57.6" fill-opacity="0.4196"/></g></mask><clipPath id="36e28deacf"><path d="M 0.984375 0.832031 L 8.476562 0.832031 L 8.476562 8.324219 L 0.984375 8.324219 Z M 0.984375 0.832031 " clip-rule="nonzero"/></clipPath><clipPath id="abc12b4a4e"><path d="M 3.1875 0.832031 L 6.261719 0.832031 C 7.480469 0.832031 8.464844 1.816406 8.464844 3.035156 L 8.464844 6.113281 C 8.464844 7.332031 7.480469 8.320312 6.261719 8.320312 L 3.1875 8.320312 C 1.96875 8.320312 0.984375 7.332031 0.984375 6.113281 L 0.984375 3.035156 C 0.984375 1.816406 1.96875 0.832031 3.1875 0.832031 " clip-rule="nonzero"/></clipPath><clipPath id="72aad6d278"><rect x="0" width="9" y="0" height="9"/></clipPath><mask id="afbae440dd"><g filter="url(#f9d26350e3)"><rect x="-9.6" width="115.2" fill="#000000" y="-4.8" height="57.6" fill-opacity="0.4196"/></g></mask><clipPath id="49298fabb0"><path d="M 0.984375 0.703125 L 8.476562 0.703125 L 8.476562 8.195312 L 0.984375 8.195312 Z M 0.984375 0.703125 " clip-rule="nonzero"/></clipPath><clipPath id="e4a2162da7"><path d="M 3.1875 0.703125 L 6.261719 0.703125 C 7.480469 0.703125 8.464844 1.6875 8.464844 2.90625 L 8.464844 5.984375 C 8.464844 7.203125 7.480469 8.1875 6.261719 8.1875 L 3.1875 8.1875 C 1.96875 8.1875 0.984375 7.203125 0.984375 5.984375 L 0.984375 2.90625 C 0.984375 1.6875 1.96875 0.703125 3.1875 0.703125 " clip-rule="nonzero"/></clipPath><clipPath id="54b481f551"><rect x="0" width="9" y="0" height="9"/></clipPath><mask id="8301e6ea67"><g filter="url(#f9d26350e3)"><rect x="-9.6" width="115.2" fill="#000000" y="-4.8" height="57.6" fill-opacity="0.4196"/></g></mask><clipPath id="ade7cc42c4"><path d="M 0.867188 0.792969 L 18.277344 0.792969 L 18.277344 15.78125 L 0.867188 15.78125 Z M 0.867188 0.792969 " clip-rule="nonzero"/></clipPath><clipPath id="755e97aeda"><path d="M 3.070312 0.792969 L 15.863281 0.792969 C 16.449219 0.792969 17.007812 1.023438 17.421875 1.4375 C 17.835938 1.851562 18.070312 2.410156 18.070312 2.996094 L 18.070312 13.5625 C 18.070312 14.78125 17.082031 15.765625 15.863281 15.765625 L 3.070312 15.765625 C 2.488281 15.765625 1.925781 15.535156 1.511719 15.121094 C 1.097656 14.707031 0.867188 14.148438 0.867188 13.5625 L 0.867188 2.996094 C 0.867188 2.410156 1.097656 1.851562 1.511719 1.4375 C 1.925781 1.023438 2.488281 0.792969 3.070312 0.792969 " clip-rule="nonzero"/></clipPath><clipPath id="510500ba65"><rect x="0" width="19" y="0" height="16"/></clipPath><mask id="151e998605"><g filter="url(#f9d26350e3)"><rect x="-9.6" width="115.2" fill="#000000" y="-4.8" height="57.6" fill-opacity="0.4196"/></g></mask><clipPath id="06e95a4ec8"><path d="M 0.960938 0.6875 L 19.917969 0.6875 L 19.917969 20 L 0.960938 20 Z M 0.960938 0.6875 " clip-rule="nonzero"/></clipPath><clipPath id="62ca297bbf"><path d="M 3.164062 0.6875 L 17.597656 0.6875 C 18.179688 0.6875 18.742188 0.921875 19.15625 1.335938 C 19.570312 1.746094 19.800781 2.308594 19.800781 2.894531 L 19.800781 17.6875 C 19.800781 18.90625 18.8125 19.894531 17.597656 19.894531 L 3.164062 19.894531 C 2.582031 19.894531 2.019531 19.660156 1.605469 19.246094 C 1.195312 18.835938 0.960938 18.273438 0.960938 17.6875 L 0.960938 2.894531 C 0.960938 2.308594 1.195312 1.746094 1.605469 1.335938 C 2.019531 0.921875 2.582031 0.6875 3.164062 0.6875 " clip-rule="nonzero"/></clipPath><clipPath id="92c18892bc"><rect x="0" width="21" y="0" height="21"/></clipPath><mask id="564a1c7dee"><g filter="url(#f9d26350e3)"><rect x="-9.6" width="115.2" fill="#000000" y="-4.8" height="57.6" fill-opacity="0.4196"/></g></mask><clipPath id="d4f52386fe"><path d="M 0.359375 0.125 L 15 0.125 L 15 15.113281 L 0.359375 15.113281 Z M 0.359375 0.125 " clip-rule="nonzero"/></clipPath><clipPath id="f20301a958"><path d="M 2.566406 0.125 L 12.808594 0.125 C 14.027344 0.125 15.011719 1.109375 15.011719 2.328125 L 15.011719 12.894531 C 15.011719 14.113281 14.027344 15.097656 12.808594 15.097656 L 2.566406 15.097656 C 1.347656 15.097656 0.359375 14.113281 0.359375 12.894531 L 0.359375 2.328125 C 0.359375 1.109375 1.347656 0.125 2.566406 0.125 " clip-rule="nonzero"/></clipPath><clipPath id="ecdf594d2d"><rect x="0" width="16" y="0" height="16"/></clipPath><mask id="8a7d81b185"><g filter="url(#f9d26350e3)"><rect x="-9.6" width="115.2" fill="#000000" y="-4.8" height="57.6" fill-opacity="0.4196"/></g></mask><clipPath id="df904373a2"><path d="M 0.34375 0.546875 L 7.835938 0.546875 L 7.835938 8.042969 L 0.34375 8.042969 Z M 0.34375 0.546875 " clip-rule="nonzero"/></clipPath><clipPath id="dae2a7299f"><path d="M 2.546875 0.546875 L 5.621094 0.546875 C 6.835938 0.546875 7.824219 1.535156 7.824219 2.75 L 7.824219 5.832031 C 7.824219 7.046875 6.835938 8.035156 5.621094 8.035156 L 2.546875 8.035156 C 1.328125 8.035156 0.34375 7.046875 0.34375 5.832031 L 0.34375 2.75 C 0.34375 1.535156 1.328125 0.546875 2.546875 0.546875 " clip-rule="nonzero"/></clipPath><clipPath id="a9d045128a"><rect x="0" width="8" y="0" height="9"/></clipPath><mask id="39dcfdb18e"><g filter="url(#f9d26350e3)"><rect x="-9.6" width="115.2" fill="#000000" y="-4.8" height="57.6" fill-opacity="0.4196"/></g></mask><clipPath id="c0f4c249e2"><path d="M 0.476562 0.613281 L 7.972656 0.613281 L 7.972656 8.105469 L 0.476562 8.105469 Z M 0.476562 0.613281 " clip-rule="nonzero"/></clipPath><clipPath id="5360eba4e5"><path d="M 2.679688 0.613281 L 5.753906 0.613281 C 6.972656 0.613281 7.960938 1.597656 7.960938 2.816406 L 7.960938 5.894531 C 7.960938 7.113281 6.972656 8.097656 5.753906 8.097656 L 2.679688 8.097656 C 1.464844 8.097656 0.476562 7.113281 0.476562 5.894531 L 0.476562 2.816406 C 0.476562 1.597656 1.464844 0.613281 2.679688 0.613281 " clip-rule="nonzero"/></clipPath><clipPath id="f617d28109"><rect x="0" width="9" y="0" height="9"/></clipPath><mask id="10424b4efc"><g filter="url(#f9d26350e3)"><rect x="-9.6" width="115.2" fill="#000000" y="-4.8" height="57.6" fill-opacity="0.4196"/></g></mask><clipPath id="c5736cf5e6"><path d="M 0.476562 0.484375 L 7.972656 0.484375 L 7.972656 7.976562 L 0.476562 7.976562 Z M 0.476562 0.484375 " clip-rule="nonzero"/></clipPath><clipPath id="65b5a64b98"><path d="M 2.679688 0.484375 L 5.753906 0.484375 C 6.972656 0.484375 7.960938 1.46875 7.960938 2.6875 L 7.960938 5.765625 C 7.960938 6.984375 6.972656 7.96875 5.753906 7.96875 L 2.679688 7.96875 C 1.464844 7.96875 0.476562 6.984375 0.476562 5.765625 L 0.476562 2.6875 C 0.476562 1.46875 1.464844 0.484375 2.679688 0.484375 " clip-rule="nonzero"/></clipPath><clipPath id="07ba5f38e7"><rect x="0" width="9" y="0" height="8"/></clipPath><mask id="c732a3164b"><g filter="url(#f9d26350e3)"><rect x="-9.6" width="115.2" fill="#000000" y="-4.8" height="57.6" fill-opacity="0.4196"/></g></mask><clipPath id="9f04206036"><path d="M 0.359375 0.574219 L 17.773438 0.574219 L 17.773438 15.558594 L 0.359375 15.558594 Z M 0.359375 0.574219 " clip-rule="nonzero"/></clipPath><clipPath id="0b47927bdc"><path d="M 2.566406 0.574219 L 15.359375 0.574219 C 15.941406 0.574219 16.503906 0.804688 16.917969 1.21875 C 17.328125 1.632812 17.5625 2.191406 17.5625 2.777344 L 17.5625 13.34375 C 17.5625 14.5625 16.574219 15.546875 15.359375 15.546875 L 2.566406 15.546875 C 1.980469 15.546875 1.417969 15.316406 1.007812 14.902344 C 0.59375 14.488281 0.359375 13.929688 0.359375 13.34375 L 0.359375 2.777344 C 0.359375 2.191406 0.59375 1.632812 1.007812 1.21875 C 1.417969 0.804688 1.980469 0.574219 2.566406 0.574219 " clip-rule="nonzero"/></clipPath><clipPath id="33b95a0d85"><rect x="0" width="18" y="0" height="16"/></clipPath><mask id="5f87db82bb"><g filter="url(#f9d26350e3)"><rect x="-9.6" width="115.2" fill="#000000" y="-4.8" height="57.6" fill-opacity="0.4196"/></g></mask><clipPath id="35676e238f"><path d="M 0.835938 0.765625 L 8.332031 0.765625 L 8.332031 8.261719 L 0.835938 8.261719 Z M 0.835938 0.765625 " clip-rule="nonzero"/></clipPath><clipPath id="7289bedc45"><path d="M 3.039062 0.765625 L 6.113281 0.765625 C 7.332031 0.765625 8.320312 1.753906 8.320312 2.96875 L 8.320312 6.050781 C 8.320312 7.265625 7.332031 8.253906 6.113281 8.253906 L 3.039062 8.253906 C 1.824219 8.253906 0.835938 7.265625 0.835938 6.050781 L 0.835938 2.96875 C 0.835938 1.753906 1.824219 0.765625 3.039062 0.765625 " clip-rule="nonzero"/></clipPath><clipPath id="7c5b2969fc"><rect x="0" width="9" y="0" height="9"/></clipPath><clipPath id="2908fa4a37"><path d="M 8.261719 7.148438 L 31.773438 7.148438 L 31.773438 30.660156 L 8.261719 30.660156 Z M 8.261719 7.148438 " clip-rule="nonzero"/></clipPath></defs><g mask="url(#dbd0cccf0d)"><g transform="matrix(1, 0, 0, 1, 21, 13)"><g clip-path="url(#515524be3a)"><g clip-path="url(#d2c640ddc1)"><g clip-path="url(#fa962afd71)"><path fill="#4bcdfa" d="M 0.46875 0.90625 L 19.203125 0.90625 L 19.203125 20.082031 L 0.46875 20.082031 Z M 0.46875 0.90625 " fill-opacity="1" fill-rule="nonzero"/></g></g></g></g></g><g mask="url(#aea7f6cdd5)"><g transform="matrix(1, 0, 0, 1, 12, 27)"><g clip-path="url(#b573d9dad5)"><g clip-path="url(#d54a648dd4)"><g clip-path="url(#a30297cc36)"><path fill="#f46ae5" d="M 0.867188 0.34375 L 15.414062 0.34375 L 15.414062 15.332031 L 0.867188 15.332031 Z M 0.867188 0.34375 " fill-opacity="1" fill-rule="nonzero"/></g></g></g></g></g><g mask="url(#90938da9bb)"><g transform="matrix(1, 0, 0, 1, 5, 19)"><g clip-path="url(#f65ba4885a)"><g clip-path="url(#d94e94a2dc)"><g clip-path="url(#9651527752)"><path fill="#9647fb" d="M 0.847656 0.765625 L 8.34375 0.765625 L 8.34375 8.261719 L 0.847656 8.261719 Z M 0.847656 0.765625 " fill-opacity="1" fill-rule="nonzero"/></g></g></g></g></g><g mask="url(#24fb041fa0)"><g transform="matrix(1, 0, 0, 1, 35, 34)"><g clip-path="url(#72aad6d278)"><g clip-path="url(#36e28deacf)"><g clip-path="url(#abc12b4a4e)"><path fill="#9647fb" d="M 0.984375 0.832031 L 8.476562 0.832031 L 8.476562 8.324219 L 0.984375 8.324219 Z M 0.984375 0.832031 " fill-opacity="1" fill-rule="nonzero"/></g></g></g></g></g><g mask="url(#afbae440dd)"><g transform="matrix(1, 0, 0, 1, 35, 4)"><g clip-path="url(#54b481f551)"><g clip-path="url(#49298fabb0)"><g clip-path="url(#e4a2162da7)"><path fill="#9647fb" d="M 0.984375 0.703125 L 8.476562 0.703125 L 8.476562 8.195312 L 0.984375 8.195312 Z M 0.984375 0.703125 " fill-opacity="1" fill-rule="nonzero"/></g></g></g></g></g><g mask="url(#8301e6ea67)"><g transform="matrix(1, 0, 0, 1, 12, 4)"><g clip-path="url(#510500ba65)"><g clip-path="url(#ade7cc42c4)"><g clip-path="url(#755e97aeda)"><path fill="#f46ae5" d="M 0.867188 0.792969 L 18.058594 0.792969 L 18.058594 15.78125 L 0.867188 15.78125 Z M 0.867188 0.792969 " fill-opacity="1" fill-rule="nonzero"/></g></g></g></g></g><g mask="url(#151e998605)"><g transform="matrix(1, 0, 0, 1, 59, 13)"><g clip-path="url(#92c18892bc)"><g clip-path="url(#06e95a4ec8)"><g clip-path="url(#62ca297bbf)"><path fill="#4bcdfa" d="M 0.960938 0.6875 L 19.695312 0.6875 L 19.695312 19.863281 L 0.960938 19.863281 Z M 0.960938 0.6875 " fill-opacity="1" fill-rule="nonzero"/></g></g></g></g></g><g mask="url(#564a1c7dee)"><g transform="matrix(1, 0, 0, 1, 51, 27)"><g clip-path="url(#ecdf594d2d)"><g clip-path="url(#d4f52386fe)"><g clip-path="url(#f20301a958)"><path fill="#f46ae5" d="M 0.359375 0.125 L 14.90625 0.125 L 14.90625 15.113281 L 0.359375 15.113281 Z M 0.359375 0.125 " fill-opacity="1" fill-rule="nonzero"/></g></g></g></g></g><g mask="url(#8a7d81b185)"><g transform="matrix(1, 0, 0, 1, 44, 19)"><g clip-path="url(#a9d045128a)"><g clip-path="url(#df904373a2)"><g clip-path="url(#dae2a7299f)"><path fill="#9647fb" d="M 0.34375 0.546875 L 7.835938 0.546875 L 7.835938 8.042969 L 0.34375 8.042969 Z M 0.34375 0.546875 " fill-opacity="1" fill-rule="nonzero"/></g></g></g></g></g><g mask="url(#39dcfdb18e)"><g transform="matrix(1, 0, 0, 1, 74, 34)"><g clip-path="url(#f617d28109)"><g clip-path="url(#c0f4c249e2)"><g clip-path="url(#5360eba4e5)"><path fill="#9647fb" d="M 0.476562 0.613281 L 7.972656 0.613281 L 7.972656 8.105469 L 0.476562 8.105469 Z M 0.476562 0.613281 " fill-opacity="1" fill-rule="nonzero"/></g></g></g></g></g><g mask="url(#10424b4efc)"><g transform="matrix(1, 0, 0, 1, 74, 4)"><g clip-path="url(#07ba5f38e7)"><g clip-path="url(#c5736cf5e6)"><g clip-path="url(#65b5a64b98)"><path fill="#9647fb" d="M 0.476562 0.484375 L 7.972656 0.484375 L 7.972656 7.976562 L 0.476562 7.976562 Z M 0.476562 0.484375 " fill-opacity="1" fill-rule="nonzero"/></g></g></g></g></g><g mask="url(#c732a3164b)"><g transform="matrix(1, 0, 0, 1, 51, 4)"><g clip-path="url(#33b95a0d85)"><g clip-path="url(#9f04206036)"><g clip-path="url(#0b47927bdc)"><path fill="#f46ae5" d="M 0.359375 0.574219 L 17.550781 0.574219 L 17.550781 15.558594 L 0.359375 15.558594 Z M 0.359375 0.574219 " fill-opacity="1" fill-rule="nonzero"/></g></g></g></g></g><g mask="url(#5f87db82bb)"><g transform="matrix(1, 0, 0, 1, 82, 19)"><g clip-path="url(#7c5b2969fc)"><g clip-path="url(#35676e238f)"><g clip-path="url(#7289bedc45)"><path fill="#9647fb" d="M 0.835938 0.765625 L 8.332031 0.765625 L 8.332031 8.261719 L 0.835938 8.261719 Z M 0.835938 0.765625 " fill-opacity="1" fill-rule="nonzero"/></g></g></g></g></g><g clip-path="url(#2908fa4a37)"><path fill="#000000" d="M 8.566406 7.238281 C 8.230469 7.460938 8.261719 6.253906 8.261719 18.90625 C 8.261719 31.554688 8.230469 30.351562 8.566406 30.574219 C 8.773438 30.710938 31.261719 30.710938 31.46875 30.574219 C 31.804688 30.351562 31.773438 31.46875 31.773438 19.632812 L 31.773438 9.039062 L 31.652344 8.898438 C 31.402344 8.597656 31.933594 8.621094 24.523438 8.621094 L 17.773438 8.621094 L 17.335938 8.011719 C 17.097656 7.675781 16.847656 7.351562 16.78125 7.289062 L 16.660156 7.171875 L 12.679688 7.160156 C 8.839844 7.148438 8.695312 7.152344 8.566406 7.238281 M 17.730469 11.039062 C 18.699219 12.394531 19.546875 13.546875 19.621094 13.597656 C 19.75 13.695312 19.753906 13.695312 25.050781 13.707031 L 30.351562 13.71875 L 30.351562 29.238281 L 23.003906 29.238281 L 23.003906 28.261719 C 23.003906 25.582031 21.945312 23.675781 19.871094 22.597656 L 19.46875 22.390625 L 19.699219 22.089844 C 21.503906 19.734375 19.632812 16.390625 16.710938 16.746094 C 14.421875 17.023438 13.105469 19.492188 14.152344 21.546875 C 14.257812 21.753906 14.34375 21.878906 14.644531 22.265625 L 14.738281 22.386719 L 14.339844 22.597656 C 12.226562 23.722656 11.203125 25.574219 11.203125 28.261719 L 11.203125 29.238281 L 9.6875 29.238281 L 9.6875 8.574219 L 15.96875 8.574219 L 17.730469 11.039062 M 30.351562 11.167969 L 30.351562 12.292969 L 20.394531 12.292969 L 19.609375 11.195312 C 19.175781 10.589844 18.824219 10.082031 18.824219 10.070312 C 18.824219 10.054688 21.417969 10.042969 24.585938 10.042969 L 30.351562 10.042969 L 30.351562 11.167969 M 13.042969 10.902344 C 12.75 11.054688 12.695312 11.179688 12.679688 11.769531 L 12.664062 12.292969 L 12.195312 12.292969 C 11.488281 12.292969 11.203125 12.5 11.203125 13.003906 C 11.203125 13.511719 11.488281 13.714844 12.199219 13.714844 L 12.671875 13.714844 L 12.671875 14.1875 C 12.671875 14.890625 12.835938 15.136719 13.324219 15.171875 C 13.859375 15.214844 14.09375 14.917969 14.09375 14.1875 L 14.09375 13.714844 L 14.558594 13.714844 C 15.289062 13.714844 15.542969 13.535156 15.542969 13.003906 C 15.542969 12.472656 15.289062 12.292969 14.558594 12.292969 L 14.09375 12.292969 L 14.09375 11.824219 C 14.09375 10.996094 13.636719 10.601562 13.042969 10.902344 M 22.636719 15.703125 C 22.160156 15.957031 22.136719 16.648438 22.601562 16.929688 C 22.835938 17.074219 28.269531 17.074219 28.503906 16.929688 C 28.976562 16.640625 28.941406 15.941406 28.441406 15.691406 C 28.261719 15.601562 28.167969 15.597656 25.542969 15.597656 L 22.832031 15.597656 L 22.636719 15.703125 M 17.605469 18.226562 C 18.277344 18.390625 18.859375 19.054688 18.953125 19.757812 C 19.1875 21.550781 17.0625 22.613281 15.789062 21.34375 C 14.429688 19.980469 15.726562 17.757812 17.605469 18.226562 M 22.546875 18.703125 C 22.148438 19.039062 22.175781 19.570312 22.605469 19.886719 C 22.808594 20.039062 28.292969 20.039062 28.5 19.886719 C 28.925781 19.570312 28.953125 19.039062 28.558594 18.703125 L 28.414062 18.582031 L 22.6875 18.582031 L 22.546875 18.703125 M 18.332031 23.515625 C 20.421875 24.140625 21.523438 25.722656 21.566406 28.167969 L 21.589844 29.238281 L 12.625 29.238281 L 12.625 28.332031 C 12.625 27.0625 12.734375 26.519531 13.136719 25.742188 C 14.078125 23.929688 16.398438 22.933594 18.332031 23.515625 " fill-opacity="1" fill-rule="evenodd"/></g><g fill="#000000" fill-opacity="1"><g transform="translate(34.02766, 26.216483)"><g><path d="M 8.359375 -4.65625 L 8.359375 -1.328125 C 8.367188 -0.859375 8.492188 -0.519531 8.734375 -0.3125 C 8.984375 -0.101562 9.296875 0 9.671875 0 C 10.722656 0 11.253906 -0.421875 11.265625 -1.265625 L 11.265625 -6.796875 C 11.265625 -7.453125 11.101562 -7.9375 10.78125 -8.25 C 10.457031 -8.570312 10 -8.734375 9.40625 -8.734375 C 8.59375 -8.734375 8.03125 -8.425781 7.71875 -7.8125 L 5.90625 -4.15625 L 4.203125 -7.875 C 4.054688 -8.144531 3.878906 -8.359375 3.671875 -8.515625 C 3.460938 -8.671875 3.164062 -8.75 2.78125 -8.75 C 2.082031 -8.75 1.582031 -8.582031 1.28125 -8.25 C 0.988281 -7.914062 0.84375 -7.425781 0.84375 -6.78125 L 0.84375 -1.21875 C 0.84375 -0.738281 0.925781 -0.414062 1.09375 -0.25 C 1.257812 -0.0820312 1.53125 0 1.90625 0 C 2.238281 0 2.488281 -0.0820312 2.65625 -0.25 C 2.820312 -0.425781 2.90625 -0.695312 2.90625 -1.0625 L 2.90625 -4.65625 L 4.375 -1.96875 C 4.675781 -1.46875 4.921875 -1.125 5.109375 -0.9375 C 5.296875 -0.75 5.523438 -0.65625 5.796875 -0.65625 C 6.003906 -0.65625 6.1875 -0.710938 6.34375 -0.828125 C 6.5 -0.941406 6.644531 -1.132812 6.78125 -1.40625 Z M 8.359375 -4.65625 "/></g></g></g><g fill="#000000" fill-opacity="1"><g transform="translate(46.109179, 26.216483)"><g><path d="M 3.3125 -1.359375 C 3.3125 -0.847656 3.203125 -0.492188 2.984375 -0.296875 C 2.773438 -0.0976562 2.40625 0 1.875 0 C 1.375 0 1.03125 -0.113281 0.84375 -0.34375 C 0.664062 -0.582031 0.578125 -0.96875 0.578125 -1.5 L 0.578125 -4.640625 C 0.578125 -5.066406 0.691406 -5.410156 0.921875 -5.671875 C 1.160156 -5.941406 1.472656 -6.078125 1.859375 -6.078125 C 2.316406 -6.078125 2.671875 -5.972656 2.921875 -5.765625 C 3.179688 -5.566406 3.3125 -5.203125 3.3125 -4.671875 Z M 0.546875 -7.84375 C 0.546875 -7.5 0.675781 -7.25 0.9375 -7.09375 C 1.207031 -6.945312 1.539062 -6.875 1.9375 -6.875 C 2.382812 -6.875 2.726562 -6.945312 2.96875 -7.09375 C 3.207031 -7.238281 3.328125 -7.488281 3.328125 -7.84375 C 3.328125 -8.488281 2.863281 -8.8125 1.9375 -8.8125 C 1.5 -8.8125 1.15625 -8.722656 0.90625 -8.546875 C 0.664062 -8.367188 0.546875 -8.132812 0.546875 -7.84375 Z M 0.546875 -7.84375 "/></g></g></g><g fill="#000000" fill-opacity="1"><g transform="translate(49.992072, 26.216483)"><g><path d="M 4.640625 -1.828125 L 4.625 -4.234375 C 4.476562 -4.472656 4.296875 -4.59375 4.078125 -4.59375 C 3.921875 -4.59375 3.785156 -4.507812 3.671875 -4.34375 C 3.554688 -4.1875 3.472656 -3.988281 3.421875 -3.75 C 3.367188 -3.519531 3.34375 -3.269531 3.34375 -3 C 3.34375 -2.601562 3.40625 -2.253906 3.53125 -1.953125 C 3.65625 -1.648438 3.832031 -1.5 4.0625 -1.5 C 4.289062 -1.5 4.484375 -1.609375 4.640625 -1.828125 Z M 2.90625 0.078125 C 2.226562 0.078125 1.671875 -0.191406 1.234375 -0.734375 C 0.796875 -1.285156 0.578125 -2.039062 0.578125 -3 C 0.578125 -3.96875 0.789062 -4.734375 1.21875 -5.296875 C 1.65625 -5.867188 2.210938 -6.15625 2.890625 -6.15625 C 3.578125 -6.15625 4.210938 -5.921875 4.796875 -5.453125 C 5.015625 -5.867188 5.378906 -6.078125 5.890625 -6.078125 C 6.347656 -6.078125 6.707031 -5.972656 6.96875 -5.765625 C 7.226562 -5.566406 7.359375 -5.203125 7.359375 -4.671875 L 7.359375 -2.34375 C 7.359375 -1.519531 7.304688 -0.8125 7.203125 -0.21875 C 7.097656 0.363281 6.914062 0.878906 6.65625 1.328125 C 6.394531 1.785156 6.035156 2.125 5.578125 2.34375 C 5.128906 2.5625 4.570312 2.671875 3.90625 2.671875 C 3.445312 2.671875 3.019531 2.609375 2.625 2.484375 C 2.238281 2.359375 1.929688 2.203125 1.703125 2.015625 C 1.472656 1.828125 1.296875 1.640625 1.171875 1.453125 C 1.046875 1.265625 0.984375 1.101562 0.984375 0.96875 C 0.984375 0.800781 1.03125 0.660156 1.125 0.546875 C 1.21875 0.441406 1.347656 0.390625 1.515625 0.390625 C 1.617188 0.390625 1.875 0.5 2.28125 0.71875 C 2.695312 0.945312 3.03125 1.0625 3.28125 1.0625 C 4.144531 1.0625 4.578125 0.613281 4.578125 -0.28125 C 4.085938 -0.0390625 3.53125 0.078125 2.90625 0.078125 Z M 2.90625 0.078125 "/></g></g></g><g fill="#000000" fill-opacity="1"><g transform="translate(57.936084, 26.216483)"><g><path d="M 4.640625 -1.828125 L 4.625 -4.234375 C 4.476562 -4.472656 4.296875 -4.59375 4.078125 -4.59375 C 3.921875 -4.59375 3.785156 -4.507812 3.671875 -4.34375 C 3.554688 -4.1875 3.472656 -3.988281 3.421875 -3.75 C 3.367188 -3.519531 3.34375 -3.269531 3.34375 -3 C 3.34375 -2.601562 3.40625 -2.253906 3.53125 -1.953125 C 3.65625 -1.648438 3.832031 -1.5 4.0625 -1.5 C 4.289062 -1.5 4.484375 -1.609375 4.640625 -1.828125 Z M 2.90625 0.078125 C 2.226562 0.078125 1.671875 -0.191406 1.234375 -0.734375 C 0.796875 -1.285156 0.578125 -2.039062 0.578125 -3 C 0.578125 -3.96875 0.789062 -4.734375 1.21875 -5.296875 C 1.65625 -5.867188 2.210938 -6.15625 2.890625 -6.15625 C 3.578125 -6.15625 4.210938 -5.921875 4.796875 -5.453125 C 5.015625 -5.867188 5.378906 -6.078125 5.890625 -6.078125 C 6.347656 -6.078125 6.707031 -5.972656 6.96875 -5.765625 C 7.226562 -5.566406 7.359375 -5.203125 7.359375 -4.671875 L 7.359375 -2.34375 C 7.359375 -1.519531 7.304688 -0.8125 7.203125 -0.21875 C 7.097656 0.363281 6.914062 0.878906 6.65625 1.328125 C 6.394531 1.785156 6.035156 2.125 5.578125 2.34375 C 5.128906 2.5625 4.570312 2.671875 3.90625 2.671875 C 3.445312 2.671875 3.019531 2.609375 2.625 2.484375 C 2.238281 2.359375 1.929688 2.203125 1.703125 2.015625 C 1.472656 1.828125 1.296875 1.640625 1.171875 1.453125 C 1.046875 1.265625 0.984375 1.101562 0.984375 0.96875 C 0.984375 0.800781 1.03125 0.660156 1.125 0.546875 C 1.21875 0.441406 1.347656 0.390625 1.515625 0.390625 C 1.617188 0.390625 1.875 0.5 2.28125 0.71875 C 2.695312 0.945312 3.03125 1.0625 3.28125 1.0625 C 4.144531 1.0625 4.578125 0.613281 4.578125 -0.28125 C 4.085938 -0.0390625 3.53125 0.078125 2.90625 0.078125 Z M 2.90625 0.078125 "/></g></g></g><g fill="#000000" fill-opacity="1"><g transform="translate(65.880096, 26.216483)"><g><path d="M 2.4375 0 C 2.050781 -0.0078125 1.738281 -0.0703125 1.5 -0.1875 C 1.257812 -0.300781 1.082031 -0.488281 0.96875 -0.75 C 0.851562 -1.007812 0.796875 -1.363281 0.796875 -1.8125 L 0.796875 -7.1875 C 0.796875 -7.644531 0.925781 -8.015625 1.1875 -8.296875 C 1.445312 -8.578125 1.796875 -8.71875 2.234375 -8.71875 C 2.742188 -8.71875 3.117188 -8.625 3.359375 -8.4375 C 3.597656 -8.25 3.71875 -7.875 3.71875 -7.3125 L 3.71875 -2.203125 L 5.890625 -2.203125 C 6.390625 -2.203125 6.738281 -2.128906 6.9375 -1.984375 C 7.132812 -1.835938 7.234375 -1.539062 7.234375 -1.09375 C 7.234375 -0.632812 7.117188 -0.335938 6.890625 -0.203125 C 6.660156 -0.0664062 6.285156 0 5.765625 0 Z M 2.4375 0 "/></g></g></g><g fill="#000000" fill-opacity="1"><g transform="translate(73.620423, 26.216483)"><g><path d="M 3.203125 -3.5625 C 3.785156 -3.570312 4.101562 -3.578125 4.15625 -3.578125 C 4.289062 -3.578125 4.382812 -3.65625 4.4375 -3.8125 C 4.476562 -3.914062 4.5 -4.066406 4.5 -4.265625 C 4.5 -4.796875 4.335938 -5.0625 4.015625 -5.0625 C 3.898438 -5.0625 3.785156 -5 3.671875 -4.875 C 3.554688 -4.75 3.457031 -4.566406 3.375 -4.328125 C 3.289062 -4.097656 3.234375 -3.84375 3.203125 -3.5625 Z M 4.078125 0.078125 C 3.035156 0.078125 2.175781 -0.1875 1.5 -0.71875 C 0.832031 -1.257812 0.5 -1.992188 0.5 -2.921875 C 0.5 -3.921875 0.832031 -4.707031 1.5 -5.28125 C 2.164062 -5.863281 3.023438 -6.15625 4.078125 -6.15625 C 5.066406 -6.15625 5.789062 -5.976562 6.25 -5.625 C 6.71875 -5.28125 6.953125 -4.800781 6.953125 -4.1875 C 6.953125 -4.070312 6.9375 -3.957031 6.90625 -3.84375 C 6.875 -3.738281 6.828125 -3.628906 6.765625 -3.515625 C 6.703125 -3.410156 6.617188 -3.3125 6.515625 -3.21875 C 6.410156 -3.132812 6.285156 -3.054688 6.140625 -2.984375 C 6.003906 -2.910156 5.84375 -2.851562 5.65625 -2.8125 C 5.476562 -2.78125 5.28125 -2.765625 5.0625 -2.765625 L 3.265625 -2.75 C 3.347656 -2.476562 3.5 -2.265625 3.71875 -2.109375 C 3.945312 -1.953125 4.226562 -1.875 4.5625 -1.875 C 4.925781 -1.875 5.300781 -1.921875 5.6875 -2.015625 C 5.851562 -2.054688 6.03125 -2.125 6.21875 -2.21875 C 6.40625 -2.3125 6.539062 -2.359375 6.625 -2.359375 C 6.769531 -2.359375 6.882812 -2.3125 6.96875 -2.21875 C 7.050781 -2.132812 7.09375 -2.03125 7.09375 -1.90625 C 7.09375 -1.757812 7.023438 -1.578125 6.890625 -1.359375 C 6.753906 -1.140625 6.5625 -0.921875 6.3125 -0.703125 C 6.070312 -0.484375 5.753906 -0.296875 5.359375 -0.140625 C 4.960938 0.00390625 4.535156 0.078125 4.078125 0.078125 Z M 4.078125 0.078125 "/></g></g></g><g fill="#000000" fill-opacity="1"><g transform="translate(81.19525, 26.216483)"><g><path d="M 1.21875 -2.71875 L 1.21875 -4.234375 C 1.007812 -4.234375 0.835938 -4.265625 0.703125 -4.328125 C 0.578125 -4.398438 0.488281 -4.484375 0.4375 -4.578125 C 0.382812 -4.679688 0.359375 -4.8125 0.359375 -4.96875 C 0.359375 -5.445312 0.648438 -5.707031 1.234375 -5.75 L 1.234375 -6.9375 C 1.234375 -7.257812 1.46875 -7.550781 1.9375 -7.8125 C 2.40625 -8.070312 2.867188 -8.203125 3.328125 -8.203125 C 3.609375 -8.203125 3.789062 -8.117188 3.875 -7.953125 C 3.957031 -7.796875 4 -7.554688 4 -7.234375 L 4.015625 -5.765625 L 4.359375 -5.765625 C 4.828125 -5.765625 5.144531 -5.703125 5.3125 -5.578125 C 5.488281 -5.460938 5.578125 -5.242188 5.578125 -4.921875 C 5.578125 -4.785156 5.550781 -4.671875 5.5 -4.578125 C 5.445312 -4.484375 5.363281 -4.410156 5.25 -4.359375 C 5.132812 -4.304688 4.992188 -4.269531 4.828125 -4.25 C 4.671875 -4.226562 4.472656 -4.21875 4.234375 -4.21875 L 4.015625 -4.21875 L 4.015625 -2.8125 C 4.015625 -2.675781 4.019531 -2.5625 4.03125 -2.46875 C 4.039062 -2.382812 4.054688 -2.316406 4.078125 -2.265625 C 4.109375 -2.210938 4.144531 -2.175781 4.1875 -2.15625 C 4.238281 -2.144531 4.300781 -2.140625 4.375 -2.140625 C 4.46875 -2.140625 4.546875 -2.175781 4.609375 -2.25 C 4.679688 -2.320312 4.738281 -2.398438 4.78125 -2.484375 C 4.820312 -2.578125 4.875 -2.660156 4.9375 -2.734375 C 5 -2.804688 5.070312 -2.84375 5.15625 -2.84375 C 5.351562 -2.84375 5.503906 -2.796875 5.609375 -2.703125 C 5.710938 -2.609375 5.765625 -2.492188 5.765625 -2.359375 C 5.765625 -2.128906 5.71875 -1.878906 5.625 -1.609375 C 5.539062 -1.347656 5.410156 -1.09375 5.234375 -0.84375 C 5.066406 -0.601562 4.832031 -0.398438 4.53125 -0.234375 C 4.238281 -0.078125 3.90625 0 3.53125 0 C 2.6875 0 2.085938 -0.210938 1.734375 -0.640625 C 1.390625 -1.066406 1.21875 -1.757812 1.21875 -2.71875 Z M 1.21875 -2.71875 "/></g></g></g><g fill="#000000" fill-opacity="1"><g transform="translate(9.012383, 36.91869)"><g><path d="M 1.765625 -2.03125 C 1.765625 -2.113281 1.710938 -2.15625 1.609375 -2.15625 C 1.503906 -2.15625 1.410156 -2.09375 1.328125 -1.96875 C 1.253906 -1.84375 1.21875 -1.632812 1.21875 -1.34375 C 1.21875 -1.082031 1.257812 -0.890625 1.34375 -0.765625 C 1.4375 -0.640625 1.546875 -0.578125 1.671875 -0.578125 C 1.703125 -0.578125 1.734375 -0.582031 1.765625 -0.59375 C 1.804688 -0.613281 1.835938 -0.640625 1.859375 -0.671875 C 1.878906 -0.703125 1.890625 -0.742188 1.890625 -0.796875 C 1.828125 -0.796875 1.769531 -0.804688 1.71875 -0.828125 C 1.675781 -0.847656 1.644531 -0.875 1.625 -0.90625 C 1.601562 -0.945312 1.59375 -0.988281 1.59375 -1.03125 C 1.59375 -1.125 1.613281 -1.191406 1.65625 -1.234375 C 1.707031 -1.285156 1.796875 -1.3125 1.921875 -1.3125 L 2.390625 -1.3125 C 2.546875 -1.3125 2.664062 -1.28125 2.75 -1.21875 C 2.832031 -1.15625 2.875 -1.039062 2.875 -0.875 C 2.875 -0.632812 2.757812 -0.421875 2.53125 -0.234375 C 2.300781 -0.0546875 2.023438 0.03125 1.703125 0.03125 C 1.421875 0.03125 1.164062 -0.0195312 0.9375 -0.125 C 0.707031 -0.226562 0.523438 -0.382812 0.390625 -0.59375 C 0.265625 -0.800781 0.203125 -1.050781 0.203125 -1.34375 C 0.203125 -1.757812 0.328125 -2.085938 0.578125 -2.328125 C 0.835938 -2.578125 1.179688 -2.703125 1.609375 -2.703125 C 1.773438 -2.703125 1.921875 -2.691406 2.046875 -2.671875 C 2.179688 -2.648438 2.289062 -2.617188 2.375 -2.578125 C 2.46875 -2.535156 2.539062 -2.484375 2.59375 -2.421875 C 2.65625 -2.359375 2.695312 -2.296875 2.71875 -2.234375 C 2.75 -2.171875 2.765625 -2.101562 2.765625 -2.03125 C 2.765625 -1.976562 2.753906 -1.925781 2.734375 -1.875 C 2.722656 -1.832031 2.695312 -1.789062 2.65625 -1.75 C 2.613281 -1.707031 2.550781 -1.671875 2.46875 -1.640625 C 2.382812 -1.609375 2.285156 -1.59375 2.171875 -1.59375 C 1.992188 -1.59375 1.878906 -1.617188 1.828125 -1.671875 C 1.785156 -1.722656 1.765625 -1.84375 1.765625 -2.03125 Z M 1.765625 -2.03125 "/></g></g></g><g fill="#000000" fill-opacity="1"><g transform="translate(12.076609, 36.91869)"><g><path d="M 1 -1.09375 C 1.175781 -1.101562 1.269531 -1.109375 1.28125 -1.109375 C 1.320312 -1.109375 1.351562 -1.128906 1.375 -1.171875 C 1.382812 -1.203125 1.390625 -1.25 1.390625 -1.3125 C 1.390625 -1.476562 1.34375 -1.5625 1.25 -1.5625 C 1.207031 -1.5625 1.164062 -1.539062 1.125 -1.5 C 1.09375 -1.457031 1.0625 -1.398438 1.03125 -1.328125 C 1.007812 -1.265625 1 -1.1875 1 -1.09375 Z M 1.265625 0.03125 C 0.941406 0.03125 0.675781 -0.0507812 0.46875 -0.21875 C 0.257812 -0.382812 0.15625 -0.609375 0.15625 -0.890625 C 0.15625 -1.203125 0.253906 -1.445312 0.453125 -1.625 C 0.660156 -1.800781 0.929688 -1.890625 1.265625 -1.890625 C 1.566406 -1.890625 1.785156 -1.835938 1.921875 -1.734375 C 2.066406 -1.628906 2.140625 -1.484375 2.140625 -1.296875 C 2.140625 -1.253906 2.132812 -1.21875 2.125 -1.1875 C 2.125 -1.15625 2.113281 -1.117188 2.09375 -1.078125 C 2.070312 -1.046875 2.046875 -1.015625 2.015625 -0.984375 C 1.984375 -0.960938 1.941406 -0.941406 1.890625 -0.921875 C 1.847656 -0.898438 1.796875 -0.878906 1.734375 -0.859375 C 1.679688 -0.847656 1.625 -0.84375 1.5625 -0.84375 L 1.015625 -0.84375 C 1.035156 -0.757812 1.078125 -0.691406 1.140625 -0.640625 C 1.210938 -0.597656 1.300781 -0.578125 1.40625 -0.578125 C 1.519531 -0.578125 1.632812 -0.59375 1.75 -0.625 C 1.800781 -0.632812 1.859375 -0.648438 1.921875 -0.671875 C 1.984375 -0.703125 2.023438 -0.71875 2.046875 -0.71875 C 2.085938 -0.71875 2.117188 -0.703125 2.140625 -0.671875 C 2.171875 -0.648438 2.1875 -0.625 2.1875 -0.59375 C 2.1875 -0.539062 2.164062 -0.476562 2.125 -0.40625 C 2.082031 -0.34375 2.023438 -0.28125 1.953125 -0.21875 C 1.878906 -0.15625 1.78125 -0.0976562 1.65625 -0.046875 C 1.53125 0.00390625 1.398438 0.03125 1.265625 0.03125 Z M 1.265625 0.03125 "/></g></g></g><g fill="#000000" fill-opacity="1"><g transform="translate(14.408084, 36.91869)"><g><path d="M 1.109375 -1.890625 C 1.347656 -1.890625 1.546875 -1.835938 1.703125 -1.734375 C 1.867188 -1.640625 1.953125 -1.535156 1.953125 -1.421875 C 1.953125 -1.390625 1.9375 -1.359375 1.90625 -1.328125 C 1.875 -1.296875 1.835938 -1.28125 1.796875 -1.28125 C 1.753906 -1.28125 1.707031 -1.296875 1.65625 -1.328125 C 1.613281 -1.359375 1.570312 -1.390625 1.53125 -1.421875 C 1.488281 -1.453125 1.429688 -1.476562 1.359375 -1.5 C 1.296875 -1.53125 1.226562 -1.546875 1.15625 -1.546875 C 1.050781 -1.546875 1 -1.515625 1 -1.453125 C 1 -1.398438 1.023438 -1.359375 1.078125 -1.328125 C 1.128906 -1.304688 1.207031 -1.28125 1.3125 -1.25 C 1.414062 -1.226562 1.492188 -1.203125 1.546875 -1.171875 C 1.734375 -1.097656 1.863281 -1.015625 1.9375 -0.921875 C 2.019531 -0.835938 2.0625 -0.722656 2.0625 -0.578125 C 2.0625 -0.515625 2.039062 -0.445312 2 -0.375 C 1.957031 -0.300781 1.894531 -0.234375 1.8125 -0.171875 C 1.738281 -0.117188 1.632812 -0.0703125 1.5 -0.03125 C 1.363281 0.0078125 1.210938 0.03125 1.046875 0.03125 C 0.703125 0.03125 0.445312 -0.046875 0.28125 -0.203125 C 0.195312 -0.273438 0.15625 -0.351562 0.15625 -0.4375 C 0.15625 -0.488281 0.171875 -0.523438 0.203125 -0.546875 C 0.242188 -0.578125 0.289062 -0.59375 0.34375 -0.59375 C 0.40625 -0.59375 0.5 -0.5625 0.625 -0.5 C 0.75 -0.445312 0.863281 -0.421875 0.96875 -0.421875 C 1.113281 -0.421875 1.1875 -0.457031 1.1875 -0.53125 C 1.1875 -0.5625 1.144531 -0.585938 1.0625 -0.609375 C 0.988281 -0.640625 0.890625 -0.671875 0.765625 -0.703125 C 0.640625 -0.734375 0.539062 -0.769531 0.46875 -0.8125 C 0.351562 -0.863281 0.273438 -0.925781 0.234375 -1 C 0.191406 -1.070312 0.171875 -1.164062 0.171875 -1.28125 C 0.171875 -1.457031 0.253906 -1.601562 0.421875 -1.71875 C 0.597656 -1.832031 0.828125 -1.890625 1.109375 -1.890625 Z M 1.109375 -1.890625 "/></g></g></g><g fill="#000000" fill-opacity="1"><g transform="translate(16.610253, 36.91869)"><g><path d="M 0.375 -0.84375 L 0.375 -1.296875 C 0.3125 -1.304688 0.257812 -1.316406 0.21875 -1.328125 C 0.175781 -1.347656 0.144531 -1.375 0.125 -1.40625 C 0.113281 -1.4375 0.109375 -1.476562 0.109375 -1.53125 C 0.109375 -1.675781 0.195312 -1.753906 0.375 -1.765625 L 0.375 -2.140625 C 0.375 -2.234375 0.445312 -2.320312 0.59375 -2.40625 C 0.738281 -2.488281 0.882812 -2.53125 1.03125 -2.53125 C 1.113281 -2.53125 1.164062 -2.503906 1.1875 -2.453125 C 1.21875 -2.398438 1.234375 -2.328125 1.234375 -2.234375 L 1.234375 -1.78125 L 1.34375 -1.78125 C 1.488281 -1.78125 1.585938 -1.757812 1.640625 -1.71875 C 1.691406 -1.675781 1.71875 -1.609375 1.71875 -1.515625 C 1.71875 -1.472656 1.707031 -1.4375 1.6875 -1.40625 C 1.675781 -1.375 1.648438 -1.347656 1.609375 -1.328125 C 1.578125 -1.316406 1.535156 -1.304688 1.484375 -1.296875 C 1.441406 -1.296875 1.382812 -1.296875 1.3125 -1.296875 L 1.234375 -1.296875 L 1.234375 -0.859375 C 1.234375 -0.816406 1.234375 -0.78125 1.234375 -0.75 C 1.242188 -0.726562 1.25 -0.707031 1.25 -0.6875 C 1.257812 -0.675781 1.269531 -0.664062 1.28125 -0.65625 C 1.300781 -0.65625 1.320312 -0.65625 1.34375 -0.65625 C 1.375 -0.65625 1.398438 -0.664062 1.421875 -0.6875 C 1.441406 -0.707031 1.457031 -0.734375 1.46875 -0.765625 C 1.476562 -0.796875 1.492188 -0.820312 1.515625 -0.84375 C 1.535156 -0.863281 1.5625 -0.875 1.59375 -0.875 C 1.644531 -0.875 1.6875 -0.859375 1.71875 -0.828125 C 1.757812 -0.796875 1.78125 -0.757812 1.78125 -0.71875 C 1.78125 -0.65625 1.765625 -0.582031 1.734375 -0.5 C 1.703125 -0.414062 1.660156 -0.335938 1.609375 -0.265625 C 1.554688 -0.191406 1.484375 -0.128906 1.390625 -0.078125 C 1.304688 -0.0234375 1.207031 0 1.09375 0 C 0.832031 0 0.644531 -0.0625 0.53125 -0.1875 C 0.425781 -0.320312 0.375 -0.539062 0.375 -0.84375 Z M 0.375 -0.84375 "/></g></g></g><g fill="#000000" fill-opacity="1"><g transform="translate(18.573395, 36.91869)"><g><path d="M 1.015625 -0.421875 C 1.015625 -0.265625 0.984375 -0.15625 0.921875 -0.09375 C 0.859375 -0.03125 0.742188 0 0.578125 0 C 0.421875 0 0.3125 -0.0351562 0.25 -0.109375 C 0.195312 -0.179688 0.171875 -0.300781 0.171875 -0.46875 L 0.171875 -1.421875 C 0.171875 -1.554688 0.207031 -1.664062 0.28125 -1.75 C 0.351562 -1.832031 0.453125 -1.875 0.578125 -1.875 C 0.710938 -1.875 0.816406 -1.84375 0.890625 -1.78125 C 0.972656 -1.71875 1.015625 -1.601562 1.015625 -1.4375 Z M 0.171875 -2.421875 C 0.171875 -2.316406 0.207031 -2.238281 0.28125 -2.1875 C 0.363281 -2.144531 0.46875 -2.125 0.59375 -2.125 C 0.726562 -2.125 0.832031 -2.144531 0.90625 -2.1875 C 0.988281 -2.226562 1.03125 -2.304688 1.03125 -2.421875 C 1.03125 -2.617188 0.882812 -2.71875 0.59375 -2.71875 C 0.457031 -2.71875 0.351562 -2.6875 0.28125 -2.625 C 0.207031 -2.570312 0.171875 -2.503906 0.171875 -2.421875 Z M 0.171875 -2.421875 "/></g></g></g><g fill="#000000" fill-opacity="1"><g transform="translate(19.76852, 36.91869)"><g><path d="M 1.5625 -2.953125 C 1.625 -2.992188 1.6875 -3.015625 1.75 -3.015625 C 1.84375 -3.015625 1.914062 -2.972656 1.96875 -2.890625 C 2.03125 -2.804688 2.0625 -2.71875 2.0625 -2.625 C 2.0625 -2.5 1.976562 -2.40625 1.8125 -2.34375 L 1.34375 -2.171875 C 1.269531 -2.148438 1.207031 -2.140625 1.15625 -2.140625 C 1.101562 -2.140625 1.054688 -2.148438 1.015625 -2.171875 C 0.972656 -2.191406 0.941406 -2.21875 0.921875 -2.25 C 0.898438 -2.289062 0.890625 -2.332031 0.890625 -2.375 C 0.890625 -2.46875 0.941406 -2.550781 1.046875 -2.625 C 1.046875 -2.625 1.066406 -2.640625 1.109375 -2.671875 Z M 1.25 0.03125 C 1.039062 0.03125 0.851562 -0.00390625 0.6875 -0.078125 C 0.53125 -0.148438 0.398438 -0.257812 0.296875 -0.40625 C 0.203125 -0.550781 0.15625 -0.722656 0.15625 -0.921875 C 0.15625 -1.222656 0.253906 -1.457031 0.453125 -1.625 C 0.660156 -1.800781 0.921875 -1.890625 1.234375 -1.890625 C 1.554688 -1.890625 1.816406 -1.800781 2.015625 -1.625 C 2.222656 -1.457031 2.328125 -1.222656 2.328125 -0.921875 C 2.328125 -0.628906 2.222656 -0.394531 2.015625 -0.21875 C 1.804688 -0.0507812 1.550781 0.03125 1.25 0.03125 Z M 1.453125 -0.921875 C 1.453125 -1.066406 1.429688 -1.1875 1.390625 -1.28125 C 1.359375 -1.382812 1.3125 -1.4375 1.25 -1.4375 C 1.207031 -1.4375 1.164062 -1.410156 1.125 -1.359375 C 1.09375 -1.304688 1.066406 -1.242188 1.046875 -1.171875 C 1.035156 -1.097656 1.03125 -1.015625 1.03125 -0.921875 C 1.03125 -0.796875 1.046875 -0.679688 1.078125 -0.578125 C 1.117188 -0.472656 1.171875 -0.421875 1.234375 -0.421875 C 1.304688 -0.421875 1.359375 -0.46875 1.390625 -0.5625 C 1.429688 -0.664062 1.453125 -0.785156 1.453125 -0.921875 Z M 1.453125 -0.921875 "/></g></g></g><g fill="#000000" fill-opacity="1"><g transform="translate(22.24106, 36.91869)"><g><path d="M 1.390625 -1.0625 C 1.390625 -1.207031 1.332031 -1.28125 1.21875 -1.28125 C 1.15625 -1.28125 1.109375 -1.253906 1.078125 -1.203125 C 1.046875 -1.160156 1.023438 -1.101562 1.015625 -1.03125 L 1.015625 -0.421875 C 1.015625 -0.265625 0.976562 -0.15625 0.90625 -0.09375 C 0.84375 -0.03125 0.734375 0 0.578125 0 C 0.421875 0 0.3125 -0.0351562 0.25 -0.109375 C 0.195312 -0.179688 0.171875 -0.300781 0.171875 -0.46875 L 0.171875 -1.421875 C 0.171875 -1.554688 0.207031 -1.664062 0.28125 -1.75 C 0.351562 -1.832031 0.445312 -1.875 0.5625 -1.875 C 0.664062 -1.875 0.75 -1.859375 0.8125 -1.828125 C 0.882812 -1.796875 0.9375 -1.742188 0.96875 -1.671875 C 1.175781 -1.804688 1.425781 -1.875 1.71875 -1.875 C 1.90625 -1.875 2.039062 -1.800781 2.125 -1.65625 C 2.207031 -1.507812 2.25 -1.269531 2.25 -0.9375 C 2.25 -0.769531 2.242188 -0.632812 2.234375 -0.53125 C 2.222656 -0.425781 2.207031 -0.335938 2.1875 -0.265625 C 2.175781 -0.191406 2.148438 -0.132812 2.109375 -0.09375 C 2.078125 -0.0625 2.035156 -0.0351562 1.984375 -0.015625 C 1.929688 -0.00390625 1.867188 0 1.796875 0 C 1.648438 0 1.546875 -0.0234375 1.484375 -0.078125 C 1.421875 -0.140625 1.390625 -0.222656 1.390625 -0.328125 Z M 1.390625 -1.0625 "/></g></g></g><g fill="#000000" fill-opacity="1"><g transform="translate(24.654827, 36.91869)"><g/></g></g><g fill="#000000" fill-opacity="1"><g transform="translate(25.712808, 36.91869)"><g><path d="M 2.21875 -1.109375 C 2.21875 -0.660156 2.203125 -0.347656 2.171875 -0.171875 C 2.148438 -0.00390625 2.117188 0.132812 2.078125 0.25 C 2.035156 0.363281 1.972656 0.460938 1.890625 0.546875 C 1.804688 0.640625 1.703125 0.707031 1.578125 0.75 C 1.453125 0.800781 1.300781 0.828125 1.125 0.828125 C 0.988281 0.828125 0.859375 0.804688 0.734375 0.765625 C 0.617188 0.722656 0.523438 0.671875 0.453125 0.609375 C 0.390625 0.554688 0.335938 0.5 0.296875 0.4375 C 0.253906 0.382812 0.234375 0.335938 0.234375 0.296875 C 0.234375 0.253906 0.25 0.210938 0.28125 0.171875 C 0.3125 0.140625 0.347656 0.125 0.390625 0.125 C 0.421875 0.125 0.457031 0.132812 0.5 0.15625 C 0.550781 0.175781 0.597656 0.195312 0.640625 0.21875 C 0.679688 0.25 0.726562 0.273438 0.78125 0.296875 C 0.84375 0.316406 0.898438 0.328125 0.953125 0.328125 C 1.097656 0.328125 1.195312 0.289062 1.25 0.21875 C 1.3125 0.144531 1.34375 0.046875 1.34375 -0.078125 C 1.300781 -0.0664062 1.257812 -0.0507812 1.21875 -0.03125 C 1.175781 -0.0195312 1.132812 -0.0078125 1.09375 0 C 1.0625 0.0078125 1.023438 0.015625 0.984375 0.015625 C 0.953125 0.015625 0.914062 0.015625 0.875 0.015625 C 0.726562 0.015625 0.597656 -0.0234375 0.484375 -0.109375 C 0.378906 -0.203125 0.300781 -0.3125 0.25 -0.4375 C 0.195312 -0.5625 0.171875 -0.695312 0.171875 -0.84375 C 0.171875 -0.988281 0.171875 -1.113281 0.171875 -1.21875 C 0.179688 -1.320312 0.191406 -1.410156 0.203125 -1.484375 C 0.222656 -1.566406 0.238281 -1.628906 0.25 -1.671875 C 0.269531 -1.722656 0.296875 -1.765625 0.328125 -1.796875 C 0.359375 -1.828125 0.390625 -1.847656 0.421875 -1.859375 C 0.460938 -1.867188 0.515625 -1.875 0.578125 -1.875 C 0.734375 -1.875 0.84375 -1.84375 0.90625 -1.78125 C 0.976562 -1.726562 1.015625 -1.640625 1.015625 -1.515625 L 1.03125 -0.890625 C 1.03125 -0.847656 1.03125 -0.816406 1.03125 -0.796875 C 1.03125 -0.773438 1.03125 -0.75 1.03125 -0.71875 C 1.03125 -0.695312 1.035156 -0.675781 1.046875 -0.65625 C 1.054688 -0.644531 1.066406 -0.628906 1.078125 -0.609375 C 1.085938 -0.597656 1.101562 -0.585938 1.125 -0.578125 C 1.144531 -0.578125 1.164062 -0.578125 1.1875 -0.578125 C 1.269531 -0.578125 1.320312 -0.597656 1.34375 -0.640625 C 1.363281 -0.691406 1.375 -0.773438 1.375 -0.890625 L 1.375 -1.515625 C 1.375 -1.597656 1.382812 -1.664062 1.40625 -1.71875 C 1.4375 -1.769531 1.484375 -1.804688 1.546875 -1.828125 C 1.617188 -1.859375 1.707031 -1.875 1.8125 -1.875 C 1.882812 -1.875 1.941406 -1.859375 1.984375 -1.828125 C 2.035156 -1.804688 2.078125 -1.78125 2.109375 -1.75 C 2.140625 -1.71875 2.160156 -1.664062 2.171875 -1.59375 C 2.191406 -1.519531 2.203125 -1.445312 2.203125 -1.375 C 2.210938 -1.3125 2.21875 -1.222656 2.21875 -1.109375 Z M 2.21875 -1.109375 "/></g></g></g><g fill="#000000" fill-opacity="1"><g transform="translate(28.091308, 36.91869)"><g/></g></g><g fill="#000000" fill-opacity="1"><g transform="translate(29.149289, 36.91869)"><g><path d="M 1.859375 -1.953125 C 1.859375 -2.003906 1.832031 -2.050781 1.78125 -2.09375 C 1.738281 -2.132812 1.6875 -2.15625 1.625 -2.15625 C 1.5 -2.15625 1.394531 -2.082031 1.3125 -1.9375 C 1.226562 -1.789062 1.1875 -1.628906 1.1875 -1.453125 C 1.1875 -1.316406 1.210938 -1.191406 1.265625 -1.078125 C 1.316406 -0.960938 1.390625 -0.875 1.484375 -0.8125 C 1.585938 -0.75 1.707031 -0.71875 1.84375 -0.71875 C 1.9375 -0.71875 2.023438 -0.734375 2.109375 -0.765625 C 2.203125 -0.804688 2.273438 -0.847656 2.328125 -0.890625 C 2.390625 -0.941406 2.445312 -0.984375 2.5 -1.015625 C 2.5625 -1.054688 2.613281 -1.078125 2.65625 -1.078125 C 2.71875 -1.078125 2.769531 -1.050781 2.8125 -1 C 2.851562 -0.957031 2.875 -0.910156 2.875 -0.859375 C 2.875 -0.804688 2.859375 -0.742188 2.828125 -0.671875 C 2.796875 -0.597656 2.742188 -0.519531 2.671875 -0.4375 C 2.597656 -0.351562 2.515625 -0.273438 2.421875 -0.203125 C 2.328125 -0.140625 2.207031 -0.0820312 2.0625 -0.03125 C 1.925781 0.0078125 1.78125 0.03125 1.625 0.03125 C 1.425781 0.03125 1.238281 0 1.0625 -0.0625 C 0.882812 -0.125 0.734375 -0.210938 0.609375 -0.328125 C 0.484375 -0.441406 0.382812 -0.582031 0.3125 -0.75 C 0.238281 -0.925781 0.203125 -1.125 0.203125 -1.34375 C 0.203125 -1.757812 0.328125 -2.085938 0.578125 -2.328125 C 0.828125 -2.578125 1.160156 -2.703125 1.578125 -2.703125 C 1.785156 -2.703125 1.976562 -2.664062 2.15625 -2.59375 C 2.332031 -2.53125 2.472656 -2.4375 2.578125 -2.3125 C 2.679688 -2.1875 2.734375 -2.046875 2.734375 -1.890625 C 2.734375 -1.722656 2.675781 -1.566406 2.5625 -1.421875 C 2.445312 -1.285156 2.300781 -1.21875 2.125 -1.21875 C 2.019531 -1.21875 1.921875 -1.242188 1.828125 -1.296875 C 1.742188 -1.359375 1.703125 -1.441406 1.703125 -1.546875 C 1.703125 -1.597656 1.726562 -1.664062 1.78125 -1.75 C 1.832031 -1.84375 1.859375 -1.910156 1.859375 -1.953125 Z M 1.859375 -1.953125 "/></g></g></g><g fill="#000000" fill-opacity="1"><g transform="translate(32.217436, 36.91869)"><g><path d="M 1.25 0.03125 C 1.039062 0.03125 0.851562 -0.00390625 0.6875 -0.078125 C 0.53125 -0.148438 0.398438 -0.257812 0.296875 -0.40625 C 0.203125 -0.550781 0.15625 -0.722656 0.15625 -0.921875 C 0.15625 -1.222656 0.253906 -1.457031 0.453125 -1.625 C 0.660156 -1.800781 0.921875 -1.890625 1.234375 -1.890625 C 1.554688 -1.890625 1.816406 -1.800781 2.015625 -1.625 C 2.222656 -1.457031 2.328125 -1.222656 2.328125 -0.921875 C 2.328125 -0.628906 2.222656 -0.394531 2.015625 -0.21875 C 1.804688 -0.0507812 1.550781 0.03125 1.25 0.03125 Z M 1.453125 -0.921875 C 1.453125 -1.066406 1.429688 -1.1875 1.390625 -1.28125 C 1.359375 -1.382812 1.3125 -1.4375 1.25 -1.4375 C 1.207031 -1.4375 1.164062 -1.410156 1.125 -1.359375 C 1.09375 -1.304688 1.066406 -1.242188 1.046875 -1.171875 C 1.035156 -1.097656 1.03125 -1.015625 1.03125 -0.921875 C 1.03125 -0.796875 1.046875 -0.679688 1.078125 -0.578125 C 1.117188 -0.472656 1.171875 -0.421875 1.234375 -0.421875 C 1.304688 -0.421875 1.359375 -0.46875 1.390625 -0.5625 C 1.429688 -0.664062 1.453125 -0.785156 1.453125 -0.921875 Z M 1.453125 -0.921875 "/></g></g></g><g fill="#000000" fill-opacity="1"><g transform="translate(34.689977, 36.91869)"><g><path d="M 1.390625 -1.0625 C 1.390625 -1.207031 1.332031 -1.28125 1.21875 -1.28125 C 1.15625 -1.28125 1.109375 -1.253906 1.078125 -1.203125 C 1.046875 -1.160156 1.023438 -1.101562 1.015625 -1.03125 L 1.015625 -0.421875 C 1.015625 -0.265625 0.976562 -0.15625 0.90625 -0.09375 C 0.84375 -0.03125 0.734375 0 0.578125 0 C 0.421875 0 0.3125 -0.0351562 0.25 -0.109375 C 0.195312 -0.179688 0.171875 -0.300781 0.171875 -0.46875 L 0.171875 -1.421875 C 0.171875 -1.554688 0.207031 -1.664062 0.28125 -1.75 C 0.351562 -1.832031 0.445312 -1.875 0.5625 -1.875 C 0.664062 -1.875 0.75 -1.859375 0.8125 -1.828125 C 0.882812 -1.796875 0.9375 -1.742188 0.96875 -1.671875 C 1.175781 -1.804688 1.425781 -1.875 1.71875 -1.875 C 1.90625 -1.875 2.039062 -1.800781 2.125 -1.65625 C 2.207031 -1.507812 2.25 -1.269531 2.25 -0.9375 C 2.25 -0.769531 2.242188 -0.632812 2.234375 -0.53125 C 2.222656 -0.425781 2.207031 -0.335938 2.1875 -0.265625 C 2.175781 -0.191406 2.148438 -0.132812 2.109375 -0.09375 C 2.078125 -0.0625 2.035156 -0.0351562 1.984375 -0.015625 C 1.929688 -0.00390625 1.867188 0 1.796875 0 C 1.648438 0 1.546875 -0.0234375 1.484375 -0.078125 C 1.421875 -0.140625 1.390625 -0.222656 1.390625 -0.328125 Z M 1.390625 -1.0625 "/></g></g></g><g fill="#000000" fill-opacity="1"><g transform="translate(37.103744, 36.91869)"><g><path d="M 0.375 -0.84375 L 0.375 -1.296875 C 0.3125 -1.304688 0.257812 -1.316406 0.21875 -1.328125 C 0.175781 -1.347656 0.144531 -1.375 0.125 -1.40625 C 0.113281 -1.4375 0.109375 -1.476562 0.109375 -1.53125 C 0.109375 -1.675781 0.195312 -1.753906 0.375 -1.765625 L 0.375 -2.140625 C 0.375 -2.234375 0.445312 -2.320312 0.59375 -2.40625 C 0.738281 -2.488281 0.882812 -2.53125 1.03125 -2.53125 C 1.113281 -2.53125 1.164062 -2.503906 1.1875 -2.453125 C 1.21875 -2.398438 1.234375 -2.328125 1.234375 -2.234375 L 1.234375 -1.78125 L 1.34375 -1.78125 C 1.488281 -1.78125 1.585938 -1.757812 1.640625 -1.71875 C 1.691406 -1.675781 1.71875 -1.609375 1.71875 -1.515625 C 1.71875 -1.472656 1.707031 -1.4375 1.6875 -1.40625 C 1.675781 -1.375 1.648438 -1.347656 1.609375 -1.328125 C 1.578125 -1.316406 1.535156 -1.304688 1.484375 -1.296875 C 1.441406 -1.296875 1.382812 -1.296875 1.3125 -1.296875 L 1.234375 -1.296875 L 1.234375 -0.859375 C 1.234375 -0.816406 1.234375 -0.78125 1.234375 -0.75 C 1.242188 -0.726562 1.25 -0.707031 1.25 -0.6875 C 1.257812 -0.675781 1.269531 -0.664062 1.28125 -0.65625 C 1.300781 -0.65625 1.320312 -0.65625 1.34375 -0.65625 C 1.375 -0.65625 1.398438 -0.664062 1.421875 -0.6875 C 1.441406 -0.707031 1.457031 -0.734375 1.46875 -0.765625 C 1.476562 -0.796875 1.492188 -0.820312 1.515625 -0.84375 C 1.535156 -0.863281 1.5625 -0.875 1.59375 -0.875 C 1.644531 -0.875 1.6875 -0.859375 1.71875 -0.828125 C 1.757812 -0.796875 1.78125 -0.757812 1.78125 -0.71875 C 1.78125 -0.65625 1.765625 -0.582031 1.734375 -0.5 C 1.703125 -0.414062 1.660156 -0.335938 1.609375 -0.265625 C 1.554688 -0.191406 1.484375 -0.128906 1.390625 -0.078125 C 1.304688 -0.0234375 1.207031 0 1.09375 0 C 0.832031 0 0.644531 -0.0625 0.53125 -0.1875 C 0.425781 -0.320312 0.375 -0.539062 0.375 -0.84375 Z M 0.375 -0.84375 "/></g></g></g><g fill="#000000" fill-opacity="1"><g transform="translate(39.066886, 36.91869)"><g><path d="M 1.03125 -0.421875 C 1.03125 -0.265625 0.992188 -0.15625 0.921875 -0.09375 C 0.859375 -0.03125 0.742188 0 0.578125 0 C 0.421875 0 0.316406 -0.0351562 0.265625 -0.109375 C 0.210938 -0.179688 0.1875 -0.300781 0.1875 -0.46875 L 0.1875 -1.421875 C 0.1875 -1.515625 0.203125 -1.59375 0.234375 -1.65625 C 0.265625 -1.726562 0.304688 -1.78125 0.359375 -1.8125 C 0.421875 -1.851562 0.492188 -1.875 0.578125 -1.875 C 0.773438 -1.875 0.90625 -1.816406 0.96875 -1.703125 C 1.125 -1.816406 1.269531 -1.875 1.40625 -1.875 C 1.675781 -1.875 1.8125 -1.742188 1.8125 -1.484375 C 1.8125 -1.378906 1.78125 -1.289062 1.71875 -1.21875 C 1.664062 -1.15625 1.59375 -1.125 1.5 -1.125 C 1.4375 -1.125 1.382812 -1.132812 1.34375 -1.15625 C 1.3125 -1.1875 1.28125 -1.210938 1.25 -1.234375 C 1.226562 -1.253906 1.195312 -1.265625 1.15625 -1.265625 C 1.09375 -1.265625 1.050781 -1.242188 1.03125 -1.203125 Z M 1.03125 -0.421875 "/></g></g></g><g fill="#000000" fill-opacity="1"><g transform="translate(40.916396, 36.91869)"><g><path d="M 1.25 0.03125 C 1.039062 0.03125 0.851562 -0.00390625 0.6875 -0.078125 C 0.53125 -0.148438 0.398438 -0.257812 0.296875 -0.40625 C 0.203125 -0.550781 0.15625 -0.722656 0.15625 -0.921875 C 0.15625 -1.222656 0.253906 -1.457031 0.453125 -1.625 C 0.660156 -1.800781 0.921875 -1.890625 1.234375 -1.890625 C 1.554688 -1.890625 1.816406 -1.800781 2.015625 -1.625 C 2.222656 -1.457031 2.328125 -1.222656 2.328125 -0.921875 C 2.328125 -0.628906 2.222656 -0.394531 2.015625 -0.21875 C 1.804688 -0.0507812 1.550781 0.03125 1.25 0.03125 Z M 1.453125 -0.921875 C 1.453125 -1.066406 1.429688 -1.1875 1.390625 -1.28125 C 1.359375 -1.382812 1.3125 -1.4375 1.25 -1.4375 C 1.207031 -1.4375 1.164062 -1.410156 1.125 -1.359375 C 1.09375 -1.304688 1.066406 -1.242188 1.046875 -1.171875 C 1.035156 -1.097656 1.03125 -1.015625 1.03125 -0.921875 C 1.03125 -0.796875 1.046875 -0.679688 1.078125 -0.578125 C 1.117188 -0.472656 1.171875 -0.421875 1.234375 -0.421875 C 1.304688 -0.421875 1.359375 -0.46875 1.390625 -0.5625 C 1.429688 -0.664062 1.453125 -0.785156 1.453125 -0.921875 Z M 1.453125 -0.921875 "/></g></g></g><g fill="#000000" fill-opacity="1"><g transform="translate(43.388937, 36.91869)"><g><path d="M 1.046875 -0.59375 C 1.046875 -0.382812 1.007812 -0.234375 0.9375 -0.140625 C 0.863281 -0.046875 0.753906 0 0.609375 0 C 0.460938 0 0.351562 -0.0390625 0.28125 -0.125 C 0.21875 -0.207031 0.1875 -0.351562 0.1875 -0.5625 L 0.1875 -2.21875 C 0.1875 -2.28125 0.191406 -2.335938 0.203125 -2.390625 C 0.210938 -2.441406 0.226562 -2.484375 0.25 -2.515625 C 0.28125 -2.554688 0.3125 -2.585938 0.34375 -2.609375 C 0.382812 -2.640625 0.425781 -2.660156 0.46875 -2.671875 C 0.507812 -2.679688 0.554688 -2.6875 0.609375 -2.6875 C 0.753906 -2.6875 0.863281 -2.65625 0.9375 -2.59375 C 1.007812 -2.539062 1.046875 -2.425781 1.046875 -2.25 Z M 1.046875 -0.59375 "/></g></g></g><g fill="#000000" fill-opacity="1"><g transform="translate(44.611495, 36.91869)"><g/></g></g><g fill="#000000" fill-opacity="1"><g transform="translate(45.669476, 36.91869)"><g><path d="M 1.421875 -0.5625 L 1.40625 -1.296875 C 1.363281 -1.367188 1.304688 -1.40625 1.234375 -1.40625 C 1.191406 -1.40625 1.148438 -1.378906 1.109375 -1.328125 C 1.078125 -1.285156 1.050781 -1.226562 1.03125 -1.15625 C 1.019531 -1.082031 1.015625 -1.003906 1.015625 -0.921875 C 1.015625 -0.796875 1.03125 -0.6875 1.0625 -0.59375 C 1.101562 -0.5 1.160156 -0.453125 1.234375 -0.453125 C 1.242188 -0.453125 1.253906 -0.453125 1.265625 -0.453125 C 1.285156 -0.460938 1.300781 -0.46875 1.3125 -0.46875 C 1.320312 -0.46875 1.332031 -0.472656 1.34375 -0.484375 C 1.351562 -0.492188 1.359375 -0.5 1.359375 -0.5 C 1.367188 -0.507812 1.378906 -0.519531 1.390625 -0.53125 C 1.398438 -0.539062 1.410156 -0.550781 1.421875 -0.5625 Z M 2.265625 -0.59375 C 2.265625 -0.375 2.226562 -0.21875 2.15625 -0.125 C 2.09375 -0.0390625 1.988281 0 1.84375 0 C 1.675781 0 1.5625 -0.0507812 1.5 -0.15625 C 1.320312 -0.03125 1.113281 0.03125 0.875 0.03125 C 0.675781 0.03125 0.507812 -0.0507812 0.375 -0.21875 C 0.238281 -0.394531 0.171875 -0.628906 0.171875 -0.921875 C 0.171875 -1.210938 0.234375 -1.445312 0.359375 -1.625 C 0.492188 -1.800781 0.664062 -1.890625 0.875 -1.890625 C 1.0625 -1.890625 1.238281 -1.832031 1.40625 -1.71875 L 1.40625 -2.21875 C 1.40625 -2.375 1.441406 -2.488281 1.515625 -2.5625 C 1.597656 -2.644531 1.707031 -2.6875 1.84375 -2.6875 C 1.988281 -2.6875 2.09375 -2.65625 2.15625 -2.59375 C 2.226562 -2.539062 2.265625 -2.425781 2.265625 -2.25 Z M 2.265625 -0.59375 "/></g></g></g><g fill="#000000" fill-opacity="1"><g transform="translate(48.118504, 36.91869)"><g><path d="M 1 -1.09375 C 1.175781 -1.101562 1.269531 -1.109375 1.28125 -1.109375 C 1.320312 -1.109375 1.351562 -1.128906 1.375 -1.171875 C 1.382812 -1.203125 1.390625 -1.25 1.390625 -1.3125 C 1.390625 -1.476562 1.34375 -1.5625 1.25 -1.5625 C 1.207031 -1.5625 1.164062 -1.539062 1.125 -1.5 C 1.09375 -1.457031 1.0625 -1.398438 1.03125 -1.328125 C 1.007812 -1.265625 1 -1.1875 1 -1.09375 Z M 1.265625 0.03125 C 0.941406 0.03125 0.675781 -0.0507812 0.46875 -0.21875 C 0.257812 -0.382812 0.15625 -0.609375 0.15625 -0.890625 C 0.15625 -1.203125 0.253906 -1.445312 0.453125 -1.625 C 0.660156 -1.800781 0.929688 -1.890625 1.265625 -1.890625 C 1.566406 -1.890625 1.785156 -1.835938 1.921875 -1.734375 C 2.066406 -1.628906 2.140625 -1.484375 2.140625 -1.296875 C 2.140625 -1.253906 2.132812 -1.21875 2.125 -1.1875 C 2.125 -1.15625 2.113281 -1.117188 2.09375 -1.078125 C 2.070312 -1.046875 2.046875 -1.015625 2.015625 -0.984375 C 1.984375 -0.960938 1.941406 -0.941406 1.890625 -0.921875 C 1.847656 -0.898438 1.796875 -0.878906 1.734375 -0.859375 C 1.679688 -0.847656 1.625 -0.84375 1.5625 -0.84375 L 1.015625 -0.84375 C 1.035156 -0.757812 1.078125 -0.691406 1.140625 -0.640625 C 1.210938 -0.597656 1.300781 -0.578125 1.40625 -0.578125 C 1.519531 -0.578125 1.632812 -0.59375 1.75 -0.625 C 1.800781 -0.632812 1.859375 -0.648438 1.921875 -0.671875 C 1.984375 -0.703125 2.023438 -0.71875 2.046875 -0.71875 C 2.085938 -0.71875 2.117188 -0.703125 2.140625 -0.671875 C 2.171875 -0.648438 2.1875 -0.625 2.1875 -0.59375 C 2.1875 -0.539062 2.164062 -0.476562 2.125 -0.40625 C 2.082031 -0.34375 2.023438 -0.28125 1.953125 -0.21875 C 1.878906 -0.15625 1.78125 -0.0976562 1.65625 -0.046875 C 1.53125 0.00390625 1.398438 0.03125 1.265625 0.03125 Z M 1.265625 0.03125 "/></g></g></g><g fill="#000000" fill-opacity="1"><g transform="translate(50.449979, 36.91869)"><g/></g></g><g fill="#000000" fill-opacity="1"><g transform="translate(51.50796, 36.91869)"><g><path d="M 2.828125 -0.59375 C 2.828125 -0.375 2.789062 -0.21875 2.71875 -0.125 C 2.644531 -0.0390625 2.53125 0 2.375 0 C 2.226562 0 2.117188 -0.0390625 2.046875 -0.125 C 1.972656 -0.207031 1.9375 -0.351562 1.9375 -0.5625 L 1.9375 -1 L 1.140625 -1 L 1.140625 -0.59375 C 1.140625 -0.375 1.097656 -0.21875 1.015625 -0.125 C 0.941406 -0.0390625 0.828125 0 0.671875 0 C 0.523438 0 0.414062 -0.0390625 0.34375 -0.125 C 0.269531 -0.207031 0.234375 -0.351562 0.234375 -0.5625 L 0.21875 -2.21875 C 0.21875 -2.375 0.257812 -2.488281 0.34375 -2.5625 C 0.425781 -2.644531 0.535156 -2.6875 0.671875 -2.6875 C 0.828125 -2.6875 0.941406 -2.65625 1.015625 -2.59375 C 1.097656 -2.539062 1.140625 -2.425781 1.140625 -2.25 L 1.140625 -1.59375 L 1.921875 -1.59375 L 1.921875 -2.21875 C 1.921875 -2.320312 1.941406 -2.410156 1.984375 -2.484375 C 2.023438 -2.554688 2.078125 -2.609375 2.140625 -2.640625 C 2.210938 -2.671875 2.289062 -2.6875 2.375 -2.6875 C 2.53125 -2.6875 2.644531 -2.65625 2.71875 -2.59375 C 2.789062 -2.539062 2.828125 -2.425781 2.828125 -2.25 Z M 2.828125 -0.59375 "/></g></g></g><g fill="#000000" fill-opacity="1"><g transform="translate(54.564349, 36.91869)"><g><path d="M 1.015625 -0.421875 C 1.015625 -0.265625 0.984375 -0.15625 0.921875 -0.09375 C 0.859375 -0.03125 0.742188 0 0.578125 0 C 0.421875 0 0.3125 -0.0351562 0.25 -0.109375 C 0.195312 -0.179688 0.171875 -0.300781 0.171875 -0.46875 L 0.171875 -1.421875 C 0.171875 -1.554688 0.207031 -1.664062 0.28125 -1.75 C 0.351562 -1.832031 0.453125 -1.875 0.578125 -1.875 C 0.710938 -1.875 0.816406 -1.84375 0.890625 -1.78125 C 0.972656 -1.71875 1.015625 -1.601562 1.015625 -1.4375 Z M 0.171875 -2.421875 C 0.171875 -2.316406 0.207031 -2.238281 0.28125 -2.1875 C 0.363281 -2.144531 0.46875 -2.125 0.59375 -2.125 C 0.726562 -2.125 0.832031 -2.144531 0.90625 -2.1875 C 0.988281 -2.226562 1.03125 -2.304688 1.03125 -2.421875 C 1.03125 -2.617188 0.882812 -2.71875 0.59375 -2.71875 C 0.457031 -2.71875 0.351562 -2.6875 0.28125 -2.625 C 0.207031 -2.570312 0.171875 -2.503906 0.171875 -2.421875 Z M 0.171875 -2.421875 "/></g></g></g><g fill="#000000" fill-opacity="1"><g transform="translate(55.759473, 36.91869)"><g><path d="M 1.109375 -1.890625 C 1.347656 -1.890625 1.546875 -1.835938 1.703125 -1.734375 C 1.867188 -1.640625 1.953125 -1.535156 1.953125 -1.421875 C 1.953125 -1.390625 1.9375 -1.359375 1.90625 -1.328125 C 1.875 -1.296875 1.835938 -1.28125 1.796875 -1.28125 C 1.753906 -1.28125 1.707031 -1.296875 1.65625 -1.328125 C 1.613281 -1.359375 1.570312 -1.390625 1.53125 -1.421875 C 1.488281 -1.453125 1.429688 -1.476562 1.359375 -1.5 C 1.296875 -1.53125 1.226562 -1.546875 1.15625 -1.546875 C 1.050781 -1.546875 1 -1.515625 1 -1.453125 C 1 -1.398438 1.023438 -1.359375 1.078125 -1.328125 C 1.128906 -1.304688 1.207031 -1.28125 1.3125 -1.25 C 1.414062 -1.226562 1.492188 -1.203125 1.546875 -1.171875 C 1.734375 -1.097656 1.863281 -1.015625 1.9375 -0.921875 C 2.019531 -0.835938 2.0625 -0.722656 2.0625 -0.578125 C 2.0625 -0.515625 2.039062 -0.445312 2 -0.375 C 1.957031 -0.300781 1.894531 -0.234375 1.8125 -0.171875 C 1.738281 -0.117188 1.632812 -0.0703125 1.5 -0.03125 C 1.363281 0.0078125 1.210938 0.03125 1.046875 0.03125 C 0.703125 0.03125 0.445312 -0.046875 0.28125 -0.203125 C 0.195312 -0.273438 0.15625 -0.351562 0.15625 -0.4375 C 0.15625 -0.488281 0.171875 -0.523438 0.203125 -0.546875 C 0.242188 -0.578125 0.289062 -0.59375 0.34375 -0.59375 C 0.40625 -0.59375 0.5 -0.5625 0.625 -0.5 C 0.75 -0.445312 0.863281 -0.421875 0.96875 -0.421875 C 1.113281 -0.421875 1.1875 -0.457031 1.1875 -0.53125 C 1.1875 -0.5625 1.144531 -0.585938 1.0625 -0.609375 C 0.988281 -0.640625 0.890625 -0.671875 0.765625 -0.703125 C 0.640625 -0.734375 0.539062 -0.769531 0.46875 -0.8125 C 0.351562 -0.863281 0.273438 -0.925781 0.234375 -1 C 0.191406 -1.070312 0.171875 -1.164062 0.171875 -1.28125 C 0.171875 -1.457031 0.253906 -1.601562 0.421875 -1.71875 C 0.597656 -1.832031 0.828125 -1.890625 1.109375 -1.890625 Z M 1.109375 -1.890625 "/></g></g></g><g fill="#000000" fill-opacity="1"><g transform="translate(57.961642, 36.91869)"><g><path d="M 0.375 -0.84375 L 0.375 -1.296875 C 0.3125 -1.304688 0.257812 -1.316406 0.21875 -1.328125 C 0.175781 -1.347656 0.144531 -1.375 0.125 -1.40625 C 0.113281 -1.4375 0.109375 -1.476562 0.109375 -1.53125 C 0.109375 -1.675781 0.195312 -1.753906 0.375 -1.765625 L 0.375 -2.140625 C 0.375 -2.234375 0.445312 -2.320312 0.59375 -2.40625 C 0.738281 -2.488281 0.882812 -2.53125 1.03125 -2.53125 C 1.113281 -2.53125 1.164062 -2.503906 1.1875 -2.453125 C 1.21875 -2.398438 1.234375 -2.328125 1.234375 -2.234375 L 1.234375 -1.78125 L 1.34375 -1.78125 C 1.488281 -1.78125 1.585938 -1.757812 1.640625 -1.71875 C 1.691406 -1.675781 1.71875 -1.609375 1.71875 -1.515625 C 1.71875 -1.472656 1.707031 -1.4375 1.6875 -1.40625 C 1.675781 -1.375 1.648438 -1.347656 1.609375 -1.328125 C 1.578125 -1.316406 1.535156 -1.304688 1.484375 -1.296875 C 1.441406 -1.296875 1.382812 -1.296875 1.3125 -1.296875 L 1.234375 -1.296875 L 1.234375 -0.859375 C 1.234375 -0.816406 1.234375 -0.78125 1.234375 -0.75 C 1.242188 -0.726562 1.25 -0.707031 1.25 -0.6875 C 1.257812 -0.675781 1.269531 -0.664062 1.28125 -0.65625 C 1.300781 -0.65625 1.320312 -0.65625 1.34375 -0.65625 C 1.375 -0.65625 1.398438 -0.664062 1.421875 -0.6875 C 1.441406 -0.707031 1.457031 -0.734375 1.46875 -0.765625 C 1.476562 -0.796875 1.492188 -0.820312 1.515625 -0.84375 C 1.535156 -0.863281 1.5625 -0.875 1.59375 -0.875 C 1.644531 -0.875 1.6875 -0.859375 1.71875 -0.828125 C 1.757812 -0.796875 1.78125 -0.757812 1.78125 -0.71875 C 1.78125 -0.65625 1.765625 -0.582031 1.734375 -0.5 C 1.703125 -0.414062 1.660156 -0.335938 1.609375 -0.265625 C 1.554688 -0.191406 1.484375 -0.128906 1.390625 -0.078125 C 1.304688 -0.0234375 1.207031 0 1.09375 0 C 0.832031 0 0.644531 -0.0625 0.53125 -0.1875 C 0.425781 -0.320312 0.375 -0.539062 0.375 -0.84375 Z M 0.375 -0.84375 "/></g></g></g><g fill="#000000" fill-opacity="1"><g transform="translate(59.924784, 36.91869)"><g><path d="M 1.25 0.03125 C 1.039062 0.03125 0.851562 -0.00390625 0.6875 -0.078125 C 0.53125 -0.148438 0.398438 -0.257812 0.296875 -0.40625 C 0.203125 -0.550781 0.15625 -0.722656 0.15625 -0.921875 C 0.15625 -1.222656 0.253906 -1.457031 0.453125 -1.625 C 0.660156 -1.800781 0.921875 -1.890625 1.234375 -1.890625 C 1.554688 -1.890625 1.816406 -1.800781 2.015625 -1.625 C 2.222656 -1.457031 2.328125 -1.222656 2.328125 -0.921875 C 2.328125 -0.628906 2.222656 -0.394531 2.015625 -0.21875 C 1.804688 -0.0507812 1.550781 0.03125 1.25 0.03125 Z M 1.453125 -0.921875 C 1.453125 -1.066406 1.429688 -1.1875 1.390625 -1.28125 C 1.359375 -1.382812 1.3125 -1.4375 1.25 -1.4375 C 1.207031 -1.4375 1.164062 -1.410156 1.125 -1.359375 C 1.09375 -1.304688 1.066406 -1.242188 1.046875 -1.171875 C 1.035156 -1.097656 1.03125 -1.015625 1.03125 -0.921875 C 1.03125 -0.796875 1.046875 -0.679688 1.078125 -0.578125 C 1.117188 -0.472656 1.171875 -0.421875 1.234375 -0.421875 C 1.304688 -0.421875 1.359375 -0.46875 1.390625 -0.5625 C 1.429688 -0.664062 1.453125 -0.785156 1.453125 -0.921875 Z M 1.453125 -0.921875 "/></g></g></g><g fill="#000000" fill-opacity="1"><g transform="translate(62.397325, 36.91869)"><g><path d="M 1.03125 -0.421875 C 1.03125 -0.265625 0.992188 -0.15625 0.921875 -0.09375 C 0.859375 -0.03125 0.742188 0 0.578125 0 C 0.421875 0 0.316406 -0.0351562 0.265625 -0.109375 C 0.210938 -0.179688 0.1875 -0.300781 0.1875 -0.46875 L 0.1875 -1.421875 C 0.1875 -1.515625 0.203125 -1.59375 0.234375 -1.65625 C 0.265625 -1.726562 0.304688 -1.78125 0.359375 -1.8125 C 0.421875 -1.851562 0.492188 -1.875 0.578125 -1.875 C 0.773438 -1.875 0.90625 -1.816406 0.96875 -1.703125 C 1.125 -1.816406 1.269531 -1.875 1.40625 -1.875 C 1.675781 -1.875 1.8125 -1.742188 1.8125 -1.484375 C 1.8125 -1.378906 1.78125 -1.289062 1.71875 -1.21875 C 1.664062 -1.15625 1.59375 -1.125 1.5 -1.125 C 1.4375 -1.125 1.382812 -1.132812 1.34375 -1.15625 C 1.3125 -1.1875 1.28125 -1.210938 1.25 -1.234375 C 1.226562 -1.253906 1.195312 -1.265625 1.15625 -1.265625 C 1.09375 -1.265625 1.050781 -1.242188 1.03125 -1.203125 Z M 1.03125 -0.421875 "/></g></g></g><g fill="#000000" fill-opacity="1"><g transform="translate(64.246835, 36.91869)"><g><path d="M 1.015625 -0.421875 C 1.015625 -0.265625 0.984375 -0.15625 0.921875 -0.09375 C 0.859375 -0.03125 0.742188 0 0.578125 0 C 0.421875 0 0.3125 -0.0351562 0.25 -0.109375 C 0.195312 -0.179688 0.171875 -0.300781 0.171875 -0.46875 L 0.171875 -1.421875 C 0.171875 -1.554688 0.207031 -1.664062 0.28125 -1.75 C 0.351562 -1.832031 0.453125 -1.875 0.578125 -1.875 C 0.710938 -1.875 0.816406 -1.84375 0.890625 -1.78125 C 0.972656 -1.71875 1.015625 -1.601562 1.015625 -1.4375 Z M 0.171875 -2.421875 C 0.171875 -2.316406 0.207031 -2.238281 0.28125 -2.1875 C 0.363281 -2.144531 0.46875 -2.125 0.59375 -2.125 C 0.726562 -2.125 0.832031 -2.144531 0.90625 -2.1875 C 0.988281 -2.226562 1.03125 -2.304688 1.03125 -2.421875 C 1.03125 -2.617188 0.882812 -2.71875 0.59375 -2.71875 C 0.457031 -2.71875 0.351562 -2.6875 0.28125 -2.625 C 0.207031 -2.570312 0.171875 -2.503906 0.171875 -2.421875 Z M 0.171875 -2.421875 "/></g></g></g><g fill="#000000" fill-opacity="1"><g transform="translate(65.441959, 36.91869)"><g><path d="M 1.421875 -1.296875 C 1.367188 -1.367188 1.3125 -1.40625 1.25 -1.40625 C 1.175781 -1.40625 1.117188 -1.351562 1.078125 -1.25 C 1.035156 -1.15625 1.015625 -1.046875 1.015625 -0.921875 C 1.015625 -0.796875 1.035156 -0.6875 1.078125 -0.59375 C 1.117188 -0.5 1.171875 -0.453125 1.234375 -0.453125 C 1.304688 -0.453125 1.367188 -0.488281 1.421875 -0.5625 Z M 0.875 0.03125 C 0.675781 0.03125 0.507812 -0.0507812 0.375 -0.21875 C 0.238281 -0.394531 0.171875 -0.628906 0.171875 -0.921875 C 0.171875 -1.222656 0.234375 -1.457031 0.359375 -1.625 C 0.492188 -1.800781 0.664062 -1.890625 0.875 -1.890625 C 1.09375 -1.890625 1.289062 -1.816406 1.46875 -1.671875 C 1.539062 -1.804688 1.65625 -1.875 1.8125 -1.875 C 1.957031 -1.875 2.066406 -1.84375 2.140625 -1.78125 C 2.222656 -1.71875 2.265625 -1.601562 2.265625 -1.4375 L 2.265625 -0.421875 C 2.265625 -0.265625 2.226562 -0.15625 2.15625 -0.09375 C 2.09375 -0.03125 1.976562 0 1.8125 0 C 1.644531 0 1.53125 -0.046875 1.46875 -0.140625 C 1.300781 -0.0234375 1.101562 0.03125 0.875 0.03125 Z M 0.875 0.03125 "/></g></g></g><g fill="#000000" fill-opacity="1"><g transform="translate(67.887071, 36.91869)"><g><path d="M 1.109375 -1.890625 C 1.347656 -1.890625 1.546875 -1.835938 1.703125 -1.734375 C 1.867188 -1.640625 1.953125 -1.535156 1.953125 -1.421875 C 1.953125 -1.390625 1.9375 -1.359375 1.90625 -1.328125 C 1.875 -1.296875 1.835938 -1.28125 1.796875 -1.28125 C 1.753906 -1.28125 1.707031 -1.296875 1.65625 -1.328125 C 1.613281 -1.359375 1.570312 -1.390625 1.53125 -1.421875 C 1.488281 -1.453125 1.429688 -1.476562 1.359375 -1.5 C 1.296875 -1.53125 1.226562 -1.546875 1.15625 -1.546875 C 1.050781 -1.546875 1 -1.515625 1 -1.453125 C 1 -1.398438 1.023438 -1.359375 1.078125 -1.328125 C 1.128906 -1.304688 1.207031 -1.28125 1.3125 -1.25 C 1.414062 -1.226562 1.492188 -1.203125 1.546875 -1.171875 C 1.734375 -1.097656 1.863281 -1.015625 1.9375 -0.921875 C 2.019531 -0.835938 2.0625 -0.722656 2.0625 -0.578125 C 2.0625 -0.515625 2.039062 -0.445312 2 -0.375 C 1.957031 -0.300781 1.894531 -0.234375 1.8125 -0.171875 C 1.738281 -0.117188 1.632812 -0.0703125 1.5 -0.03125 C 1.363281 0.0078125 1.210938 0.03125 1.046875 0.03125 C 0.703125 0.03125 0.445312 -0.046875 0.28125 -0.203125 C 0.195312 -0.273438 0.15625 -0.351562 0.15625 -0.4375 C 0.15625 -0.488281 0.171875 -0.523438 0.203125 -0.546875 C 0.242188 -0.578125 0.289062 -0.59375 0.34375 -0.59375 C 0.40625 -0.59375 0.5 -0.5625 0.625 -0.5 C 0.75 -0.445312 0.863281 -0.421875 0.96875 -0.421875 C 1.113281 -0.421875 1.1875 -0.457031 1.1875 -0.53125 C 1.1875 -0.5625 1.144531 -0.585938 1.0625 -0.609375 C 0.988281 -0.640625 0.890625 -0.671875 0.765625 -0.703125 C 0.640625 -0.734375 0.539062 -0.769531 0.46875 -0.8125 C 0.351562 -0.863281 0.273438 -0.925781 0.234375 -1 C 0.191406 -1.070312 0.171875 -1.164062 0.171875 -1.28125 C 0.171875 -1.457031 0.253906 -1.601562 0.421875 -1.71875 C 0.597656 -1.832031 0.828125 -1.890625 1.109375 -1.890625 Z M 1.109375 -1.890625 "/></g></g></g><g fill="#000000" fill-opacity="1"><g transform="translate(70.08924, 36.91869)"><g/></g></g><g fill="#000000" fill-opacity="1"><g transform="translate(71.147221, 36.91869)"><g><path d="M 1.859375 -1.953125 C 1.859375 -2.003906 1.832031 -2.050781 1.78125 -2.09375 C 1.738281 -2.132812 1.6875 -2.15625 1.625 -2.15625 C 1.5 -2.15625 1.394531 -2.082031 1.3125 -1.9375 C 1.226562 -1.789062 1.1875 -1.628906 1.1875 -1.453125 C 1.1875 -1.316406 1.210938 -1.191406 1.265625 -1.078125 C 1.316406 -0.960938 1.390625 -0.875 1.484375 -0.8125 C 1.585938 -0.75 1.707031 -0.71875 1.84375 -0.71875 C 1.9375 -0.71875 2.023438 -0.734375 2.109375 -0.765625 C 2.203125 -0.804688 2.273438 -0.847656 2.328125 -0.890625 C 2.390625 -0.941406 2.445312 -0.984375 2.5 -1.015625 C 2.5625 -1.054688 2.613281 -1.078125 2.65625 -1.078125 C 2.71875 -1.078125 2.769531 -1.050781 2.8125 -1 C 2.851562 -0.957031 2.875 -0.910156 2.875 -0.859375 C 2.875 -0.804688 2.859375 -0.742188 2.828125 -0.671875 C 2.796875 -0.597656 2.742188 -0.519531 2.671875 -0.4375 C 2.597656 -0.351562 2.515625 -0.273438 2.421875 -0.203125 C 2.328125 -0.140625 2.207031 -0.0820312 2.0625 -0.03125 C 1.925781 0.0078125 1.78125 0.03125 1.625 0.03125 C 1.425781 0.03125 1.238281 0 1.0625 -0.0625 C 0.882812 -0.125 0.734375 -0.210938 0.609375 -0.328125 C 0.484375 -0.441406 0.382812 -0.582031 0.3125 -0.75 C 0.238281 -0.925781 0.203125 -1.125 0.203125 -1.34375 C 0.203125 -1.757812 0.328125 -2.085938 0.578125 -2.328125 C 0.828125 -2.578125 1.160156 -2.703125 1.578125 -2.703125 C 1.785156 -2.703125 1.976562 -2.664062 2.15625 -2.59375 C 2.332031 -2.53125 2.472656 -2.4375 2.578125 -2.3125 C 2.679688 -2.1875 2.734375 -2.046875 2.734375 -1.890625 C 2.734375 -1.722656 2.675781 -1.566406 2.5625 -1.421875 C 2.445312 -1.285156 2.300781 -1.21875 2.125 -1.21875 C 2.019531 -1.21875 1.921875 -1.242188 1.828125 -1.296875 C 1.742188 -1.359375 1.703125 -1.441406 1.703125 -1.546875 C 1.703125 -1.597656 1.726562 -1.664062 1.78125 -1.75 C 1.832031 -1.84375 1.859375 -1.910156 1.859375 -1.953125 Z M 1.859375 -1.953125 "/></g></g></g><g fill="#000000" fill-opacity="1"><g transform="translate(74.215368, 36.91869)"><g><path d="M 1.046875 -0.59375 C 1.046875 -0.382812 1.007812 -0.234375 0.9375 -0.140625 C 0.863281 -0.046875 0.753906 0 0.609375 0 C 0.460938 0 0.351562 -0.0390625 0.28125 -0.125 C 0.21875 -0.207031 0.1875 -0.351562 0.1875 -0.5625 L 0.1875 -2.21875 C 0.1875 -2.28125 0.191406 -2.335938 0.203125 -2.390625 C 0.210938 -2.441406 0.226562 -2.484375 0.25 -2.515625 C 0.28125 -2.554688 0.3125 -2.585938 0.34375 -2.609375 C 0.382812 -2.640625 0.425781 -2.660156 0.46875 -2.671875 C 0.507812 -2.679688 0.554688 -2.6875 0.609375 -2.6875 C 0.753906 -2.6875 0.863281 -2.65625 0.9375 -2.59375 C 1.007812 -2.539062 1.046875 -2.425781 1.046875 -2.25 Z M 1.046875 -0.59375 "/></g></g></g><g fill="#000000" fill-opacity="1"><g transform="translate(75.437927, 36.91869)"><g><path d="M 0.765625 -2.953125 C 0.828125 -2.992188 0.890625 -3.015625 0.953125 -3.015625 C 1.046875 -3.015625 1.117188 -2.972656 1.171875 -2.890625 C 1.234375 -2.804688 1.265625 -2.71875 1.265625 -2.625 C 1.265625 -2.5 1.179688 -2.40625 1.015625 -2.34375 L 0.546875 -2.171875 C 0.472656 -2.148438 0.410156 -2.140625 0.359375 -2.140625 C 0.304688 -2.140625 0.257812 -2.148438 0.21875 -2.171875 C 0.175781 -2.191406 0.144531 -2.21875 0.125 -2.25 C 0.101562 -2.289062 0.09375 -2.332031 0.09375 -2.375 C 0.09375 -2.46875 0.144531 -2.550781 0.25 -2.625 C 0.25 -2.625 0.269531 -2.640625 0.3125 -2.671875 Z M 0.984375 -0.421875 C 0.984375 -0.265625 0.945312 -0.15625 0.875 -0.09375 C 0.8125 -0.03125 0.695312 0 0.53125 0 C 0.425781 0 0.34375 -0.015625 0.28125 -0.046875 C 0.226562 -0.0859375 0.191406 -0.140625 0.171875 -0.203125 C 0.148438 -0.265625 0.140625 -0.351562 0.140625 -0.46875 L 0.140625 -1.421875 C 0.140625 -1.554688 0.171875 -1.664062 0.234375 -1.75 C 0.304688 -1.832031 0.40625 -1.875 0.53125 -1.875 C 0.664062 -1.875 0.773438 -1.84375 0.859375 -1.78125 C 0.941406 -1.71875 0.984375 -1.601562 0.984375 -1.4375 Z M 0.984375 -0.421875 "/></g></g></g><g fill="#000000" fill-opacity="1"><g transform="translate(76.546848, 36.91869)"><g><path d="M 1.390625 -1.0625 C 1.390625 -1.207031 1.332031 -1.28125 1.21875 -1.28125 C 1.15625 -1.28125 1.109375 -1.253906 1.078125 -1.203125 C 1.046875 -1.160156 1.023438 -1.101562 1.015625 -1.03125 L 1.015625 -0.421875 C 1.015625 -0.265625 0.976562 -0.15625 0.90625 -0.09375 C 0.84375 -0.03125 0.734375 0 0.578125 0 C 0.421875 0 0.3125 -0.0351562 0.25 -0.109375 C 0.195312 -0.179688 0.171875 -0.300781 0.171875 -0.46875 L 0.171875 -1.421875 C 0.171875 -1.554688 0.207031 -1.664062 0.28125 -1.75 C 0.351562 -1.832031 0.445312 -1.875 0.5625 -1.875 C 0.664062 -1.875 0.75 -1.859375 0.8125 -1.828125 C 0.882812 -1.796875 0.9375 -1.742188 0.96875 -1.671875 C 1.175781 -1.804688 1.425781 -1.875 1.71875 -1.875 C 1.90625 -1.875 2.039062 -1.800781 2.125 -1.65625 C 2.207031 -1.507812 2.25 -1.269531 2.25 -0.9375 C 2.25 -0.769531 2.242188 -0.632812 2.234375 -0.53125 C 2.222656 -0.425781 2.207031 -0.335938 2.1875 -0.265625 C 2.175781 -0.191406 2.148438 -0.132812 2.109375 -0.09375 C 2.078125 -0.0625 2.035156 -0.0351562 1.984375 -0.015625 C 1.929688 -0.00390625 1.867188 0 1.796875 0 C 1.648438 0 1.546875 -0.0234375 1.484375 -0.078125 C 1.421875 -0.140625 1.390625 -0.222656 1.390625 -0.328125 Z M 1.390625 -1.0625 "/></g></g></g><g fill="#000000" fill-opacity="1"><g transform="translate(78.960615, 36.91869)"><g><path d="M 1.015625 -0.421875 C 1.015625 -0.265625 0.984375 -0.15625 0.921875 -0.09375 C 0.859375 -0.03125 0.742188 0 0.578125 0 C 0.421875 0 0.3125 -0.0351562 0.25 -0.109375 C 0.195312 -0.179688 0.171875 -0.300781 0.171875 -0.46875 L 0.171875 -1.421875 C 0.171875 -1.554688 0.207031 -1.664062 0.28125 -1.75 C 0.351562 -1.832031 0.453125 -1.875 0.578125 -1.875 C 0.710938 -1.875 0.816406 -1.84375 0.890625 -1.78125 C 0.972656 -1.71875 1.015625 -1.601562 1.015625 -1.4375 Z M 0.171875 -2.421875 C 0.171875 -2.316406 0.207031 -2.238281 0.28125 -2.1875 C 0.363281 -2.144531 0.46875 -2.125 0.59375 -2.125 C 0.726562 -2.125 0.832031 -2.144531 0.90625 -2.1875 C 0.988281 -2.226562 1.03125 -2.304688 1.03125 -2.421875 C 1.03125 -2.617188 0.882812 -2.71875 0.59375 -2.71875 C 0.457031 -2.71875 0.351562 -2.6875 0.28125 -2.625 C 0.207031 -2.570312 0.171875 -2.503906 0.171875 -2.421875 Z M 0.171875 -2.421875 "/></g></g></g><g fill="#000000" fill-opacity="1"><g transform="translate(80.15574, 36.91869)"><g><path d="M 1.34375 -1.46875 C 1.34375 -1.53125 1.304688 -1.5625 1.234375 -1.5625 C 1.191406 -1.5625 1.148438 -1.53125 1.109375 -1.46875 C 1.066406 -1.414062 1.035156 -1.347656 1.015625 -1.265625 C 0.992188 -1.179688 0.984375 -1.097656 0.984375 -1.015625 C 0.984375 -0.878906 1.019531 -0.769531 1.09375 -0.6875 C 1.175781 -0.613281 1.285156 -0.578125 1.421875 -0.578125 C 1.554688 -0.578125 1.671875 -0.59375 1.765625 -0.625 C 1.804688 -0.632812 1.851562 -0.648438 1.90625 -0.671875 C 1.96875 -0.703125 2.007812 -0.71875 2.03125 -0.71875 C 2.070312 -0.71875 2.101562 -0.710938 2.125 -0.703125 C 2.144531 -0.691406 2.160156 -0.675781 2.171875 -0.65625 C 2.179688 -0.632812 2.1875 -0.613281 2.1875 -0.59375 C 2.1875 -0.5625 2.171875 -0.519531 2.140625 -0.46875 C 2.117188 -0.414062 2.082031 -0.359375 2.03125 -0.296875 C 1.976562 -0.242188 1.914062 -0.191406 1.84375 -0.140625 C 1.78125 -0.0859375 1.695312 -0.046875 1.59375 -0.015625 C 1.488281 0.015625 1.382812 0.03125 1.28125 0.03125 C 0.945312 0.03125 0.675781 -0.0546875 0.46875 -0.234375 C 0.257812 -0.410156 0.15625 -0.648438 0.15625 -0.953125 C 0.15625 -1.140625 0.203125 -1.304688 0.296875 -1.453125 C 0.398438 -1.597656 0.535156 -1.707031 0.703125 -1.78125 C 0.867188 -1.851562 1.0625 -1.890625 1.28125 -1.890625 C 1.476562 -1.890625 1.644531 -1.863281 1.78125 -1.8125 C 1.914062 -1.769531 2.007812 -1.707031 2.0625 -1.625 C 2.125 -1.550781 2.15625 -1.457031 2.15625 -1.34375 C 2.15625 -1.289062 2.144531 -1.238281 2.125 -1.1875 C 2.113281 -1.132812 2.085938 -1.082031 2.046875 -1.03125 C 2.003906 -0.976562 1.941406 -0.9375 1.859375 -0.90625 C 1.785156 -0.875 1.695312 -0.859375 1.59375 -0.859375 C 1.539062 -0.859375 1.5 -0.859375 1.46875 -0.859375 C 1.4375 -0.867188 1.40625 -0.878906 1.375 -0.890625 C 1.34375 -0.910156 1.316406 -0.941406 1.296875 -0.984375 C 1.285156 -1.023438 1.28125 -1.070312 1.28125 -1.125 C 1.28125 -1.175781 1.289062 -1.238281 1.3125 -1.3125 C 1.332031 -1.394531 1.34375 -1.445312 1.34375 -1.46875 Z M 1.34375 -1.46875 "/></g></g></g><g fill="#000000" fill-opacity="1"><g transform="translate(82.50289, 36.91869)"><g><path d="M 1.421875 -1.296875 C 1.367188 -1.367188 1.3125 -1.40625 1.25 -1.40625 C 1.175781 -1.40625 1.117188 -1.351562 1.078125 -1.25 C 1.035156 -1.15625 1.015625 -1.046875 1.015625 -0.921875 C 1.015625 -0.796875 1.035156 -0.6875 1.078125 -0.59375 C 1.117188 -0.5 1.171875 -0.453125 1.234375 -0.453125 C 1.304688 -0.453125 1.367188 -0.488281 1.421875 -0.5625 Z M 0.875 0.03125 C 0.675781 0.03125 0.507812 -0.0507812 0.375 -0.21875 C 0.238281 -0.394531 0.171875 -0.628906 0.171875 -0.921875 C 0.171875 -1.222656 0.234375 -1.457031 0.359375 -1.625 C 0.492188 -1.800781 0.664062 -1.890625 0.875 -1.890625 C 1.09375 -1.890625 1.289062 -1.816406 1.46875 -1.671875 C 1.539062 -1.804688 1.65625 -1.875 1.8125 -1.875 C 1.957031 -1.875 2.066406 -1.84375 2.140625 -1.78125 C 2.222656 -1.71875 2.265625 -1.601562 2.265625 -1.4375 L 2.265625 -0.421875 C 2.265625 -0.265625 2.226562 -0.15625 2.15625 -0.09375 C 2.09375 -0.03125 1.976562 0 1.8125 0 C 1.644531 0 1.53125 -0.046875 1.46875 -0.140625 C 1.300781 -0.0234375 1.101562 0.03125 0.875 0.03125 Z M 0.875 0.03125 "/></g></g></g><g fill="#000000" fill-opacity="1"><g transform="translate(84.948002, 36.91869)"><g><path d="M 1.109375 -1.890625 C 1.347656 -1.890625 1.546875 -1.835938 1.703125 -1.734375 C 1.867188 -1.640625 1.953125 -1.535156 1.953125 -1.421875 C 1.953125 -1.390625 1.9375 -1.359375 1.90625 -1.328125 C 1.875 -1.296875 1.835938 -1.28125 1.796875 -1.28125 C 1.753906 -1.28125 1.707031 -1.296875 1.65625 -1.328125 C 1.613281 -1.359375 1.570312 -1.390625 1.53125 -1.421875 C 1.488281 -1.453125 1.429688 -1.476562 1.359375 -1.5 C 1.296875 -1.53125 1.226562 -1.546875 1.15625 -1.546875 C 1.050781 -1.546875 1 -1.515625 1 -1.453125 C 1 -1.398438 1.023438 -1.359375 1.078125 -1.328125 C 1.128906 -1.304688 1.207031 -1.28125 1.3125 -1.25 C 1.414062 -1.226562 1.492188 -1.203125 1.546875 -1.171875 C 1.734375 -1.097656 1.863281 -1.015625 1.9375 -0.921875 C 2.019531 -0.835938 2.0625 -0.722656 2.0625 -0.578125 C 2.0625 -0.515625 2.039062 -0.445312 2 -0.375 C 1.957031 -0.300781 1.894531 -0.234375 1.8125 -0.171875 C 1.738281 -0.117188 1.632812 -0.0703125 1.5 -0.03125 C 1.363281 0.0078125 1.210938 0.03125 1.046875 0.03125 C 0.703125 0.03125 0.445312 -0.046875 0.28125 -0.203125 C 0.195312 -0.273438 0.15625 -0.351562 0.15625 -0.4375 C 0.15625 -0.488281 0.171875 -0.523438 0.203125 -0.546875 C 0.242188 -0.578125 0.289062 -0.59375 0.34375 -0.59375 C 0.40625 -0.59375 0.5 -0.5625 0.625 -0.5 C 0.75 -0.445312 0.863281 -0.421875 0.96875 -0.421875 C 1.113281 -0.421875 1.1875 -0.457031 1.1875 -0.53125 C 1.1875 -0.5625 1.144531 -0.585938 1.0625 -0.609375 C 0.988281 -0.640625 0.890625 -0.671875 0.765625 -0.703125 C 0.640625 -0.734375 0.539062 -0.769531 0.46875 -0.8125 C 0.351562 -0.863281 0.273438 -0.925781 0.234375 -1 C 0.191406 -1.070312 0.171875 -1.164062 0.171875 -1.28125 C 0.171875 -1.457031 0.253906 -1.601562 0.421875 -1.71875 C 0.597656 -1.832031 0.828125 -1.890625 1.109375 -1.890625 Z M 1.109375 -1.890625 "/></g></g></g></svg>