<svg xmlns="http://www.w3.org/2000/svg" xmlns:xlink="http://www.w3.org/1999/xlink" width="192" zoomAndPan="magnify" viewBox="0 0 144 143.999998" height="192" preserveAspectRatio="xMidYMid meet" version="1.0"><defs><filter x="0%" y="0%" width="100%" height="100%" id="194785df1d"><feColorMatrix values="0 0 0 0 1 0 0 0 0 1 0 0 0 0 1 0 0 0 1 0" color-interpolation-filters="sRGB"/></filter><clipPath id="e6352556b6"><path d="M 0 0 L 143.773438 0 L 143.773438 143.773438 L 0 143.773438 Z M 0 0 " clip-rule="nonzero"/></clipPath><linearGradient x1="-15.024317" gradientTransform="matrix(0.675, 0, 0, 0.675, 0.00000125, 0.000002)" y1="21.456949" x2="227.978081" gradientUnits="userSpaceOnUse" y2="191.609054" id="34855edc0c"><stop stop-opacity="1" stop-color="rgb(39.199829%, 70.999146%, 96.499634%)" offset="0"/><stop stop-opacity="1" stop-color="rgb(39.361572%, 70.947266%, 96.452332%)" offset="0.0078125"/><stop stop-opacity="1" stop-color="rgb(39.685059%, 70.84198%, 96.360779%)" offset="0.015625"/><stop stop-opacity="1" stop-color="rgb(40.010071%, 70.73822%, 96.269226%)" offset="0.0234375"/><stop stop-opacity="1" stop-color="rgb(40.335083%, 70.632935%, 96.176147%)" offset="0.03125"/><stop stop-opacity="1" stop-color="rgb(40.658569%, 70.529175%, 96.084595%)" offset="0.0390625"/><stop stop-opacity="1" stop-color="rgb(40.983582%, 70.423889%, 95.993042%)" offset="0.046875"/><stop stop-opacity="1" stop-color="rgb(41.308594%, 70.320129%, 95.899963%)" offset="0.0546875"/><stop stop-opacity="1" stop-color="rgb(41.63208%, 70.214844%, 95.808411%)" offset="0.0625"/><stop stop-opacity="1" stop-color="rgb(41.957092%, 70.111084%, 95.716858%)" offset="0.0703125"/><stop stop-opacity="1" stop-color="rgb(42.282104%, 70.005798%, 95.625305%)" offset="0.078125"/><stop stop-opacity="1" stop-color="rgb(42.605591%, 69.902039%, 95.532227%)" offset="0.0859375"/><stop stop-opacity="1" stop-color="rgb(42.930603%, 69.796753%, 95.440674%)" offset="0.09375"/><stop stop-opacity="1" stop-color="rgb(43.255615%, 69.692993%, 95.349121%)" offset="0.101562"/><stop stop-opacity="1" stop-color="rgb(43.579102%, 69.587708%, 95.256042%)" offset="0.109375"/><stop stop-opacity="1" stop-color="rgb(43.904114%, 69.483948%, 95.16449%)" offset="0.117188"/><stop stop-opacity="1" stop-color="rgb(44.229126%, 69.378662%, 95.072937%)" offset="0.125"/><stop stop-opacity="1" stop-color="rgb(44.552612%, 69.274902%, 94.979858%)" offset="0.132812"/><stop stop-opacity="1" stop-color="rgb(44.877625%, 69.169617%, 94.888306%)" offset="0.140625"/><stop stop-opacity="1" stop-color="rgb(45.202637%, 69.065857%, 94.796753%)" offset="0.148438"/><stop stop-opacity="1" stop-color="rgb(45.526123%, 68.960571%, 94.703674%)" offset="0.15625"/><stop stop-opacity="1" stop-color="rgb(45.851135%, 68.856812%, 94.612122%)" offset="0.164062"/><stop stop-opacity="1" stop-color="rgb(46.176147%, 68.751526%, 94.520569%)" offset="0.171875"/><stop stop-opacity="1" stop-color="rgb(46.499634%, 68.647766%, 94.42749%)" offset="0.179688"/><stop stop-opacity="1" stop-color="rgb(46.824646%, 68.54248%, 94.335938%)" offset="0.1875"/><stop stop-opacity="1" stop-color="rgb(47.149658%, 68.437195%, 94.244385%)" offset="0.195312"/><stop stop-opacity="1" stop-color="rgb(47.473145%, 68.333435%, 94.151306%)" offset="0.203125"/><stop stop-opacity="1" stop-color="rgb(47.798157%, 68.228149%, 94.059753%)" offset="0.210938"/><stop stop-opacity="1" stop-color="rgb(48.123169%, 68.12439%, 93.968201%)" offset="0.21875"/><stop stop-opacity="1" stop-color="rgb(48.446655%, 68.019104%, 93.875122%)" offset="0.226562"/><stop stop-opacity="1" stop-color="rgb(48.771667%, 67.915344%, 93.783569%)" offset="0.234375"/><stop stop-opacity="1" stop-color="rgb(49.09668%, 67.810059%, 93.692017%)" offset="0.242188"/><stop stop-opacity="1" stop-color="rgb(49.420166%, 67.706299%, 93.598938%)" offset="0.25"/><stop stop-opacity="1" stop-color="rgb(49.745178%, 67.601013%, 93.507385%)" offset="0.257812"/><stop stop-opacity="1" stop-color="rgb(50.07019%, 67.497253%, 93.415833%)" offset="0.265625"/><stop stop-opacity="1" stop-color="rgb(50.393677%, 67.391968%, 93.322754%)" offset="0.273438"/><stop stop-opacity="1" stop-color="rgb(50.718689%, 67.288208%, 93.231201%)" offset="0.28125"/><stop stop-opacity="1" stop-color="rgb(51.043701%, 67.182922%, 93.139648%)" offset="0.289062"/><stop stop-opacity="1" stop-color="rgb(51.367188%, 67.079163%, 93.04657%)" offset="0.296875"/><stop stop-opacity="1" stop-color="rgb(51.6922%, 66.973877%, 92.955017%)" offset="0.304688"/><stop stop-opacity="1" stop-color="rgb(52.017212%, 66.870117%, 92.863464%)" offset="0.3125"/><stop stop-opacity="1" stop-color="rgb(52.340698%, 66.764832%, 92.770386%)" offset="0.320312"/><stop stop-opacity="1" stop-color="rgb(52.66571%, 66.661072%, 92.678833%)" offset="0.328125"/><stop stop-opacity="1" stop-color="rgb(52.990723%, 66.555786%, 92.58728%)" offset="0.335938"/><stop stop-opacity="1" stop-color="rgb(53.314209%, 66.452026%, 92.495728%)" offset="0.34375"/><stop stop-opacity="1" stop-color="rgb(53.639221%, 66.346741%, 92.402649%)" offset="0.351562"/><stop stop-opacity="1" stop-color="rgb(53.964233%, 66.242981%, 92.311096%)" offset="0.359375"/><stop stop-opacity="1" stop-color="rgb(54.28772%, 66.137695%, 92.219543%)" offset="0.367188"/><stop stop-opacity="1" stop-color="rgb(54.612732%, 66.033936%, 92.126465%)" offset="0.375"/><stop stop-opacity="1" stop-color="rgb(54.937744%, 65.92865%, 92.034912%)" offset="0.382813"/><stop stop-opacity="1" stop-color="rgb(55.26123%, 65.82489%, 91.943359%)" offset="0.390625"/><stop stop-opacity="1" stop-color="rgb(55.586243%, 65.719604%, 91.850281%)" offset="0.398438"/><stop stop-opacity="1" stop-color="rgb(55.909729%, 65.615845%, 91.758728%)" offset="0.40625"/><stop stop-opacity="1" stop-color="rgb(56.234741%, 65.510559%, 91.667175%)" offset="0.411837"/><stop stop-opacity="1" stop-color="rgb(56.39801%, 65.458679%, 91.621399%)" offset="0.414063"/><stop stop-opacity="1" stop-color="rgb(56.559753%, 65.406799%, 91.574097%)" offset="0.421875"/><stop stop-opacity="1" stop-color="rgb(56.88324%, 65.301514%, 91.482544%)" offset="0.429688"/><stop stop-opacity="1" stop-color="rgb(57.208252%, 65.197754%, 91.390991%)" offset="0.4375"/><stop stop-opacity="1" stop-color="rgb(57.533264%, 65.092468%, 91.297913%)" offset="0.445313"/><stop stop-opacity="1" stop-color="rgb(57.85675%, 64.988708%, 91.20636%)" offset="0.453125"/><stop stop-opacity="1" stop-color="rgb(58.181763%, 64.883423%, 91.114807%)" offset="0.460938"/><stop stop-opacity="1" stop-color="rgb(58.506775%, 64.779663%, 91.021729%)" offset="0.46875"/><stop stop-opacity="1" stop-color="rgb(58.830261%, 64.674377%, 90.930176%)" offset="0.476563"/><stop stop-opacity="1" stop-color="rgb(59.155273%, 64.570618%, 90.838623%)" offset="0.484375"/><stop stop-opacity="1" stop-color="rgb(59.480286%, 64.465332%, 90.745544%)" offset="0.492188"/><stop stop-opacity="1" stop-color="rgb(59.803772%, 64.361572%, 90.653992%)" offset="0.5"/><stop stop-opacity="1" stop-color="rgb(60.128784%, 64.256287%, 90.562439%)" offset="0.507812"/><stop stop-opacity="1" stop-color="rgb(60.453796%, 64.152527%, 90.46936%)" offset="0.515625"/><stop stop-opacity="1" stop-color="rgb(60.777283%, 64.047241%, 90.377808%)" offset="0.523438"/><stop stop-opacity="1" stop-color="rgb(61.102295%, 63.943481%, 90.286255%)" offset="0.53125"/><stop stop-opacity="1" stop-color="rgb(61.427307%, 63.838196%, 90.193176%)" offset="0.539062"/><stop stop-opacity="1" stop-color="rgb(61.750793%, 63.734436%, 90.101624%)" offset="0.546875"/><stop stop-opacity="1" stop-color="rgb(62.075806%, 63.62915%, 90.010071%)" offset="0.554688"/><stop stop-opacity="1" stop-color="rgb(62.400818%, 63.525391%, 89.916992%)" offset="0.5625"/><stop stop-opacity="1" stop-color="rgb(62.724304%, 63.420105%, 89.825439%)" offset="0.570312"/><stop stop-opacity="1" stop-color="rgb(63.049316%, 63.316345%, 89.733887%)" offset="0.578125"/><stop stop-opacity="1" stop-color="rgb(63.374329%, 63.21106%, 89.642334%)" offset="0.585938"/><stop stop-opacity="1" stop-color="rgb(63.697815%, 63.1073%, 89.549255%)" offset="0.588163"/><stop stop-opacity="1" stop-color="rgb(63.861084%, 63.05542%, 89.503479%)" offset="0.59375"/><stop stop-opacity="1" stop-color="rgb(64.022827%, 63.002014%, 89.457703%)" offset="0.601562"/><stop stop-opacity="1" stop-color="rgb(64.347839%, 62.898254%, 89.36615%)" offset="0.609375"/><stop stop-opacity="1" stop-color="rgb(64.671326%, 62.792969%, 89.273071%)" offset="0.617187"/><stop stop-opacity="1" stop-color="rgb(64.996338%, 62.689209%, 89.181519%)" offset="0.625"/><stop stop-opacity="1" stop-color="rgb(65.32135%, 62.583923%, 89.089966%)" offset="0.632812"/><stop stop-opacity="1" stop-color="rgb(65.644836%, 62.480164%, 88.996887%)" offset="0.640625"/><stop stop-opacity="1" stop-color="rgb(65.969849%, 62.374878%, 88.905334%)" offset="0.648438"/><stop stop-opacity="1" stop-color="rgb(66.294861%, 62.271118%, 88.813782%)" offset="0.65625"/><stop stop-opacity="1" stop-color="rgb(66.618347%, 62.165833%, 88.720703%)" offset="0.664062"/><stop stop-opacity="1" stop-color="rgb(66.943359%, 62.062073%, 88.62915%)" offset="0.671875"/><stop stop-opacity="1" stop-color="rgb(67.268372%, 61.956787%, 88.537598%)" offset="0.679688"/><stop stop-opacity="1" stop-color="rgb(67.591858%, 61.853027%, 88.444519%)" offset="0.6875"/><stop stop-opacity="1" stop-color="rgb(67.91687%, 61.747742%, 88.352966%)" offset="0.695312"/><stop stop-opacity="1" stop-color="rgb(68.241882%, 61.643982%, 88.261414%)" offset="0.703125"/><stop stop-opacity="1" stop-color="rgb(68.565369%, 61.538696%, 88.168335%)" offset="0.710938"/><stop stop-opacity="1" stop-color="rgb(68.890381%, 61.434937%, 88.076782%)" offset="0.71875"/><stop stop-opacity="1" stop-color="rgb(69.215393%, 61.329651%, 87.985229%)" offset="0.726562"/><stop stop-opacity="1" stop-color="rgb(69.538879%, 61.225891%, 87.892151%)" offset="0.734375"/><stop stop-opacity="1" stop-color="rgb(69.863892%, 61.120605%, 87.800598%)" offset="0.742187"/><stop stop-opacity="1" stop-color="rgb(70.188904%, 61.016846%, 87.709045%)" offset="0.75"/><stop stop-opacity="1" stop-color="rgb(70.51239%, 60.91156%, 87.615967%)" offset="0.757812"/><stop stop-opacity="1" stop-color="rgb(70.837402%, 60.8078%, 87.524414%)" offset="0.765625"/><stop stop-opacity="1" stop-color="rgb(71.162415%, 60.702515%, 87.432861%)" offset="0.773438"/><stop stop-opacity="1" stop-color="rgb(71.485901%, 60.598755%, 87.339783%)" offset="0.78125"/><stop stop-opacity="1" stop-color="rgb(71.810913%, 60.493469%, 87.24823%)" offset="0.789062"/><stop stop-opacity="1" stop-color="rgb(72.135925%, 60.389709%, 87.156677%)" offset="0.796875"/><stop stop-opacity="1" stop-color="rgb(72.459412%, 60.284424%, 87.063599%)" offset="0.804688"/><stop stop-opacity="1" stop-color="rgb(72.784424%, 60.180664%, 86.972046%)" offset="0.8125"/><stop stop-opacity="1" stop-color="rgb(73.109436%, 60.075378%, 86.880493%)" offset="0.820312"/><stop stop-opacity="1" stop-color="rgb(73.432922%, 59.971619%, 86.787415%)" offset="0.828125"/><stop stop-opacity="1" stop-color="rgb(73.757935%, 59.866333%, 86.695862%)" offset="0.835938"/><stop stop-opacity="1" stop-color="rgb(74.082947%, 59.762573%, 86.604309%)" offset="0.84375"/><stop stop-opacity="1" stop-color="rgb(74.406433%, 59.657288%, 86.512756%)" offset="0.851562"/><stop stop-opacity="1" stop-color="rgb(74.731445%, 59.553528%, 86.419678%)" offset="0.859375"/><stop stop-opacity="1" stop-color="rgb(75.056458%, 59.448242%, 86.328125%)" offset="0.867187"/><stop stop-opacity="1" stop-color="rgb(75.379944%, 59.344482%, 86.236572%)" offset="0.875"/><stop stop-opacity="1" stop-color="rgb(75.704956%, 59.239197%, 86.143494%)" offset="0.882812"/><stop stop-opacity="1" stop-color="rgb(76.029968%, 59.135437%, 86.051941%)" offset="0.890625"/><stop stop-opacity="1" stop-color="rgb(76.353455%, 59.030151%, 85.960388%)" offset="0.898438"/><stop stop-opacity="1" stop-color="rgb(76.678467%, 58.926392%, 85.86731%)" offset="0.90625"/><stop stop-opacity="1" stop-color="rgb(77.003479%, 58.821106%, 85.775757%)" offset="0.914062"/><stop stop-opacity="1" stop-color="rgb(77.326965%, 58.717346%, 85.684204%)" offset="0.921875"/><stop stop-opacity="1" stop-color="rgb(77.651978%, 58.612061%, 85.591125%)" offset="0.929688"/><stop stop-opacity="1" stop-color="rgb(77.97699%, 58.508301%, 85.499573%)" offset="0.9375"/><stop stop-opacity="1" stop-color="rgb(78.300476%, 58.403015%, 85.40802%)" offset="0.945312"/><stop stop-opacity="1" stop-color="rgb(78.625488%, 58.299255%, 85.314941%)" offset="0.953125"/><stop stop-opacity="1" stop-color="rgb(78.9505%, 58.19397%, 85.223389%)" offset="0.960938"/><stop stop-opacity="1" stop-color="rgb(79.273987%, 58.09021%, 85.131836%)" offset="0.96875"/><stop stop-opacity="1" stop-color="rgb(79.598999%, 57.984924%, 85.038757%)" offset="0.976562"/><stop stop-opacity="1" stop-color="rgb(79.924011%, 57.881165%, 84.947205%)" offset="0.984375"/><stop stop-opacity="1" stop-color="rgb(80.247498%, 57.775879%, 84.855652%)" offset="0.992188"/><stop stop-opacity="1" stop-color="rgb(80.57251%, 57.672119%, 84.762573%)" offset="1"/></linearGradient><clipPath id="ea7cefadf9"><path d="M 22.804688 22.804688 L 121.054688 22.804688 L 121.054688 121.054688 L 22.804688 121.054688 Z M 22.804688 22.804688 " clip-rule="nonzero"/></clipPath><mask id="ca369d5e5a"><g filter="url(#194785df1d)"><rect x="-14.4" width="172.8" fill="#000000" y="-14.4" height="172.799997" fill-opacity="0.9882"/></g></mask><clipPath id="3adb5c4a9c"><path d="M 0.804688 0.804688 L 99 0.804688 L 99 99 L 0.804688 99 Z M 0.804688 0.804688 " clip-rule="nonzero"/></clipPath><clipPath id="f9b7526f31"><rect x="0" width="100" y="0" height="100"/></clipPath><clipPath id="1971380c54"><path d="M 61 28 L 121.054688 28 L 121.054688 45 L 61 45 Z M 61 28 " clip-rule="nonzero"/></clipPath><mask id="94545b4679"><g filter="url(#194785df1d)"><rect x="-14.4" width="172.8" fill="#000000" y="-14.4" height="172.799997" fill-opacity="0.9882"/></g></mask><clipPath id="7906d81c70"><path d="M 1 0.558594 L 60 0.558594 L 60 16.640625 L 1 16.640625 Z M 1 0.558594 " clip-rule="nonzero"/></clipPath><clipPath id="88d1f4d9e9"><rect x="0" width="61" y="0" height="17"/></clipPath><mask id="1195cb4e84"><g filter="url(#194785df1d)"><rect x="-14.4" width="172.8" fill="#000000" y="-14.4" height="172.799997" fill-opacity="0.9725"/></g></mask><clipPath id="8fd3086499"><path d="M 0.359375 0.398438 L 16.921875 0.398438 L 16.921875 16.71875 L 0.359375 16.71875 Z M 0.359375 0.398438 " clip-rule="nonzero"/></clipPath><clipPath id="457af9b128"><rect x="0" width="17" y="0" height="17"/></clipPath><clipPath id="d864849694"><path d="M 40 90 L 79 90 L 79 121.054688 L 40 121.054688 Z M 40 90 " clip-rule="nonzero"/></clipPath><mask id="9966789689"><g filter="url(#194785df1d)"><rect x="-14.4" width="172.8" fill="#000000" y="-14.4" height="172.799997" fill-opacity="0.9882"/></g></mask><clipPath id="39ecd11bad"><path d="M 0.558594 0 L 38.71875 0 L 38.71875 31 L 0.558594 31 Z M 0.558594 0 " clip-rule="nonzero"/></clipPath><clipPath id="fe4813fe13"><rect x="0" width="39" y="0" height="32"/></clipPath></defs><rect x="-14.4" width="172.8" fill="#ffffff" y="-14.4" height="172.799997" fill-opacity="1"/><rect x="-14.4" width="172.8" fill="#ffffff" y="-14.4" height="172.799997" fill-opacity="1"/><rect x="-14.4" width="172.8" fill="#ffffff" y="-14.4" height="172.799997" fill-opacity="1"/><g clip-path="url(#e6352556b6)"><path fill="url(#34855edc0c)" d="M 0 0 L 0 143.773438 L 143.773438 143.773438 L 143.773438 0 Z M 0 0 " fill-rule="nonzero"/></g><g clip-path="url(#ea7cefadf9)"><g mask="url(#ca369d5e5a)"><g transform="matrix(1, 0, 0, 1, 22, 22)"><g clip-path="url(#f9b7526f31)"><g clip-path="url(#3adb5c4a9c)"><path fill="#f0f0ff" d="M 2.4375 0.707031 C 11.328125 0.707031 20.21875 0.707031 29.109375 0.707031 C 34.980469 9.109375 40.894531 17.488281 46.859375 25.847656 C 47.414062 26.71875 48.148438 27.390625 49.066406 27.863281 C 65.695312 27.957031 82.328125 27.988281 98.957031 27.957031 C 98.957031 51.050781 98.957031 74.140625 98.957031 97.230469 C 98.707031 97.515625 98.484375 97.835938 98.285156 98.191406 C 97.898438 98.421875 97.546875 98.675781 97.230469 98.957031 C 85.527344 98.957031 73.820312 98.957031 62.113281 98.957031 C 62.148438 94.160156 62.113281 89.363281 62.019531 84.566406 C 60.617188 75.207031 55.660156 68.488281 47.148438 64.417969 C 52.394531 58.386719 52.683594 52.117188 48.011719 45.613281 C 44.019531 41.359375 39.1875 39.984375 33.523438 41.484375 C 26.515625 44.34375 23.414062 49.554688 24.214844 57.125 C 24.832031 59.945312 26.140625 62.375 28.148438 64.417969 C 19.632812 68.492188 14.675781 75.207031 13.277344 84.566406 C 13.183594 89.363281 13.148438 94.160156 13.183594 98.957031 C 9.601562 98.957031 6.019531 98.957031 2.4375 98.957031 C 2.148438 98.707031 1.832031 98.484375 1.476562 98.285156 C 1.246094 97.898438 0.992188 97.546875 0.707031 97.230469 C 0.707031 65.632812 0.707031 34.035156 0.707031 2.4375 C 0.957031 2.148438 1.183594 1.832031 1.378906 1.476562 C 1.765625 1.246094 2.117188 0.992188 2.4375 0.707031 Z M 21.242188 16.253906 C 23.011719 16 24.195312 16.703125 24.792969 18.363281 C 24.886719 19.703125 24.917969 21.046875 24.886719 22.394531 C 26.4375 22.316406 27.972656 22.410156 29.492188 22.679688 C 31.058594 23.730469 31.410156 25.105469 30.546875 26.804688 C 30.253906 27.167969 29.898438 27.453125 29.492188 27.667969 C 27.972656 27.9375 26.4375 28.035156 24.886719 27.957031 C 24.964844 29.507812 24.867188 31.042969 24.597656 32.5625 C 23.554688 34.160156 22.179688 34.511719 20.472656 33.617188 C 19.972656 33.246094 19.621094 32.765625 19.417969 32.179688 C 19.324219 30.773438 19.289062 29.367188 19.324219 27.957031 C 17.769531 28.035156 16.234375 27.9375 14.71875 27.667969 C 13.121094 26.625 12.769531 25.25 13.660156 23.542969 C 13.957031 23.183594 14.308594 22.894531 14.71875 22.679688 C 16.234375 22.410156 17.769531 22.316406 19.324219 22.394531 C 19.289062 20.984375 19.324219 19.578125 19.417969 18.171875 C 19.804688 17.304688 20.414062 16.664062 21.242188 16.253906 Z M 61.730469 36.210938 C 69.214844 36.175781 76.699219 36.210938 84.183594 36.304688 C 86.355469 37.070312 86.964844 38.507812 86.003906 40.621094 C 85.632812 41.121094 85.152344 41.472656 84.566406 41.679688 C 76.828125 41.804688 69.085938 41.804688 61.347656 41.679688 C 59.417969 40.726562 58.9375 39.285156 59.90625 37.359375 C 60.453125 36.847656 61.0625 36.464844 61.730469 36.210938 Z M 61.921875 48.492188 C 69.214844 48.457031 76.507812 48.492188 83.800781 48.585938 C 85.773438 48.960938 86.636719 50.144531 86.390625 52.136719 C 85.992188 53.28125 85.191406 53.949219 83.992188 54.152344 C 76.636719 54.277344 69.277344 54.277344 61.921875 54.152344 C 59.707031 53.59375 58.972656 52.21875 59.714844 50.027344 C 60.28125 49.234375 61.015625 48.722656 61.921875 48.492188 Z M 61.921875 48.492188 " fill-opacity="1" fill-rule="evenodd"/></g></g></g></g></g><g clip-path="url(#1971380c54)"><g mask="url(#94545b4679)"><g transform="matrix(1, 0, 0, 1, 61, 28)"><g clip-path="url(#88d1f4d9e9)"><g clip-path="url(#7906d81c70)"><path fill="#f0f0ff" d="M 59.957031 2.578125 C 59.957031 7.183594 59.957031 11.789062 59.957031 16.394531 C 44.03125 16.425781 28.105469 16.394531 12.175781 16.296875 C 8.484375 11.214844 4.835938 6.097656 1.238281 0.945312 C 20.171875 0.816406 39.105469 0.816406 58.039062 0.945312 C 58.832031 1.324219 59.472656 1.867188 59.957031 2.578125 Z M 59.957031 2.578125 " fill-opacity="1" fill-rule="evenodd"/></g></g></g></g></g><g mask="url(#1195cb4e84)"><g transform="matrix(1, 0, 0, 1, 51, 68)"><g clip-path="url(#457af9b128)"><g clip-path="url(#8fd3086499)"><path fill="#f0f0ff" d="M 6.824219 0.570312 C 11.726562 0.03125 14.957031 2.078125 16.515625 6.710938 C 17.148438 11.621094 15.132812 14.851562 10.472656 16.402344 C 4.605469 17 1.28125 14.375 0.492188 8.535156 C 0.804688 4.417969 2.917969 1.765625 6.824219 0.570312 Z M 6.824219 0.570312 " fill-opacity="1" fill-rule="evenodd"/></g></g></g></g><g clip-path="url(#d864849694)"><g mask="url(#9966789689)"><g transform="matrix(1, 0, 0, 1, 40, 90)"><g clip-path="url(#fe4813fe13)"><g clip-path="url(#39ecd11bad)"><path fill="#f0f0ff" d="M 38.550781 30.957031 C 25.949219 30.957031 13.347656 30.957031 0.746094 30.957031 C 0.714844 26.289062 0.746094 21.621094 0.84375 16.949219 C 1.953125 9.636719 5.886719 4.488281 12.644531 1.503906 C 20.265625 -1.132812 27.046875 0.242188 32.984375 5.628906 C 36.140625 8.738281 37.960938 12.515625 38.453125 16.949219 C 38.550781 21.621094 38.582031 26.289062 38.550781 30.957031 Z M 38.550781 30.957031 " fill-opacity="1" fill-rule="evenodd"/></g></g></g></g></g></svg>