<svg xmlns="http://www.w3.org/2000/svg" xmlns:xlink="http://www.w3.org/1999/xlink" width="512" zoomAndPan="magnify" viewBox="0 0 384 191.999996" height="256" preserveAspectRatio="xMidYMid meet" version="1.0"><defs><filter x="0%" y="0%" width="100%" height="100%" id="26ebefb5a8"><feColorMatrix values="0 0 0 0 1 0 0 0 0 1 0 0 0 0 1 0 0 0 1 0" color-interpolation-filters="sRGB"/></filter><g/><clipPath id="1c5faf9049"><path d="M 91.84375 56.789062 L 169 56.789062 L 169 135.390625 L 91.84375 135.390625 Z M 91.84375 56.789062 " clip-rule="nonzero"/></clipPath><clipPath id="32dfa4618a"><path d="M 94.09375 56.789062 L 166.519531 56.789062 C 167.117188 56.789062 167.691406 57.027344 168.113281 57.449219 C 168.535156 57.871094 168.769531 58.445312 168.769531 59.039062 L 168.769531 132.960938 C 168.769531 134.203125 167.761719 135.210938 166.519531 135.210938 L 94.09375 135.210938 C 93.496094 135.210938 92.925781 134.972656 92.503906 134.550781 C 92.082031 134.128906 91.84375 133.554688 91.84375 132.960938 L 91.84375 59.039062 C 91.84375 58.445312 92.082031 57.871094 92.503906 57.449219 C 92.925781 57.027344 93.496094 56.789062 94.09375 56.789062 " clip-rule="nonzero"/></clipPath><clipPath id="ac938207c1"><path d="M 249.027344 55.894531 L 326 55.894531 L 326 134.496094 L 249.027344 134.496094 Z M 249.027344 55.894531 " clip-rule="nonzero"/></clipPath><clipPath id="22ce85bb7e"><path d="M 251.277344 55.894531 L 323.703125 55.894531 C 324.300781 55.894531 324.871094 56.132812 325.292969 56.554688 C 325.714844 56.976562 325.953125 57.550781 325.953125 58.144531 L 325.953125 132.0625 C 325.953125 133.308594 324.945312 134.3125 323.703125 134.3125 L 251.277344 134.3125 C 250.679688 134.3125 250.105469 134.078125 249.683594 133.65625 C 249.261719 133.234375 249.027344 132.660156 249.027344 132.0625 L 249.027344 58.144531 C 249.027344 57.550781 249.261719 56.976562 249.683594 56.554688 C 250.105469 56.132812 250.679688 55.894531 251.277344 55.894531 " clip-rule="nonzero"/></clipPath><clipPath id="b03e5bf5f5"><path d="M 56.722656 111.652344 L 116.722656 111.652344 L 116.722656 172.851562 L 56.722656 172.851562 Z M 56.722656 111.652344 " clip-rule="nonzero"/></clipPath><clipPath id="c16efad77e"><path d="M 58.972656 111.652344 L 114.304688 111.652344 C 115.546875 111.652344 116.554688 112.660156 116.554688 113.902344 L 116.554688 170.550781 C 116.554688 171.792969 115.546875 172.800781 114.304688 172.800781 L 58.972656 172.800781 C 57.730469 172.800781 56.722656 171.792969 56.722656 170.550781 L 56.722656 113.902344 C 56.722656 112.660156 57.730469 111.652344 58.972656 111.652344 " clip-rule="nonzero"/></clipPath><clipPath id="3b765b3212"><path d="M 56.722656 19.566406 L 127 19.566406 L 127 80.765625 L 56.722656 80.765625 Z M 56.722656 19.566406 " clip-rule="nonzero"/></clipPath><clipPath id="fa8c42474c"><path d="M 58.972656 19.566406 L 124.714844 19.566406 C 125.308594 19.566406 125.882812 19.804688 126.304688 20.226562 C 126.726562 20.648438 126.964844 21.21875 126.964844 21.816406 L 126.964844 78.464844 C 126.964844 79.707031 125.957031 80.714844 124.714844 80.714844 L 58.972656 80.714844 C 58.375 80.714844 57.804688 80.476562 57.382812 80.054688 C 56.960938 79.632812 56.722656 79.058594 56.722656 78.464844 L 56.722656 21.816406 C 56.722656 21.21875 56.960938 20.648438 57.382812 20.226562 C 57.804688 19.804688 58.375 19.566406 58.972656 19.566406 " clip-rule="nonzero"/></clipPath><clipPath id="f5bf5565dd"><path d="M 213.90625 110.757812 L 273.90625 110.757812 L 273.90625 171.957031 L 213.90625 171.957031 Z M 213.90625 110.757812 " clip-rule="nonzero"/></clipPath><clipPath id="9fe4d288de"><path d="M 216.15625 110.757812 L 271.488281 110.757812 C 272.730469 110.757812 273.738281 111.765625 273.738281 113.007812 L 273.738281 169.65625 C 273.738281 170.898438 272.730469 171.90625 271.488281 171.90625 L 216.15625 171.90625 C 214.914062 171.90625 213.90625 170.898438 213.90625 169.65625 L 213.90625 113.007812 C 213.90625 111.765625 214.914062 110.757812 216.15625 110.757812 " clip-rule="nonzero"/></clipPath><clipPath id="03937749c1"><path d="M 213.90625 18.671875 L 284.707031 18.671875 L 284.707031 79.871094 L 213.90625 79.871094 Z M 213.90625 18.671875 " clip-rule="nonzero"/></clipPath><clipPath id="f9a0b376f2"><path d="M 216.15625 18.671875 L 281.894531 18.671875 C 282.492188 18.671875 283.066406 18.910156 283.488281 19.332031 C 283.910156 19.753906 284.144531 20.324219 284.144531 20.921875 L 284.144531 77.570312 C 284.144531 78.8125 283.136719 79.820312 281.894531 79.820312 L 216.15625 79.820312 C 215.558594 79.820312 214.988281 79.582031 214.566406 79.160156 C 214.144531 78.738281 213.90625 78.164062 213.90625 77.570312 L 213.90625 20.921875 C 213.90625 20.324219 214.144531 19.753906 214.566406 19.332031 C 214.988281 18.910156 215.558594 18.671875 216.15625 18.671875 " clip-rule="nonzero"/></clipPath><clipPath id="4cda6f7731"><path d="M 19.882812 80.714844 L 50.484375 80.714844 L 50.484375 111.3125 L 19.882812 111.3125 Z M 19.882812 80.714844 " clip-rule="nonzero"/></clipPath><clipPath id="1d8eb7a6a1"><path d="M 22.132812 80.714844 L 48.183594 80.714844 C 49.425781 80.714844 50.433594 81.71875 50.433594 82.964844 L 50.433594 109.035156 C 50.433594 110.28125 49.425781 111.285156 48.183594 111.285156 L 22.132812 111.285156 C 20.890625 111.285156 19.882812 110.28125 19.882812 109.035156 L 19.882812 82.964844 C 19.882812 81.71875 20.890625 80.714844 22.132812 80.714844 " clip-rule="nonzero"/></clipPath><clipPath id="3c413ad438"><path d="M 151.117188 142.226562 L 181.71875 142.226562 L 181.71875 172.828125 L 151.117188 172.828125 Z M 151.117188 142.226562 " clip-rule="nonzero"/></clipPath><clipPath id="b5a8400b22"><path d="M 153.367188 142.226562 L 179.417969 142.226562 C 180.660156 142.226562 181.667969 143.234375 181.667969 144.476562 L 181.667969 170.550781 C 181.667969 171.792969 180.660156 172.800781 179.417969 172.800781 L 153.367188 172.800781 C 152.125 172.800781 151.117188 171.792969 151.117188 170.550781 L 151.117188 144.476562 C 151.117188 143.234375 152.125 142.226562 153.367188 142.226562 " clip-rule="nonzero"/></clipPath><clipPath id="3fd8807293"><path d="M 177.066406 79.820312 L 207.667969 79.820312 L 207.667969 110.417969 L 177.066406 110.417969 Z M 177.066406 79.820312 " clip-rule="nonzero"/></clipPath><clipPath id="f406acadf1"><path d="M 179.316406 79.820312 L 205.367188 79.820312 C 206.609375 79.820312 207.617188 80.824219 207.617188 82.070312 L 207.617188 108.140625 C 207.617188 109.382812 206.609375 110.390625 205.367188 110.390625 L 179.316406 110.390625 C 178.074219 110.390625 177.066406 109.382812 177.066406 108.140625 L 177.066406 82.070312 C 177.066406 80.824219 178.074219 79.820312 179.316406 79.820312 " clip-rule="nonzero"/></clipPath><clipPath id="fb8b47ad6a"><path d="M 151.117188 19.199219 L 181.71875 19.199219 L 181.71875 49.800781 L 151.117188 49.800781 Z M 151.117188 19.199219 " clip-rule="nonzero"/></clipPath><clipPath id="e9c0640e0a"><path d="M 153.367188 19.199219 L 179.417969 19.199219 C 180.660156 19.199219 181.667969 20.207031 181.667969 21.449219 L 181.667969 47.523438 C 181.667969 48.765625 180.660156 49.773438 179.417969 49.773438 L 153.367188 49.773438 C 152.125 49.773438 151.117188 48.765625 151.117188 47.523438 L 151.117188 21.449219 C 151.117188 20.207031 152.125 19.199219 153.367188 19.199219 " clip-rule="nonzero"/></clipPath><clipPath id="a972e67e86"><path d="M 308.300781 141.332031 L 338.898438 141.332031 L 338.898438 171.933594 L 308.300781 171.933594 Z M 308.300781 141.332031 " clip-rule="nonzero"/></clipPath><clipPath id="0d7f42fa94"><path d="M 310.550781 141.332031 L 336.601562 141.332031 C 337.84375 141.332031 338.851562 142.339844 338.851562 143.582031 L 338.851562 169.65625 C 338.851562 170.898438 337.84375 171.90625 336.601562 171.90625 L 310.550781 171.90625 C 309.308594 171.90625 308.300781 170.898438 308.300781 169.65625 L 308.300781 143.582031 C 308.300781 142.339844 309.308594 141.332031 310.550781 141.332031 " clip-rule="nonzero"/></clipPath><clipPath id="7f2f52bf7a"><path d="M 334.25 80.714844 L 364.847656 80.714844 L 364.847656 111.3125 L 334.25 111.3125 Z M 334.25 80.714844 " clip-rule="nonzero"/></clipPath><clipPath id="e5545ecec5"><path d="M 336.5 80.714844 L 362.550781 80.714844 C 363.792969 80.714844 364.800781 81.71875 364.800781 82.964844 L 364.800781 109.035156 C 364.800781 110.28125 363.792969 111.285156 362.550781 111.285156 L 336.5 111.285156 C 335.257812 111.285156 334.25 110.28125 334.25 109.035156 L 334.25 82.964844 C 334.25 81.71875 335.257812 80.714844 336.5 80.714844 " clip-rule="nonzero"/></clipPath><clipPath id="29b07274d5"><path d="M 308.300781 18.304688 L 338.898438 18.304688 L 338.898438 48.90625 L 308.300781 48.90625 Z M 308.300781 18.304688 " clip-rule="nonzero"/></clipPath><clipPath id="5460d08756"><path d="M 310.550781 18.304688 L 336.601562 18.304688 C 337.84375 18.304688 338.851562 19.3125 338.851562 20.554688 L 338.851562 46.628906 C 338.851562 47.871094 337.84375 48.878906 336.601562 48.878906 L 310.550781 48.878906 C 309.308594 48.878906 308.300781 47.871094 308.300781 46.628906 L 308.300781 20.554688 C 308.300781 19.3125 309.308594 18.304688 310.550781 18.304688 " clip-rule="nonzero"/></clipPath><mask id="08f7084458"><g filter="url(#26ebefb5a8)"><rect x="-38.4" width="460.8" fill="#000000" y="-19.2" height="230.399995" fill-opacity="0.2471"/></g></mask><clipPath id="6482084046"><path d="M 0.84375 0.789062 L 78 0.789062 L 78 79.390625 L 0.84375 79.390625 Z M 0.84375 0.789062 " clip-rule="nonzero"/></clipPath><clipPath id="f5bb2b22db"><path d="M 3.09375 0.789062 L 75.519531 0.789062 C 76.117188 0.789062 76.691406 1.027344 77.113281 1.449219 C 77.535156 1.871094 77.769531 2.445312 77.769531 3.039062 L 77.769531 76.960938 C 77.769531 78.203125 76.761719 79.210938 75.519531 79.210938 L 3.09375 79.210938 C 2.496094 79.210938 1.925781 78.972656 1.503906 78.550781 C 1.082031 78.128906 0.84375 77.554688 0.84375 76.960938 L 0.84375 3.039062 C 0.84375 2.445312 1.082031 1.871094 1.503906 1.449219 C 1.925781 1.027344 2.496094 0.789062 3.09375 0.789062 " clip-rule="nonzero"/></clipPath><clipPath id="a4c2552ef1"><rect x="0" width="79" y="0" height="80"/></clipPath><mask id="347ac92284"><g filter="url(#26ebefb5a8)"><rect x="-38.4" width="460.8" fill="#000000" y="-19.2" height="230.399995" fill-opacity="0.2471"/></g></mask><clipPath id="0864da33b9"><path d="M 1.027344 0.894531 L 78 0.894531 L 78 79.496094 L 1.027344 79.496094 Z M 1.027344 0.894531 " clip-rule="nonzero"/></clipPath><clipPath id="cce189b5b3"><path d="M 3.277344 0.894531 L 75.703125 0.894531 C 76.300781 0.894531 76.871094 1.132812 77.292969 1.554688 C 77.714844 1.976562 77.953125 2.550781 77.953125 3.144531 L 77.953125 77.0625 C 77.953125 78.308594 76.945312 79.3125 75.703125 79.3125 L 3.277344 79.3125 C 2.679688 79.3125 2.105469 79.078125 1.683594 78.65625 C 1.261719 78.234375 1.027344 77.660156 1.027344 77.0625 L 1.027344 3.144531 C 1.027344 2.550781 1.261719 1.976562 1.683594 1.554688 C 2.105469 1.132812 2.679688 0.894531 3.277344 0.894531 " clip-rule="nonzero"/></clipPath><clipPath id="ad29a14db4"><rect x="0" width="79" y="0" height="80"/></clipPath><mask id="950cedf592"><g filter="url(#26ebefb5a8)"><rect x="-38.4" width="460.8" fill="#000000" y="-19.2" height="230.399995" fill-opacity="0.2471"/></g></mask><clipPath id="22269e2cde"><path d="M 0.722656 0.652344 L 60.722656 0.652344 L 60.722656 61.851562 L 0.722656 61.851562 Z M 0.722656 0.652344 " clip-rule="nonzero"/></clipPath><clipPath id="178a86a1a3"><path d="M 2.972656 0.652344 L 58.304688 0.652344 C 59.546875 0.652344 60.554688 1.660156 60.554688 2.902344 L 60.554688 59.550781 C 60.554688 60.792969 59.546875 61.800781 58.304688 61.800781 L 2.972656 61.800781 C 1.730469 61.800781 0.722656 60.792969 0.722656 59.550781 L 0.722656 2.902344 C 0.722656 1.660156 1.730469 0.652344 2.972656 0.652344 " clip-rule="nonzero"/></clipPath><clipPath id="e20ac159f0"><rect x="0" width="61" y="0" height="63"/></clipPath><mask id="eed7f500e8"><g filter="url(#26ebefb5a8)"><rect x="-38.4" width="460.8" fill="#000000" y="-19.2" height="230.399995" fill-opacity="0.2471"/></g></mask><clipPath id="e4e1f8867c"><path d="M 0.722656 0.566406 L 71 0.566406 L 71 61.765625 L 0.722656 61.765625 Z M 0.722656 0.566406 " clip-rule="nonzero"/></clipPath><clipPath id="fd0302c3c9"><path d="M 2.972656 0.566406 L 68.714844 0.566406 C 69.308594 0.566406 69.882812 0.804688 70.304688 1.226562 C 70.726562 1.648438 70.964844 2.21875 70.964844 2.816406 L 70.964844 59.464844 C 70.964844 60.707031 69.957031 61.714844 68.714844 61.714844 L 2.972656 61.714844 C 2.375 61.714844 1.804688 61.476562 1.382812 61.054688 C 0.960938 60.632812 0.722656 60.058594 0.722656 59.464844 L 0.722656 2.816406 C 0.722656 2.21875 0.960938 1.648438 1.382812 1.226562 C 1.804688 0.804688 2.375 0.566406 2.972656 0.566406 " clip-rule="nonzero"/></clipPath><clipPath id="e09e9d38ed"><rect x="0" width="72" y="0" height="62"/></clipPath><mask id="c812bb48a8"><g filter="url(#26ebefb5a8)"><rect x="-38.4" width="460.8" fill="#000000" y="-19.2" height="230.399995" fill-opacity="0.2471"/></g></mask><clipPath id="453d3c3011"><path d="M 0.90625 0.757812 L 60.90625 0.757812 L 60.90625 61.957031 L 0.90625 61.957031 Z M 0.90625 0.757812 " clip-rule="nonzero"/></clipPath><clipPath id="c586901da7"><path d="M 3.15625 0.757812 L 58.488281 0.757812 C 59.730469 0.757812 60.738281 1.765625 60.738281 3.007812 L 60.738281 59.65625 C 60.738281 60.898438 59.730469 61.90625 58.488281 61.90625 L 3.15625 61.90625 C 1.914062 61.90625 0.90625 60.898438 0.90625 59.65625 L 0.90625 3.007812 C 0.90625 1.765625 1.914062 0.757812 3.15625 0.757812 " clip-rule="nonzero"/></clipPath><clipPath id="9c117cc037"><rect x="0" width="62" y="0" height="63"/></clipPath><mask id="eb775f35e9"><g filter="url(#26ebefb5a8)"><rect x="-38.4" width="460.8" fill="#000000" y="-19.2" height="230.399995" fill-opacity="0.2471"/></g></mask><clipPath id="08cbbf6ad8"><path d="M 0.90625 0.671875 L 71.707031 0.671875 L 71.707031 61.871094 L 0.90625 61.871094 Z M 0.90625 0.671875 " clip-rule="nonzero"/></clipPath><clipPath id="9a05f73d49"><path d="M 3.15625 0.671875 L 68.894531 0.671875 C 69.492188 0.671875 70.066406 0.910156 70.488281 1.332031 C 70.910156 1.753906 71.144531 2.324219 71.144531 2.921875 L 71.144531 59.570312 C 71.144531 60.8125 70.136719 61.820312 68.894531 61.820312 L 3.15625 61.820312 C 2.558594 61.820312 1.988281 61.582031 1.566406 61.160156 C 1.144531 60.738281 0.90625 60.164062 0.90625 59.570312 L 0.90625 2.921875 C 0.90625 2.324219 1.144531 1.753906 1.566406 1.332031 C 1.988281 0.910156 2.558594 0.671875 3.15625 0.671875 " clip-rule="nonzero"/></clipPath><clipPath id="c7a2609659"><rect x="0" width="72" y="0" height="62"/></clipPath><mask id="8766895574"><g filter="url(#26ebefb5a8)"><rect x="-38.4" width="460.8" fill="#000000" y="-19.2" height="230.399995" fill-opacity="0.2471"/></g></mask><clipPath id="626aa2bb21"><path d="M 0.882812 0.714844 L 31.484375 0.714844 L 31.484375 31.3125 L 0.882812 31.3125 Z M 0.882812 0.714844 " clip-rule="nonzero"/></clipPath><clipPath id="09e8b63d4a"><path d="M 3.132812 0.714844 L 29.183594 0.714844 C 30.425781 0.714844 31.433594 1.71875 31.433594 2.964844 L 31.433594 29.035156 C 31.433594 30.28125 30.425781 31.285156 29.183594 31.285156 L 3.132812 31.285156 C 1.890625 31.285156 0.882812 30.28125 0.882812 29.035156 L 0.882812 2.964844 C 0.882812 1.71875 1.890625 0.714844 3.132812 0.714844 " clip-rule="nonzero"/></clipPath><clipPath id="5e746c596e"><rect x="0" width="32" y="0" height="32"/></clipPath><mask id="ada7171452"><g filter="url(#26ebefb5a8)"><rect x="-38.4" width="460.8" fill="#000000" y="-19.2" height="230.399995" fill-opacity="0.2471"/></g></mask><clipPath id="3389b87dcc"><path d="M 1.117188 0.226562 L 31.71875 0.226562 L 31.71875 30.828125 L 1.117188 30.828125 Z M 1.117188 0.226562 " clip-rule="nonzero"/></clipPath><clipPath id="3e908048e9"><path d="M 3.367188 0.226562 L 29.417969 0.226562 C 30.660156 0.226562 31.667969 1.234375 31.667969 2.476562 L 31.667969 28.550781 C 31.667969 29.792969 30.660156 30.800781 29.417969 30.800781 L 3.367188 30.800781 C 2.125 30.800781 1.117188 29.792969 1.117188 28.550781 L 1.117188 2.476562 C 1.117188 1.234375 2.125 0.226562 3.367188 0.226562 " clip-rule="nonzero"/></clipPath><clipPath id="26790b014b"><rect x="0" width="32" y="0" height="32"/></clipPath><mask id="bef05d6f60"><g filter="url(#26ebefb5a8)"><rect x="-38.4" width="460.8" fill="#000000" y="-19.2" height="230.399995" fill-opacity="0.2471"/></g></mask><clipPath id="318d6f538d"><path d="M 1.066406 0.820312 L 31.667969 0.820312 L 31.667969 31.417969 L 1.066406 31.417969 Z M 1.066406 0.820312 " clip-rule="nonzero"/></clipPath><clipPath id="e4d7ea1a19"><path d="M 3.316406 0.820312 L 29.367188 0.820312 C 30.609375 0.820312 31.617188 1.824219 31.617188 3.070312 L 31.617188 29.140625 C 31.617188 30.382812 30.609375 31.390625 29.367188 31.390625 L 3.316406 31.390625 C 2.074219 31.390625 1.066406 30.382812 1.066406 29.140625 L 1.066406 3.070312 C 1.066406 1.824219 2.074219 0.820312 3.316406 0.820312 " clip-rule="nonzero"/></clipPath><clipPath id="2c7f50232f"><rect x="0" width="32" y="0" height="32"/></clipPath><mask id="6be83af298"><g filter="url(#26ebefb5a8)"><rect x="-38.4" width="460.8" fill="#000000" y="-19.2" height="230.399995" fill-opacity="0.2471"/></g></mask><clipPath id="5ac05a1833"><path d="M 1.117188 0.199219 L 31.71875 0.199219 L 31.71875 30.800781 L 1.117188 30.800781 Z M 1.117188 0.199219 " clip-rule="nonzero"/></clipPath><clipPath id="a345e81cd7"><path d="M 3.367188 0.199219 L 29.417969 0.199219 C 30.660156 0.199219 31.667969 1.207031 31.667969 2.449219 L 31.667969 28.523438 C 31.667969 29.765625 30.660156 30.773438 29.417969 30.773438 L 3.367188 30.773438 C 2.125 30.773438 1.117188 29.765625 1.117188 28.523438 L 1.117188 2.449219 C 1.117188 1.207031 2.125 0.199219 3.367188 0.199219 " clip-rule="nonzero"/></clipPath><clipPath id="39f92bf67c"><rect x="0" width="32" y="0" height="31"/></clipPath><mask id="a97ac7d668"><g filter="url(#26ebefb5a8)"><rect x="-38.4" width="460.8" fill="#000000" y="-19.2" height="230.399995" fill-opacity="0.2471"/></g></mask><clipPath id="dd01ca8ae8"><path d="M 0.300781 0.332031 L 30.898438 0.332031 L 30.898438 30.933594 L 0.300781 30.933594 Z M 0.300781 0.332031 " clip-rule="nonzero"/></clipPath><clipPath id="07bdc05e6b"><path d="M 2.550781 0.332031 L 28.601562 0.332031 C 29.84375 0.332031 30.851562 1.339844 30.851562 2.582031 L 30.851562 28.65625 C 30.851562 29.898438 29.84375 30.90625 28.601562 30.90625 L 2.550781 30.90625 C 1.308594 30.90625 0.300781 29.898438 0.300781 28.65625 L 0.300781 2.582031 C 0.300781 1.339844 1.308594 0.332031 2.550781 0.332031 " clip-rule="nonzero"/></clipPath><clipPath id="3c11b32d05"><rect x="0" width="32" y="0" height="32"/></clipPath><mask id="392ad3ad64"><g filter="url(#26ebefb5a8)"><rect x="-38.4" width="460.8" fill="#000000" y="-19.2" height="230.399995" fill-opacity="0.2471"/></g></mask><clipPath id="48e173f23d"><path d="M 0.25 0.714844 L 30.847656 0.714844 L 30.847656 31.3125 L 0.25 31.3125 Z M 0.25 0.714844 " clip-rule="nonzero"/></clipPath><clipPath id="b82b941fad"><path d="M 2.5 0.714844 L 28.550781 0.714844 C 29.792969 0.714844 30.800781 1.71875 30.800781 2.964844 L 30.800781 29.035156 C 30.800781 30.28125 29.792969 31.285156 28.550781 31.285156 L 2.5 31.285156 C 1.257812 31.285156 0.25 30.28125 0.25 29.035156 L 0.25 2.964844 C 0.25 1.71875 1.257812 0.714844 2.5 0.714844 " clip-rule="nonzero"/></clipPath><clipPath id="f9b5d4f074"><rect x="0" width="32" y="0" height="32"/></clipPath><mask id="a951b41423"><g filter="url(#26ebefb5a8)"><rect x="-38.4" width="460.8" fill="#000000" y="-19.2" height="230.399995" fill-opacity="0.2471"/></g></mask><clipPath id="a0529b58e8"><path d="M 0.300781 0.304688 L 30.898438 0.304688 L 30.898438 30.90625 L 0.300781 30.90625 Z M 0.300781 0.304688 " clip-rule="nonzero"/></clipPath><clipPath id="444a9f6d37"><path d="M 2.550781 0.304688 L 28.601562 0.304688 C 29.84375 0.304688 30.851562 1.3125 30.851562 2.554688 L 30.851562 28.628906 C 30.851562 29.871094 29.84375 30.878906 28.601562 30.878906 L 2.550781 30.878906 C 1.308594 30.878906 0.300781 29.871094 0.300781 28.628906 L 0.300781 2.554688 C 0.300781 1.3125 1.308594 0.304688 2.550781 0.304688 " clip-rule="nonzero"/></clipPath><clipPath id="7da0a987ec"><rect x="0" width="32" y="0" height="31"/></clipPath><clipPath id="9d40957365"><path d="M 29.742188 29.195312 L 125.742188 29.195312 L 125.742188 125.195312 L 29.742188 125.195312 Z M 29.742188 29.195312 " clip-rule="nonzero"/></clipPath></defs><g clip-path="url(#1c5faf9049)"><g clip-path="url(#32dfa4618a)"><path fill="#ffffff" d="M 91.84375 56.789062 L 168.644531 56.789062 L 168.644531 135.390625 L 91.84375 135.390625 Z M 91.84375 56.789062 " fill-opacity="1" fill-rule="nonzero"/></g></g><g clip-path="url(#ac938207c1)"><g clip-path="url(#22ce85bb7e)"><path fill="#ffffff" d="M 249.027344 55.894531 L 325.828125 55.894531 L 325.828125 134.496094 L 249.027344 134.496094 Z M 249.027344 55.894531 " fill-opacity="1" fill-rule="nonzero"/></g></g><g clip-path="url(#b03e5bf5f5)"><g clip-path="url(#c16efad77e)"><path fill="#ffffff" d="M 56.722656 111.652344 L 116.722656 111.652344 L 116.722656 172.851562 L 56.722656 172.851562 Z M 56.722656 111.652344 " fill-opacity="1" fill-rule="nonzero"/></g></g><g clip-path="url(#3b765b3212)"><g clip-path="url(#fa8c42474c)"><path fill="#ffffff" d="M 56.722656 19.566406 L 126.921875 19.566406 L 126.921875 80.765625 L 56.722656 80.765625 Z M 56.722656 19.566406 " fill-opacity="1" fill-rule="nonzero"/></g></g><g clip-path="url(#f5bf5565dd)"><g clip-path="url(#9fe4d288de)"><path fill="#ffffff" d="M 213.90625 110.757812 L 273.90625 110.757812 L 273.90625 171.957031 L 213.90625 171.957031 Z M 213.90625 110.757812 " fill-opacity="1" fill-rule="nonzero"/></g></g><g clip-path="url(#03937749c1)"><g clip-path="url(#f9a0b376f2)"><path fill="#ffffff" d="M 213.90625 18.671875 L 284.105469 18.671875 L 284.105469 79.871094 L 213.90625 79.871094 Z M 213.90625 18.671875 " fill-opacity="1" fill-rule="nonzero"/></g></g><g clip-path="url(#4cda6f7731)"><g clip-path="url(#1d8eb7a6a1)"><path fill="#ffffff" d="M 19.882812 80.714844 L 50.484375 80.714844 L 50.484375 111.3125 L 19.882812 111.3125 Z M 19.882812 80.714844 " fill-opacity="1" fill-rule="nonzero"/></g></g><g clip-path="url(#3c413ad438)"><g clip-path="url(#b5a8400b22)"><path fill="#ffffff" d="M 151.117188 142.226562 L 181.71875 142.226562 L 181.71875 172.828125 L 151.117188 172.828125 Z M 151.117188 142.226562 " fill-opacity="1" fill-rule="nonzero"/></g></g><g clip-path="url(#3fd8807293)"><g clip-path="url(#f406acadf1)"><path fill="#ffffff" d="M 177.066406 79.820312 L 207.667969 79.820312 L 207.667969 110.417969 L 177.066406 110.417969 Z M 177.066406 79.820312 " fill-opacity="1" fill-rule="nonzero"/></g></g><g clip-path="url(#fb8b47ad6a)"><g clip-path="url(#e9c0640e0a)"><path fill="#ffffff" d="M 151.117188 19.199219 L 181.71875 19.199219 L 181.71875 49.800781 L 151.117188 49.800781 Z M 151.117188 19.199219 " fill-opacity="1" fill-rule="nonzero"/></g></g><g clip-path="url(#a972e67e86)"><g clip-path="url(#0d7f42fa94)"><path fill="#ffffff" d="M 308.300781 141.332031 L 338.898438 141.332031 L 338.898438 171.933594 L 308.300781 171.933594 Z M 308.300781 141.332031 " fill-opacity="1" fill-rule="nonzero"/></g></g><g clip-path="url(#7f2f52bf7a)"><g clip-path="url(#e5545ecec5)"><path fill="#ffffff" d="M 334.25 80.714844 L 364.847656 80.714844 L 364.847656 111.3125 L 334.25 111.3125 Z M 334.25 80.714844 " fill-opacity="1" fill-rule="nonzero"/></g></g><g clip-path="url(#29b07274d5)"><g clip-path="url(#5460d08756)"><path fill="#ffffff" d="M 308.300781 18.304688 L 338.898438 18.304688 L 338.898438 48.90625 L 308.300781 48.90625 Z M 308.300781 18.304688 " fill-opacity="1" fill-rule="nonzero"/></g></g><g mask="url(#08f7084458)"><g transform="matrix(1, 0, 0, 1, 91, 56)"><g clip-path="url(#a4c2552ef1)"><g clip-path="url(#6482084046)"><g clip-path="url(#f5bb2b22db)"><path fill="#64b5f6" d="M 0.84375 0.789062 L 77.644531 0.789062 L 77.644531 79.390625 L 0.84375 79.390625 Z M 0.84375 0.789062 " fill-opacity="1" fill-rule="nonzero"/></g></g></g></g></g><g mask="url(#347ac92284)"><g transform="matrix(1, 0, 0, 1, 248, 55)"><g clip-path="url(#ad29a14db4)"><g clip-path="url(#0864da33b9)"><g clip-path="url(#cce189b5b3)"><path fill="#64b5f6" d="M 1.027344 0.894531 L 77.828125 0.894531 L 77.828125 79.496094 L 1.027344 79.496094 Z M 1.027344 0.894531 " fill-opacity="1" fill-rule="nonzero"/></g></g></g></g></g><g mask="url(#950cedf592)"><g transform="matrix(1, 0, 0, 1, 56, 111)"><g clip-path="url(#e20ac159f0)"><g clip-path="url(#22269e2cde)"><g clip-path="url(#178a86a1a3)"><path fill="#ce93d8" d="M 0.722656 0.652344 L 60.722656 0.652344 L 60.722656 61.851562 L 0.722656 61.851562 Z M 0.722656 0.652344 " fill-opacity="1" fill-rule="nonzero"/></g></g></g></g></g><g mask="url(#eed7f500e8)"><g transform="matrix(1, 0, 0, 1, 56, 19)"><g clip-path="url(#e09e9d38ed)"><g clip-path="url(#e4e1f8867c)"><g clip-path="url(#fd0302c3c9)"><path fill="#ce93d8" d="M 0.722656 0.566406 L 70.921875 0.566406 L 70.921875 61.765625 L 0.722656 61.765625 Z M 0.722656 0.566406 " fill-opacity="1" fill-rule="nonzero"/></g></g></g></g></g><g mask="url(#c812bb48a8)"><g transform="matrix(1, 0, 0, 1, 213, 110)"><g clip-path="url(#9c117cc037)"><g clip-path="url(#453d3c3011)"><g clip-path="url(#c586901da7)"><path fill="#ce93d8" d="M 0.90625 0.757812 L 60.90625 0.757812 L 60.90625 61.957031 L 0.90625 61.957031 Z M 0.90625 0.757812 " fill-opacity="1" fill-rule="nonzero"/></g></g></g></g></g><g mask="url(#eb775f35e9)"><g transform="matrix(1, 0, 0, 1, 213, 18)"><g clip-path="url(#c7a2609659)"><g clip-path="url(#08cbbf6ad8)"><g clip-path="url(#9a05f73d49)"><path fill="#ce93d8" d="M 0.90625 0.671875 L 71.105469 0.671875 L 71.105469 61.871094 L 0.90625 61.871094 Z M 0.90625 0.671875 " fill-opacity="1" fill-rule="nonzero"/></g></g></g></g></g><g mask="url(#8766895574)"><g transform="matrix(1, 0, 0, 1, 19, 80)"><g clip-path="url(#5e746c596e)"><g clip-path="url(#626aa2bb21)"><g clip-path="url(#09e8b63d4a)"><path fill="#7986cb" d="M 0.882812 0.714844 L 31.484375 0.714844 L 31.484375 31.3125 L 0.882812 31.3125 Z M 0.882812 0.714844 " fill-opacity="1" fill-rule="nonzero"/></g></g></g></g></g><g mask="url(#ada7171452)"><g transform="matrix(1, 0, 0, 1, 150, 142)"><g clip-path="url(#26790b014b)"><g clip-path="url(#3389b87dcc)"><g clip-path="url(#3e908048e9)"><path fill="#7986cb" d="M 1.117188 0.226562 L 31.71875 0.226562 L 31.71875 30.828125 L 1.117188 30.828125 Z M 1.117188 0.226562 " fill-opacity="1" fill-rule="nonzero"/></g></g></g></g></g><g mask="url(#bef05d6f60)"><g transform="matrix(1, 0, 0, 1, 176, 79)"><g clip-path="url(#2c7f50232f)"><g clip-path="url(#318d6f538d)"><g clip-path="url(#e4d7ea1a19)"><path fill="#7986cb" d="M 1.066406 0.820312 L 31.667969 0.820312 L 31.667969 31.417969 L 1.066406 31.417969 Z M 1.066406 0.820312 " fill-opacity="1" fill-rule="nonzero"/></g></g></g></g></g><g mask="url(#6be83af298)"><g transform="matrix(1, 0, 0, 1, 150, 19)"><g clip-path="url(#39f92bf67c)"><g clip-path="url(#5ac05a1833)"><g clip-path="url(#a345e81cd7)"><path fill="#7986cb" d="M 1.117188 0.199219 L 31.71875 0.199219 L 31.71875 30.800781 L 1.117188 30.800781 Z M 1.117188 0.199219 " fill-opacity="1" fill-rule="nonzero"/></g></g></g></g></g><g mask="url(#a97ac7d668)"><g transform="matrix(1, 0, 0, 1, 308, 141)"><g clip-path="url(#3c11b32d05)"><g clip-path="url(#dd01ca8ae8)"><g clip-path="url(#07bdc05e6b)"><path fill="#7986cb" d="M 0.300781 0.332031 L 30.898438 0.332031 L 30.898438 30.933594 L 0.300781 30.933594 Z M 0.300781 0.332031 " fill-opacity="1" fill-rule="nonzero"/></g></g></g></g></g><g mask="url(#392ad3ad64)"><g transform="matrix(1, 0, 0, 1, 334, 80)"><g clip-path="url(#f9b5d4f074)"><g clip-path="url(#48e173f23d)"><g clip-path="url(#b82b941fad)"><path fill="#7986cb" d="M 0.25 0.714844 L 30.847656 0.714844 L 30.847656 31.3125 L 0.25 31.3125 Z M 0.25 0.714844 " fill-opacity="1" fill-rule="nonzero"/></g></g></g></g></g><g mask="url(#a951b41423)"><g transform="matrix(1, 0, 0, 1, 308, 18)"><g clip-path="url(#7da0a987ec)"><g clip-path="url(#a0529b58e8)"><g clip-path="url(#444a9f6d37)"><path fill="#7986cb" d="M 0.300781 0.304688 L 30.898438 0.304688 L 30.898438 30.90625 L 0.300781 30.90625 Z M 0.300781 0.304688 " fill-opacity="1" fill-rule="nonzero"/></g></g></g></g></g><g clip-path="url(#9d40957365)"><path fill="#222222" d="M 30.984375 29.550781 C 29.613281 30.460938 29.742188 25.539062 29.742188 77.195312 C 29.742188 128.855469 29.613281 123.9375 30.984375 124.839844 C 31.828125 125.394531 123.65625 125.394531 124.496094 124.839844 C 125.863281 123.9375 125.738281 128.496094 125.738281 80.164062 L 125.742188 36.914062 L 125.25 36.328125 C 124.226562 35.113281 126.394531 35.195312 96.132812 35.195312 L 68.570312 35.195312 L 66.796875 32.710938 C 65.820312 31.347656 64.796875 30.015625 64.523438 29.757812 L 64.023438 29.289062 L 47.773438 29.242188 C 32.09375 29.199219 31.503906 29.207031 30.984375 29.550781 M 68.394531 45.070312 C 72.347656 50.605469 75.824219 55.308594 76.113281 55.523438 C 76.640625 55.914062 76.667969 55.914062 98.285156 55.964844 L 119.929688 56.015625 L 119.929688 119.382812 L 89.929688 119.382812 L 89.925781 115.398438 C 89.925781 104.464844 85.613281 96.671875 77.132812 92.28125 L 75.492188 91.429688 L 76.4375 90.199219 C 83.808594 80.582031 76.171875 66.925781 64.234375 68.375 C 54.882812 69.511719 49.515625 79.597656 53.792969 87.980469 C 54.222656 88.824219 54.570312 89.332031 55.796875 90.914062 L 56.183594 91.414062 L 54.558594 92.277344 C 45.933594 96.867188 41.742188 104.421875 41.742188 115.398438 L 41.742188 119.382812 L 35.554688 119.382812 L 35.554688 35.007812 L 61.203125 35.007812 L 68.394531 45.070312 M 119.929688 45.601562 L 119.929688 50.195312 L 79.277344 50.195312 L 76.070312 45.707031 C 74.308594 43.238281 72.867188 41.171875 72.867188 41.113281 C 72.867188 41.054688 83.453125 41.007812 96.398438 41.007812 L 119.929688 41.007812 L 119.929688 45.601562 M 49.253906 44.523438 C 48.058594 45.136719 47.84375 45.648438 47.769531 48.054688 L 47.707031 50.195312 L 45.800781 50.195312 C 42.910156 50.195312 41.742188 51.035156 41.742188 53.101562 C 41.742188 55.175781 42.910156 56.007812 45.816406 56.007812 L 47.742188 56.007812 L 47.742188 57.929688 C 47.742188 60.796875 48.410156 61.808594 50.40625 61.957031 C 52.597656 62.121094 53.546875 60.910156 53.550781 57.929688 L 53.554688 56.007812 L 55.445312 56.007812 C 58.4375 56.007812 59.460938 55.269531 59.460938 53.101562 C 59.460938 50.9375 58.4375 50.195312 55.445312 50.195312 L 53.554688 50.195312 L 53.550781 48.273438 C 53.542969 44.90625 51.6875 43.285156 49.253906 44.523438 M 88.429688 64.125 C 86.480469 65.15625 86.398438 67.984375 88.285156 69.136719 C 89.238281 69.71875 111.429688 69.71875 112.382812 69.136719 C 114.320312 67.953125 114.179688 65.089844 112.132812 64.074219 C 111.394531 63.707031 111.023438 63.695312 100.304688 63.695312 L 89.238281 63.695312 L 88.429688 64.125 M 67.898438 74.421875 C 70.628906 75.097656 73.003906 77.804688 73.382812 80.679688 C 74.355469 87.996094 65.675781 92.34375 60.480469 87.144531 C 54.925781 81.59375 60.214844 72.515625 67.898438 74.421875 M 88.0625 76.375 C 86.445312 77.734375 86.550781 79.914062 88.300781 81.210938 C 89.132812 81.828125 111.535156 81.828125 112.367188 81.210938 C 114.117188 79.914062 114.226562 77.734375 112.609375 76.375 L 112.023438 75.882812 L 88.644531 75.882812 L 88.0625 76.375 M 70.855469 96.019531 C 79.398438 98.578125 83.882812 105.03125 84.070312 115.023438 L 84.152344 119.382812 L 47.554688 119.382812 L 47.554688 115.679688 C 47.554688 110.507812 47.992188 108.285156 49.640625 105.109375 C 53.480469 97.71875 62.960938 93.652344 70.855469 96.019531 " fill-opacity="1" fill-rule="evenodd"/></g><g fill="#222222" fill-opacity="1"><g transform="translate(134.922842, 110.420427)"><g><path d="M 34.15625 -19.03125 L 34.15625 -5.40625 C 34.195312 -3.5 34.710938 -2.117188 35.703125 -1.265625 C 36.691406 -0.421875 37.960938 0 39.515625 0 C 43.816406 0 45.984375 -1.710938 46.015625 -5.140625 L 46.015625 -27.765625 C 46.015625 -30.429688 45.347656 -32.414062 44.015625 -33.71875 C 42.679688 -35.019531 40.816406 -35.671875 38.421875 -35.671875 C 35.097656 -35.671875 32.796875 -34.421875 31.515625 -31.921875 L 24.125 -16.953125 L 17.15625 -32.1875 C 16.570312 -33.257812 15.851562 -34.113281 15 -34.75 C 14.15625 -35.394531 12.953125 -35.71875 11.390625 -35.71875 C 8.515625 -35.71875 6.46875 -35.039062 5.25 -33.6875 C 4.039062 -32.34375 3.4375 -30.332031 3.4375 -27.65625 L 3.4375 -4.984375 C 3.4375 -3.015625 3.78125 -1.691406 4.46875 -1.015625 C 5.164062 -0.335938 6.273438 0 7.796875 0 C 9.148438 0 10.164062 -0.34375 10.84375 -1.03125 C 11.519531 -1.726562 11.859375 -2.820312 11.859375 -4.3125 L 11.859375 -19.03125 L 17.890625 -8.0625 C 19.097656 -6.007812 20.082031 -4.59375 20.84375 -3.8125 C 21.613281 -3.039062 22.550781 -2.65625 23.65625 -2.65625 C 24.519531 -2.65625 25.265625 -2.890625 25.890625 -3.359375 C 26.515625 -3.828125 27.101562 -4.613281 27.65625 -5.71875 Z M 34.15625 -19.03125 "/></g></g></g><g fill="#222222" fill-opacity="1"><g transform="translate(184.267097, 110.420427)"><g><path d="M 13.515625 -5.5625 C 13.515625 -3.476562 13.082031 -2.03125 12.21875 -1.21875 C 11.351562 -0.40625 9.828125 0 7.640625 0 C 5.597656 0 4.203125 -0.472656 3.453125 -1.421875 C 2.710938 -2.378906 2.34375 -3.953125 2.34375 -6.140625 L 2.34375 -18.921875 C 2.34375 -20.691406 2.816406 -22.113281 3.765625 -23.1875 C 4.722656 -24.257812 6 -24.796875 7.59375 -24.796875 C 9.46875 -24.796875 10.921875 -24.390625 11.953125 -23.578125 C 12.992188 -22.765625 13.515625 -21.265625 13.515625 -19.078125 Z M 2.234375 -32.03125 C 2.234375 -30.644531 2.769531 -29.640625 3.84375 -29.015625 C 4.914062 -28.390625 6.269531 -28.078125 7.90625 -28.078125 C 9.738281 -28.078125 11.140625 -28.367188 12.109375 -28.953125 C 13.085938 -29.546875 13.578125 -30.570312 13.578125 -32.03125 C 13.578125 -34.664062 11.6875 -35.984375 7.90625 -35.984375 C 6.101562 -35.984375 4.707031 -35.617188 3.71875 -34.890625 C 2.726562 -34.160156 2.234375 -33.207031 2.234375 -32.03125 Z M 2.234375 -32.03125 "/></g></g></g><g fill="#222222" fill-opacity="1"><g transform="translate(200.125894, 110.420427)"><g><path d="M 18.921875 -7.484375 L 18.875 -17.3125 C 18.28125 -18.28125 17.535156 -18.765625 16.640625 -18.765625 C 16.015625 -18.765625 15.46875 -18.4375 15 -17.78125 C 14.53125 -17.125 14.179688 -16.3125 13.953125 -15.34375 C 13.734375 -14.375 13.625 -13.347656 13.625 -12.265625 C 13.625 -10.640625 13.882812 -9.210938 14.40625 -7.984375 C 14.925781 -6.753906 15.65625 -6.140625 16.59375 -6.140625 C 17.519531 -6.140625 18.296875 -6.585938 18.921875 -7.484375 Z M 11.859375 0.3125 C 9.117188 0.3125 6.847656 -0.800781 5.046875 -3.03125 C 3.242188 -5.269531 2.34375 -8.347656 2.34375 -12.265625 C 2.34375 -16.222656 3.222656 -19.363281 4.984375 -21.6875 C 6.753906 -24.007812 9.023438 -25.171875 11.796875 -25.171875 C 14.609375 -25.171875 17.210938 -24.195312 19.609375 -22.25 C 20.503906 -23.945312 21.992188 -24.796875 24.078125 -24.796875 C 25.953125 -24.796875 27.414062 -24.378906 28.46875 -23.546875 C 29.53125 -22.722656 30.0625 -21.234375 30.0625 -19.078125 L 30.0625 -9.5625 C 30.0625 -6.207031 29.84375 -3.320312 29.40625 -0.90625 C 28.96875 1.5 28.21875 3.617188 27.15625 5.453125 C 26.101562 7.296875 24.648438 8.664062 22.796875 9.5625 C 20.941406 10.46875 18.664062 10.921875 15.96875 10.921875 C 14.09375 10.921875 12.359375 10.660156 10.765625 10.140625 C 9.171875 9.617188 7.90625 8.976562 6.96875 8.21875 C 6.03125 7.457031 5.300781 6.691406 4.78125 5.921875 C 4.257812 5.160156 4 4.503906 4 3.953125 C 4 3.296875 4.1875 2.738281 4.5625 2.28125 C 4.945312 1.832031 5.488281 1.609375 6.1875 1.609375 C 6.601562 1.609375 7.648438 2.054688 9.328125 2.953125 C 11.015625 3.859375 12.378906 4.3125 13.421875 4.3125 C 16.953125 4.3125 18.71875 2.492188 18.71875 -1.140625 C 16.707031 -0.171875 14.421875 0.3125 11.859375 0.3125 Z M 11.859375 0.3125 "/></g></g></g><g fill="#222222" fill-opacity="1"><g transform="translate(232.571426, 110.420427)"><g><path d="M 18.921875 -7.484375 L 18.875 -17.3125 C 18.28125 -18.28125 17.535156 -18.765625 16.640625 -18.765625 C 16.015625 -18.765625 15.46875 -18.4375 15 -17.78125 C 14.53125 -17.125 14.179688 -16.3125 13.953125 -15.34375 C 13.734375 -14.375 13.625 -13.347656 13.625 -12.265625 C 13.625 -10.640625 13.882812 -9.210938 14.40625 -7.984375 C 14.925781 -6.753906 15.65625 -6.140625 16.59375 -6.140625 C 17.519531 -6.140625 18.296875 -6.585938 18.921875 -7.484375 Z M 11.859375 0.3125 C 9.117188 0.3125 6.847656 -0.800781 5.046875 -3.03125 C 3.242188 -5.269531 2.34375 -8.347656 2.34375 -12.265625 C 2.34375 -16.222656 3.222656 -19.363281 4.984375 -21.6875 C 6.753906 -24.007812 9.023438 -25.171875 11.796875 -25.171875 C 14.609375 -25.171875 17.210938 -24.195312 19.609375 -22.25 C 20.503906 -23.945312 21.992188 -24.796875 24.078125 -24.796875 C 25.953125 -24.796875 27.414062 -24.378906 28.46875 -23.546875 C 29.53125 -22.722656 30.0625 -21.234375 30.0625 -19.078125 L 30.0625 -9.5625 C 30.0625 -6.207031 29.84375 -3.320312 29.40625 -0.90625 C 28.96875 1.5 28.21875 3.617188 27.15625 5.453125 C 26.101562 7.296875 24.648438 8.664062 22.796875 9.5625 C 20.941406 10.46875 18.664062 10.921875 15.96875 10.921875 C 14.09375 10.921875 12.359375 10.660156 10.765625 10.140625 C 9.171875 9.617188 7.90625 8.976562 6.96875 8.21875 C 6.03125 7.457031 5.300781 6.691406 4.78125 5.921875 C 4.257812 5.160156 4 4.503906 4 3.953125 C 4 3.296875 4.1875 2.738281 4.5625 2.28125 C 4.945312 1.832031 5.488281 1.609375 6.1875 1.609375 C 6.601562 1.609375 7.648438 2.054688 9.328125 2.953125 C 11.015625 3.859375 12.378906 4.3125 13.421875 4.3125 C 16.953125 4.3125 18.71875 2.492188 18.71875 -1.140625 C 16.707031 -0.171875 14.421875 0.3125 11.859375 0.3125 Z M 11.859375 0.3125 "/></g></g></g><g fill="#222222" fill-opacity="1"><g transform="translate(265.016958, 110.420427)"><g><path d="M 9.984375 0 C 8.390625 -0.03125 7.109375 -0.28125 6.140625 -0.75 C 5.171875 -1.21875 4.441406 -1.988281 3.953125 -3.0625 C 3.460938 -4.144531 3.21875 -5.585938 3.21875 -7.390625 L 3.21875 -29.375 C 3.21875 -31.21875 3.753906 -32.71875 4.828125 -33.875 C 5.910156 -35.039062 7.332031 -35.625 9.09375 -35.625 C 11.175781 -35.625 12.710938 -35.238281 13.703125 -34.46875 C 14.691406 -33.707031 15.1875 -32.164062 15.1875 -29.84375 L 15.1875 -9 L 24.078125 -9 C 26.085938 -9 27.5 -8.703125 28.3125 -8.109375 C 29.125 -7.523438 29.53125 -6.3125 29.53125 -4.46875 C 29.53125 -2.59375 29.0625 -1.378906 28.125 -0.828125 C 27.195312 -0.273438 25.675781 0 23.5625 0 Z M 9.984375 0 "/></g></g></g><g fill="#222222" fill-opacity="1"><g transform="translate(296.630562, 110.420427)"><g><path d="M 13.109375 -14.5625 C 15.503906 -14.59375 16.804688 -14.609375 17.015625 -14.609375 C 17.535156 -14.609375 17.914062 -14.921875 18.15625 -15.546875 C 18.320312 -15.992188 18.40625 -16.617188 18.40625 -17.421875 C 18.40625 -19.609375 17.75 -20.703125 16.4375 -20.703125 C 15.945312 -20.703125 15.46875 -20.441406 15 -19.921875 C 14.539062 -19.398438 14.132812 -18.660156 13.78125 -17.703125 C 13.4375 -16.753906 13.210938 -15.707031 13.109375 -14.5625 Z M 16.640625 0.3125 C 12.410156 0.3125 8.914062 -0.773438 6.15625 -2.953125 C 3.40625 -5.140625 2.03125 -8.125 2.03125 -11.90625 C 2.03125 -16 3.390625 -19.234375 6.109375 -21.609375 C 8.835938 -23.984375 12.347656 -25.171875 16.640625 -25.171875 C 20.703125 -25.171875 23.675781 -24.453125 25.5625 -23.015625 C 27.445312 -21.578125 28.390625 -19.609375 28.390625 -17.109375 C 28.390625 -16.617188 28.328125 -16.148438 28.203125 -15.703125 C 28.085938 -15.253906 27.898438 -14.8125 27.640625 -14.375 C 27.378906 -13.945312 27.03125 -13.550781 26.59375 -13.1875 C 26.164062 -12.820312 25.675781 -12.488281 25.125 -12.1875 C 24.570312 -11.894531 23.910156 -11.671875 23.140625 -11.515625 C 22.378906 -11.359375 21.566406 -11.28125 20.703125 -11.28125 L 13.375 -11.234375 C 13.71875 -10.117188 14.335938 -9.238281 15.234375 -8.59375 C 16.140625 -7.957031 17.285156 -7.640625 18.671875 -7.640625 C 20.160156 -7.640625 21.6875 -7.832031 23.25 -8.21875 C 23.90625 -8.382812 24.625 -8.660156 25.40625 -9.046875 C 26.1875 -9.429688 26.75 -9.625 27.09375 -9.625 C 27.6875 -9.625 28.144531 -9.445312 28.46875 -9.09375 C 28.800781 -8.75 28.96875 -8.316406 28.96875 -7.796875 C 28.96875 -7.171875 28.691406 -6.414062 28.140625 -5.53125 C 27.585938 -4.65625 26.816406 -3.773438 25.828125 -2.890625 C 24.835938 -2.003906 23.523438 -1.25 21.890625 -0.625 C 20.265625 0 18.515625 0.3125 16.640625 0.3125 Z M 16.640625 0.3125 "/></g></g></g><g fill="#222222" fill-opacity="1"><g transform="translate(327.568208, 110.420427)"><g><path d="M 4.984375 -11.125 L 4.984375 -17.265625 C 4.117188 -17.296875 3.425781 -17.441406 2.90625 -17.703125 C 2.382812 -17.960938 2.007812 -18.300781 1.78125 -18.71875 C 1.5625 -19.132812 1.453125 -19.65625 1.453125 -20.28125 C 1.453125 -22.257812 2.648438 -23.332031 5.046875 -23.5 L 5.046875 -28.34375 C 5.046875 -29.65625 6 -30.835938 7.90625 -31.890625 C 9.8125 -32.953125 11.703125 -33.484375 13.578125 -33.484375 C 14.710938 -33.484375 15.453125 -33.15625 15.796875 -32.5 C 16.148438 -31.84375 16.328125 -30.851562 16.328125 -29.53125 L 16.375 -23.5625 L 17.78125 -23.5625 C 19.6875 -23.5625 20.992188 -23.304688 21.703125 -22.796875 C 22.421875 -22.296875 22.78125 -21.390625 22.78125 -20.078125 C 22.78125 -19.515625 22.675781 -19.039062 22.46875 -18.65625 C 22.257812 -18.28125 21.921875 -17.988281 21.453125 -17.78125 C 20.984375 -17.570312 20.414062 -17.425781 19.75 -17.34375 C 19.09375 -17.257812 18.28125 -17.21875 17.3125 -17.21875 L 16.375 -17.21875 L 16.375 -11.484375 C 16.375 -10.929688 16.398438 -10.472656 16.453125 -10.109375 C 16.503906 -9.742188 16.582031 -9.457031 16.6875 -9.25 C 16.789062 -9.039062 16.9375 -8.898438 17.125 -8.828125 C 17.320312 -8.765625 17.5625 -8.734375 17.84375 -8.734375 C 18.25 -8.734375 18.59375 -8.878906 18.875 -9.171875 C 19.15625 -9.472656 19.375 -9.804688 19.53125 -10.171875 C 19.6875 -10.535156 19.894531 -10.863281 20.15625 -11.15625 C 20.414062 -11.445312 20.71875 -11.59375 21.0625 -11.59375 C 21.851562 -11.59375 22.46875 -11.398438 22.90625 -11.015625 C 23.34375 -10.640625 23.5625 -10.175781 23.5625 -9.625 C 23.5625 -8.6875 23.378906 -7.675781 23.015625 -6.59375 C 22.648438 -5.519531 22.117188 -4.476562 21.421875 -3.46875 C 20.734375 -2.46875 19.769531 -1.640625 18.53125 -0.984375 C 17.300781 -0.328125 15.925781 0 14.40625 0 C 10.96875 0 8.535156 -0.863281 7.109375 -2.59375 C 5.691406 -4.332031 4.984375 -7.175781 4.984375 -11.125 Z M 4.984375 -11.125 "/></g></g></g><g fill="#222222" fill-opacity="1"><g transform="translate(32.800568, 150.751306)"><g><path d="M 7.234375 -8.265625 C 7.234375 -8.597656 7.015625 -8.765625 6.578125 -8.765625 C 6.128906 -8.765625 5.742188 -8.515625 5.421875 -8.015625 C 5.097656 -7.515625 4.9375 -6.675781 4.9375 -5.5 C 4.9375 -4.414062 5.117188 -3.625 5.484375 -3.125 C 5.859375 -2.632812 6.296875 -2.390625 6.796875 -2.390625 C 6.960938 -2.390625 7.109375 -2.421875 7.234375 -2.484375 C 7.367188 -2.546875 7.476562 -2.640625 7.5625 -2.765625 C 7.65625 -2.890625 7.703125 -3.046875 7.703125 -3.234375 C 7.441406 -3.234375 7.21875 -3.28125 7.03125 -3.375 C 6.84375 -3.46875 6.707031 -3.585938 6.625 -3.734375 C 6.539062 -3.878906 6.5 -4.035156 6.5 -4.203125 C 6.5 -4.585938 6.597656 -4.875 6.796875 -5.0625 C 7.003906 -5.257812 7.351562 -5.359375 7.84375 -5.359375 L 9.78125 -5.359375 C 10.394531 -5.359375 10.875 -5.222656 11.21875 -4.953125 C 11.5625 -4.691406 11.734375 -4.222656 11.734375 -3.546875 C 11.734375 -2.566406 11.257812 -1.710938 10.3125 -0.984375 C 9.375 -0.253906 8.257812 0.109375 6.96875 0.109375 C 5.789062 0.109375 4.738281 -0.101562 3.8125 -0.53125 C 2.894531 -0.957031 2.164062 -1.59375 1.625 -2.4375 C 1.082031 -3.289062 0.8125 -4.296875 0.8125 -5.453125 C 0.8125 -7.179688 1.332031 -8.546875 2.375 -9.546875 C 3.425781 -10.554688 4.816406 -11.0625 6.546875 -11.0625 C 7.222656 -11.0625 7.832031 -11.007812 8.375 -10.90625 C 8.925781 -10.800781 9.378906 -10.660156 9.734375 -10.484375 C 10.085938 -10.316406 10.382812 -10.113281 10.625 -9.875 C 10.863281 -9.632812 11.035156 -9.378906 11.140625 -9.109375 C 11.242188 -8.847656 11.296875 -8.570312 11.296875 -8.28125 C 11.296875 -8.082031 11.265625 -7.890625 11.203125 -7.703125 C 11.140625 -7.515625 11.023438 -7.328125 10.859375 -7.140625 C 10.691406 -6.953125 10.4375 -6.800781 10.09375 -6.6875 C 9.75 -6.570312 9.335938 -6.515625 8.859375 -6.515625 C 8.160156 -6.515625 7.710938 -6.617188 7.515625 -6.828125 C 7.328125 -7.035156 7.234375 -7.515625 7.234375 -8.265625 Z M 7.234375 -8.265625 "/></g></g></g><g fill="#222222" fill-opacity="1"><g transform="translate(45.312824, 150.751306)"><g><path d="M 4.03125 -4.484375 C 4.769531 -4.492188 5.171875 -4.5 5.234375 -4.5 C 5.390625 -4.5 5.503906 -4.59375 5.578125 -4.78125 C 5.640625 -4.914062 5.671875 -5.109375 5.671875 -5.359375 C 5.671875 -6.035156 5.46875 -6.375 5.0625 -6.375 C 4.90625 -6.375 4.753906 -6.289062 4.609375 -6.125 C 4.472656 -5.96875 4.347656 -5.742188 4.234375 -5.453125 C 4.128906 -5.160156 4.0625 -4.835938 4.03125 -4.484375 Z M 5.125 0.09375 C 3.820312 0.09375 2.742188 -0.238281 1.890625 -0.90625 C 1.046875 -1.582031 0.625 -2.5 0.625 -3.65625 C 0.625 -4.914062 1.039062 -5.910156 1.875 -6.640625 C 2.71875 -7.378906 3.800781 -7.75 5.125 -7.75 C 6.375 -7.75 7.285156 -7.523438 7.859375 -7.078125 C 8.441406 -6.640625 8.734375 -6.035156 8.734375 -5.265625 C 8.734375 -5.117188 8.710938 -4.972656 8.671875 -4.828125 C 8.640625 -4.691406 8.582031 -4.554688 8.5 -4.421875 C 8.425781 -4.285156 8.320312 -4.160156 8.1875 -4.046875 C 8.050781 -3.941406 7.894531 -3.84375 7.71875 -3.75 C 7.550781 -3.65625 7.347656 -3.582031 7.109375 -3.53125 C 6.878906 -3.488281 6.632812 -3.46875 6.375 -3.46875 L 4.109375 -3.453125 C 4.210938 -3.109375 4.40625 -2.835938 4.6875 -2.640625 C 4.96875 -2.453125 5.320312 -2.359375 5.75 -2.359375 C 6.207031 -2.359375 6.675781 -2.414062 7.15625 -2.53125 C 7.351562 -2.582031 7.570312 -2.664062 7.8125 -2.78125 C 8.050781 -2.894531 8.226562 -2.953125 8.34375 -2.953125 C 8.519531 -2.953125 8.65625 -2.898438 8.75 -2.796875 C 8.851562 -2.691406 8.90625 -2.5625 8.90625 -2.40625 C 8.90625 -2.207031 8.820312 -1.972656 8.65625 -1.703125 C 8.488281 -1.429688 8.25 -1.160156 7.9375 -0.890625 C 7.632812 -0.617188 7.234375 -0.382812 6.734375 -0.1875 C 6.234375 0 5.695312 0.09375 5.125 0.09375 Z M 5.125 0.09375 "/></g></g></g><g fill="#222222" fill-opacity="1"><g transform="translate(54.833015, 150.751306)"><g><path d="M 4.484375 -7.75 C 5.472656 -7.75 6.296875 -7.546875 6.953125 -7.140625 C 7.617188 -6.734375 7.953125 -6.289062 7.953125 -5.8125 C 7.953125 -5.664062 7.890625 -5.535156 7.765625 -5.421875 C 7.648438 -5.304688 7.503906 -5.25 7.328125 -5.25 C 7.171875 -5.25 6.992188 -5.300781 6.796875 -5.40625 C 6.609375 -5.519531 6.425781 -5.640625 6.25 -5.765625 C 6.082031 -5.898438 5.859375 -6.019531 5.578125 -6.125 C 5.304688 -6.226562 5.015625 -6.28125 4.703125 -6.28125 C 4.285156 -6.28125 4.078125 -6.15625 4.078125 -5.90625 C 4.078125 -5.71875 4.179688 -5.570312 4.390625 -5.46875 C 4.609375 -5.363281 4.921875 -5.25 5.328125 -5.125 C 5.742188 -5.007812 6.054688 -4.898438 6.265625 -4.796875 C 7.066406 -4.492188 7.617188 -4.160156 7.921875 -3.796875 C 8.222656 -3.441406 8.375 -2.972656 8.375 -2.390625 C 8.375 -2.097656 8.289062 -1.8125 8.125 -1.53125 C 7.96875 -1.25 7.726562 -0.984375 7.40625 -0.734375 C 7.082031 -0.484375 6.644531 -0.28125 6.09375 -0.125 C 5.550781 0.03125 4.925781 0.109375 4.21875 0.109375 C 2.84375 0.109375 1.816406 -0.203125 1.140625 -0.828125 C 0.804688 -1.140625 0.640625 -1.460938 0.640625 -1.796875 C 0.640625 -1.992188 0.707031 -2.148438 0.84375 -2.265625 C 0.976562 -2.390625 1.164062 -2.453125 1.40625 -2.453125 C 1.65625 -2.453125 2.03125 -2.332031 2.53125 -2.09375 C 3.03125 -1.851562 3.492188 -1.734375 3.921875 -1.734375 C 4.503906 -1.734375 4.796875 -1.875 4.796875 -2.15625 C 4.796875 -2.3125 4.640625 -2.429688 4.328125 -2.515625 C 4.023438 -2.609375 3.625 -2.71875 3.125 -2.84375 C 2.625 -2.976562 2.222656 -3.140625 1.921875 -3.328125 C 1.453125 -3.523438 1.125 -3.773438 0.9375 -4.078125 C 0.75 -4.390625 0.65625 -4.765625 0.65625 -5.203125 C 0.65625 -5.941406 1.007812 -6.550781 1.71875 -7.03125 C 2.425781 -7.507812 3.347656 -7.75 4.484375 -7.75 Z M 4.484375 -7.75 "/></g></g></g><g fill="#222222" fill-opacity="1"><g transform="translate(63.825204, 150.751306)"><g><path d="M 1.53125 -3.421875 L 1.53125 -5.3125 C 1.269531 -5.320312 1.054688 -5.363281 0.890625 -5.4375 C 0.734375 -5.519531 0.617188 -5.625 0.546875 -5.75 C 0.484375 -5.882812 0.453125 -6.046875 0.453125 -6.234375 C 0.453125 -6.847656 0.816406 -7.179688 1.546875 -7.234375 L 1.546875 -8.71875 C 1.546875 -9.125 1.835938 -9.488281 2.421875 -9.8125 C 3.015625 -10.132812 3.597656 -10.296875 4.171875 -10.296875 C 4.523438 -10.296875 4.753906 -10.195312 4.859375 -10 C 4.972656 -9.800781 5.03125 -9.5 5.03125 -9.09375 L 5.046875 -7.25 L 5.46875 -7.25 C 6.0625 -7.25 6.46875 -7.171875 6.6875 -7.015625 C 6.90625 -6.859375 7.015625 -6.578125 7.015625 -6.171875 C 7.015625 -6.003906 6.976562 -5.859375 6.90625 -5.734375 C 6.84375 -5.617188 6.738281 -5.53125 6.59375 -5.46875 C 6.457031 -5.40625 6.285156 -5.359375 6.078125 -5.328125 C 5.878906 -5.304688 5.628906 -5.296875 5.328125 -5.296875 L 5.046875 -5.296875 L 5.046875 -3.53125 C 5.046875 -3.363281 5.050781 -3.222656 5.0625 -3.109375 C 5.082031 -2.992188 5.109375 -2.90625 5.140625 -2.84375 C 5.171875 -2.78125 5.210938 -2.738281 5.265625 -2.71875 C 5.328125 -2.695312 5.398438 -2.6875 5.484375 -2.6875 C 5.617188 -2.6875 5.726562 -2.726562 5.8125 -2.8125 C 5.894531 -2.90625 5.957031 -3.007812 6 -3.125 C 6.050781 -3.238281 6.113281 -3.335938 6.1875 -3.421875 C 6.269531 -3.515625 6.367188 -3.5625 6.484375 -3.5625 C 6.722656 -3.5625 6.910156 -3.503906 7.046875 -3.390625 C 7.179688 -3.273438 7.25 -3.128906 7.25 -2.953125 C 7.25 -2.671875 7.191406 -2.363281 7.078125 -2.03125 C 6.960938 -1.695312 6.796875 -1.375 6.578125 -1.0625 C 6.367188 -0.757812 6.078125 -0.503906 5.703125 -0.296875 C 5.328125 -0.0976562 4.90625 0 4.4375 0 C 3.375 0 2.625 -0.265625 2.1875 -0.796875 C 1.75 -1.328125 1.53125 -2.203125 1.53125 -3.421875 Z M 1.53125 -3.421875 "/></g></g></g><g fill="#222222" fill-opacity="1"><g transform="translate(71.841366, 150.751306)"><g><path d="M 4.15625 -1.71875 C 4.15625 -1.070312 4.019531 -0.625 3.75 -0.375 C 3.488281 -0.125 3.023438 0 2.359375 0 C 1.722656 0 1.289062 -0.144531 1.0625 -0.4375 C 0.832031 -0.726562 0.71875 -1.210938 0.71875 -1.890625 L 0.71875 -5.828125 C 0.71875 -6.367188 0.863281 -6.800781 1.15625 -7.125 C 1.445312 -7.457031 1.84375 -7.625 2.34375 -7.625 C 2.914062 -7.625 3.359375 -7.5 3.671875 -7.25 C 3.992188 -7 4.15625 -6.539062 4.15625 -5.875 Z M 0.6875 -9.859375 C 0.6875 -9.429688 0.851562 -9.117188 1.1875 -8.921875 C 1.519531 -8.734375 1.9375 -8.640625 2.4375 -8.640625 C 3 -8.640625 3.425781 -8.726562 3.71875 -8.90625 C 4.019531 -9.09375 4.171875 -9.410156 4.171875 -9.859375 C 4.171875 -10.671875 3.59375 -11.078125 2.4375 -11.078125 C 1.875 -11.078125 1.441406 -10.960938 1.140625 -10.734375 C 0.835938 -10.515625 0.6875 -10.222656 0.6875 -9.859375 Z M 0.6875 -9.859375 "/></g></g></g><g fill="#222222" fill-opacity="1"><g transform="translate(76.721458, 150.751306)"><g><path d="M 6.375 -12.046875 C 6.613281 -12.191406 6.867188 -12.265625 7.140625 -12.265625 C 7.515625 -12.265625 7.816406 -12.097656 8.046875 -11.765625 C 8.273438 -11.429688 8.390625 -11.078125 8.390625 -10.703125 C 8.390625 -10.171875 8.0625 -9.773438 7.40625 -9.515625 L 5.453125 -8.875 C 5.179688 -8.78125 4.929688 -8.734375 4.703125 -8.734375 C 4.492188 -8.734375 4.304688 -8.773438 4.140625 -8.859375 C 3.972656 -8.953125 3.847656 -9.066406 3.765625 -9.203125 C 3.679688 -9.347656 3.640625 -9.515625 3.640625 -9.703125 C 3.640625 -10.085938 3.851562 -10.425781 4.28125 -10.71875 C 4.28125 -10.71875 4.363281 -10.78125 4.53125 -10.90625 Z M 5.078125 0.109375 C 4.242188 0.109375 3.492188 -0.0351562 2.828125 -0.328125 C 2.160156 -0.628906 1.625 -1.078125 1.21875 -1.671875 C 0.820312 -2.273438 0.625 -2.976562 0.625 -3.78125 C 0.625 -4.988281 1.039062 -5.953125 1.875 -6.671875 C 2.707031 -7.390625 3.773438 -7.75 5.078125 -7.75 C 6.378906 -7.75 7.4375 -7.390625 8.25 -6.671875 C 9.070312 -5.953125 9.484375 -4.988281 9.484375 -3.78125 C 9.484375 -2.570312 9.0625 -1.617188 8.21875 -0.921875 C 7.382812 -0.234375 6.335938 0.109375 5.078125 0.109375 Z M 5.90625 -3.796875 C 5.90625 -4.347656 5.832031 -4.832031 5.6875 -5.25 C 5.550781 -5.675781 5.351562 -5.890625 5.09375 -5.890625 C 4.90625 -5.890625 4.742188 -5.78125 4.609375 -5.5625 C 4.472656 -5.351562 4.367188 -5.09375 4.296875 -4.78125 C 4.234375 -4.46875 4.203125 -4.140625 4.203125 -3.796875 C 4.203125 -3.242188 4.273438 -2.765625 4.421875 -2.359375 C 4.578125 -1.953125 4.789062 -1.75 5.0625 -1.75 C 5.34375 -1.75 5.550781 -1.945312 5.6875 -2.34375 C 5.832031 -2.75 5.90625 -3.234375 5.90625 -3.796875 Z M 5.90625 -3.796875 "/></g></g></g><g fill="#222222" fill-opacity="1"><g transform="translate(86.817666, 150.751306)"><g><path d="M 5.640625 -4.296875 C 5.640625 -4.898438 5.40625 -5.203125 4.9375 -5.203125 C 4.71875 -5.203125 4.535156 -5.109375 4.390625 -4.921875 C 4.242188 -4.734375 4.160156 -4.484375 4.140625 -4.171875 L 4.140625 -1.71875 C 4.140625 -1.0625 4.003906 -0.609375 3.734375 -0.359375 C 3.472656 -0.117188 3.007812 0 2.34375 0 C 1.707031 0 1.273438 -0.144531 1.046875 -0.4375 C 0.816406 -0.726562 0.703125 -1.210938 0.703125 -1.890625 L 0.703125 -5.828125 C 0.703125 -6.367188 0.847656 -6.800781 1.140625 -7.125 C 1.429688 -7.457031 1.820312 -7.625 2.3125 -7.625 C 2.71875 -7.625 3.0625 -7.566406 3.34375 -7.453125 C 3.625 -7.335938 3.832031 -7.132812 3.96875 -6.84375 C 4.800781 -7.382812 5.816406 -7.65625 7.015625 -7.65625 C 7.765625 -7.65625 8.304688 -7.359375 8.640625 -6.765625 C 8.984375 -6.171875 9.15625 -5.191406 9.15625 -3.828125 C 9.15625 -3.148438 9.140625 -2.597656 9.109375 -2.171875 C 9.078125 -1.753906 9.023438 -1.394531 8.953125 -1.09375 C 8.878906 -0.789062 8.769531 -0.5625 8.625 -0.40625 C 8.476562 -0.257812 8.304688 -0.15625 8.109375 -0.09375 C 7.910156 -0.03125 7.65625 0 7.34375 0 C 6.75 0 6.316406 -0.109375 6.046875 -0.328125 C 5.785156 -0.554688 5.65625 -0.890625 5.65625 -1.328125 Z M 5.640625 -4.296875 "/></g></g></g><g fill="#222222" fill-opacity="1"><g transform="translate(96.673881, 150.751306)"><g/></g></g><g fill="#222222" fill-opacity="1"><g transform="translate(100.993968, 150.751306)"><g><path d="M 9.03125 -4.515625 C 9.03125 -2.691406 8.972656 -1.414062 8.859375 -0.6875 C 8.773438 -0.0390625 8.640625 0.519531 8.453125 1 C 8.273438 1.476562 8.019531 1.898438 7.6875 2.265625 C 7.363281 2.628906 6.941406 2.898438 6.421875 3.078125 C 5.910156 3.265625 5.304688 3.359375 4.609375 3.359375 C 4.046875 3.359375 3.519531 3.273438 3.03125 3.109375 C 2.539062 2.941406 2.15625 2.738281 1.875 2.5 C 1.59375 2.257812 1.367188 2.019531 1.203125 1.78125 C 1.046875 1.550781 0.96875 1.347656 0.96875 1.171875 C 0.96875 1.003906 1.023438 0.847656 1.140625 0.703125 C 1.253906 0.566406 1.40625 0.5 1.59375 0.5 C 1.738281 0.5 1.90625 0.539062 2.09375 0.625 C 2.28125 0.707031 2.457031 0.800781 2.625 0.90625 C 2.789062 1.019531 2.988281 1.117188 3.21875 1.203125 C 3.457031 1.285156 3.691406 1.328125 3.921875 1.328125 C 4.492188 1.328125 4.898438 1.179688 5.140625 0.890625 C 5.378906 0.609375 5.5 0.195312 5.5 -0.34375 C 5.320312 -0.257812 5.144531 -0.191406 4.96875 -0.140625 C 4.800781 -0.0859375 4.632812 -0.046875 4.46875 -0.015625 C 4.3125 0.015625 4.160156 0.0351562 4.015625 0.046875 C 3.878906 0.0546875 3.738281 0.0625 3.59375 0.0625 C 2.96875 0.0625 2.429688 -0.109375 1.984375 -0.453125 C 1.535156 -0.804688 1.210938 -1.242188 1.015625 -1.765625 C 0.816406 -2.285156 0.71875 -2.84375 0.71875 -3.4375 C 0.71875 -4.039062 0.722656 -4.546875 0.734375 -4.953125 C 0.753906 -5.367188 0.789062 -5.738281 0.84375 -6.0625 C 0.894531 -6.394531 0.957031 -6.65625 1.03125 -6.84375 C 1.101562 -7.039062 1.203125 -7.195312 1.328125 -7.3125 C 1.453125 -7.4375 1.59375 -7.519531 1.75 -7.5625 C 1.914062 -7.601562 2.113281 -7.625 2.34375 -7.625 C 3.007812 -7.625 3.476562 -7.507812 3.75 -7.28125 C 4.019531 -7.050781 4.15625 -6.691406 4.15625 -6.203125 L 4.171875 -3.625 C 4.171875 -3.457031 4.171875 -3.332031 4.171875 -3.25 C 4.171875 -3.175781 4.175781 -3.078125 4.1875 -2.953125 C 4.207031 -2.835938 4.226562 -2.753906 4.25 -2.703125 C 4.28125 -2.648438 4.320312 -2.59375 4.375 -2.53125 C 4.425781 -2.476562 4.488281 -2.441406 4.5625 -2.421875 C 4.644531 -2.398438 4.742188 -2.390625 4.859375 -2.390625 C 5.179688 -2.390625 5.378906 -2.472656 5.453125 -2.640625 C 5.535156 -2.816406 5.578125 -3.140625 5.578125 -3.609375 L 5.59375 -6.203125 C 5.59375 -6.535156 5.648438 -6.800781 5.765625 -7 C 5.878906 -7.207031 6.066406 -7.363281 6.328125 -7.46875 C 6.597656 -7.570312 6.960938 -7.625 7.421875 -7.625 C 7.703125 -7.625 7.941406 -7.578125 8.140625 -7.484375 C 8.335938 -7.398438 8.492188 -7.285156 8.609375 -7.140625 C 8.722656 -6.992188 8.804688 -6.78125 8.859375 -6.5 C 8.921875 -6.21875 8.960938 -5.929688 8.984375 -5.640625 C 9.015625 -5.359375 9.03125 -4.984375 9.03125 -4.515625 Z M 9.03125 -4.515625 "/></g></g></g><g fill="#222222" fill-opacity="1"><g transform="translate(110.706178, 150.751306)"><g/></g></g><g fill="#222222" fill-opacity="1"><g transform="translate(115.026264, 150.751306)"><g><path d="M 7.5625 -7.953125 C 7.5625 -8.171875 7.46875 -8.359375 7.28125 -8.515625 C 7.101562 -8.679688 6.882812 -8.765625 6.625 -8.765625 C 6.113281 -8.765625 5.691406 -8.472656 5.359375 -7.890625 C 5.023438 -7.316406 4.859375 -6.660156 4.859375 -5.921875 C 4.859375 -5.359375 4.960938 -4.847656 5.171875 -4.390625 C 5.390625 -3.941406 5.703125 -3.582031 6.109375 -3.3125 C 6.515625 -3.039062 6.984375 -2.90625 7.515625 -2.90625 C 7.910156 -2.90625 8.289062 -2.984375 8.65625 -3.140625 C 9.019531 -3.296875 9.3125 -3.46875 9.53125 -3.65625 C 9.757812 -3.84375 9.992188 -4.015625 10.234375 -4.171875 C 10.472656 -4.328125 10.679688 -4.40625 10.859375 -4.40625 C 11.097656 -4.40625 11.300781 -4.3125 11.46875 -4.125 C 11.644531 -3.9375 11.734375 -3.738281 11.734375 -3.53125 C 11.734375 -3.3125 11.664062 -3.050781 11.53125 -2.75 C 11.394531 -2.445312 11.179688 -2.128906 10.890625 -1.796875 C 10.609375 -1.460938 10.273438 -1.15625 9.890625 -0.875 C 9.503906 -0.59375 9.023438 -0.359375 8.453125 -0.171875 C 7.878906 0.015625 7.28125 0.109375 6.65625 0.109375 C 5.820312 0.109375 5.050781 -0.015625 4.34375 -0.265625 C 3.632812 -0.515625 3.019531 -0.867188 2.5 -1.328125 C 1.976562 -1.796875 1.566406 -2.378906 1.265625 -3.078125 C 0.960938 -3.785156 0.8125 -4.578125 0.8125 -5.453125 C 0.8125 -7.179688 1.328125 -8.546875 2.359375 -9.546875 C 3.398438 -10.554688 4.757812 -11.0625 6.4375 -11.0625 C 7.289062 -11.0625 8.078125 -10.914062 8.796875 -10.625 C 9.523438 -10.332031 10.101562 -9.929688 10.53125 -9.421875 C 10.957031 -8.910156 11.171875 -8.351562 11.171875 -7.75 C 11.171875 -7.039062 10.9375 -6.398438 10.46875 -5.828125 C 10 -5.253906 9.390625 -4.96875 8.640625 -4.96875 C 8.210938 -4.96875 7.828125 -5.085938 7.484375 -5.328125 C 7.140625 -5.566406 6.96875 -5.90625 6.96875 -6.34375 C 6.96875 -6.539062 7.066406 -6.820312 7.265625 -7.1875 C 7.460938 -7.550781 7.5625 -7.804688 7.5625 -7.953125 Z M 7.5625 -7.953125 "/></g></g></g><g fill="#222222" fill-opacity="1"><g transform="translate(127.554533, 150.751306)"><g><path d="M 5.078125 0.109375 C 4.242188 0.109375 3.492188 -0.0351562 2.828125 -0.328125 C 2.160156 -0.628906 1.625 -1.078125 1.21875 -1.671875 C 0.820312 -2.273438 0.625 -2.976562 0.625 -3.78125 C 0.625 -4.988281 1.039062 -5.953125 1.875 -6.671875 C 2.707031 -7.390625 3.773438 -7.75 5.078125 -7.75 C 6.378906 -7.75 7.4375 -7.390625 8.25 -6.671875 C 9.070312 -5.953125 9.484375 -4.988281 9.484375 -3.78125 C 9.484375 -2.570312 9.0625 -1.617188 8.21875 -0.921875 C 7.382812 -0.234375 6.335938 0.109375 5.078125 0.109375 Z M 5.90625 -3.796875 C 5.90625 -4.347656 5.832031 -4.832031 5.6875 -5.25 C 5.550781 -5.675781 5.351562 -5.890625 5.09375 -5.890625 C 4.90625 -5.890625 4.742188 -5.78125 4.609375 -5.5625 C 4.472656 -5.351562 4.367188 -5.09375 4.296875 -4.78125 C 4.234375 -4.46875 4.203125 -4.140625 4.203125 -3.796875 C 4.203125 -3.242188 4.273438 -2.765625 4.421875 -2.359375 C 4.578125 -1.953125 4.789062 -1.75 5.0625 -1.75 C 5.34375 -1.75 5.550781 -1.945312 5.6875 -2.34375 C 5.832031 -2.75 5.90625 -3.234375 5.90625 -3.796875 Z M 5.90625 -3.796875 "/></g></g></g><g fill="#222222" fill-opacity="1"><g transform="translate(137.650741, 150.751306)"><g><path d="M 5.640625 -4.296875 C 5.640625 -4.898438 5.40625 -5.203125 4.9375 -5.203125 C 4.71875 -5.203125 4.535156 -5.109375 4.390625 -4.921875 C 4.242188 -4.734375 4.160156 -4.484375 4.140625 -4.171875 L 4.140625 -1.71875 C 4.140625 -1.0625 4.003906 -0.609375 3.734375 -0.359375 C 3.472656 -0.117188 3.007812 0 2.34375 0 C 1.707031 0 1.273438 -0.144531 1.046875 -0.4375 C 0.816406 -0.726562 0.703125 -1.210938 0.703125 -1.890625 L 0.703125 -5.828125 C 0.703125 -6.367188 0.847656 -6.800781 1.140625 -7.125 C 1.429688 -7.457031 1.820312 -7.625 2.3125 -7.625 C 2.71875 -7.625 3.0625 -7.566406 3.34375 -7.453125 C 3.625 -7.335938 3.832031 -7.132812 3.96875 -6.84375 C 4.800781 -7.382812 5.816406 -7.65625 7.015625 -7.65625 C 7.765625 -7.65625 8.304688 -7.359375 8.640625 -6.765625 C 8.984375 -6.171875 9.15625 -5.191406 9.15625 -3.828125 C 9.15625 -3.148438 9.140625 -2.597656 9.109375 -2.171875 C 9.078125 -1.753906 9.023438 -1.394531 8.953125 -1.09375 C 8.878906 -0.789062 8.769531 -0.5625 8.625 -0.40625 C 8.476562 -0.257812 8.304688 -0.15625 8.109375 -0.09375 C 7.910156 -0.03125 7.65625 0 7.34375 0 C 6.75 0 6.316406 -0.109375 6.046875 -0.328125 C 5.785156 -0.554688 5.65625 -0.890625 5.65625 -1.328125 Z M 5.640625 -4.296875 "/></g></g></g><g fill="#222222" fill-opacity="1"><g transform="translate(147.506955, 150.751306)"><g><path d="M 1.53125 -3.421875 L 1.53125 -5.3125 C 1.269531 -5.320312 1.054688 -5.363281 0.890625 -5.4375 C 0.734375 -5.519531 0.617188 -5.625 0.546875 -5.75 C 0.484375 -5.882812 0.453125 -6.046875 0.453125 -6.234375 C 0.453125 -6.847656 0.816406 -7.179688 1.546875 -7.234375 L 1.546875 -8.71875 C 1.546875 -9.125 1.835938 -9.488281 2.421875 -9.8125 C 3.015625 -10.132812 3.597656 -10.296875 4.171875 -10.296875 C 4.523438 -10.296875 4.753906 -10.195312 4.859375 -10 C 4.972656 -9.800781 5.03125 -9.5 5.03125 -9.09375 L 5.046875 -7.25 L 5.46875 -7.25 C 6.0625 -7.25 6.46875 -7.171875 6.6875 -7.015625 C 6.90625 -6.859375 7.015625 -6.578125 7.015625 -6.171875 C 7.015625 -6.003906 6.976562 -5.859375 6.90625 -5.734375 C 6.84375 -5.617188 6.738281 -5.53125 6.59375 -5.46875 C 6.457031 -5.40625 6.285156 -5.359375 6.078125 -5.328125 C 5.878906 -5.304688 5.628906 -5.296875 5.328125 -5.296875 L 5.046875 -5.296875 L 5.046875 -3.53125 C 5.046875 -3.363281 5.050781 -3.222656 5.0625 -3.109375 C 5.082031 -2.992188 5.109375 -2.90625 5.140625 -2.84375 C 5.171875 -2.78125 5.210938 -2.738281 5.265625 -2.71875 C 5.328125 -2.695312 5.398438 -2.6875 5.484375 -2.6875 C 5.617188 -2.6875 5.726562 -2.726562 5.8125 -2.8125 C 5.894531 -2.90625 5.957031 -3.007812 6 -3.125 C 6.050781 -3.238281 6.113281 -3.335938 6.1875 -3.421875 C 6.269531 -3.515625 6.367188 -3.5625 6.484375 -3.5625 C 6.722656 -3.5625 6.910156 -3.503906 7.046875 -3.390625 C 7.179688 -3.273438 7.25 -3.128906 7.25 -2.953125 C 7.25 -2.671875 7.191406 -2.363281 7.078125 -2.03125 C 6.960938 -1.695312 6.796875 -1.375 6.578125 -1.0625 C 6.367188 -0.757812 6.078125 -0.503906 5.703125 -0.296875 C 5.328125 -0.0976562 4.90625 0 4.4375 0 C 3.375 0 2.625 -0.265625 2.1875 -0.796875 C 1.75 -1.328125 1.53125 -2.203125 1.53125 -3.421875 Z M 1.53125 -3.421875 "/></g></g></g><g fill="#222222" fill-opacity="1"><g transform="translate(155.523117, 150.751306)"><g><path d="M 4.15625 -1.71875 C 4.15625 -1.070312 4.019531 -0.625 3.75 -0.375 C 3.488281 -0.125 3.019531 0 2.34375 0 C 1.707031 0 1.273438 -0.144531 1.046875 -0.4375 C 0.828125 -0.726562 0.71875 -1.210938 0.71875 -1.890625 L 0.71875 -5.828125 C 0.71875 -6.191406 0.78125 -6.507812 0.90625 -6.78125 C 1.039062 -7.050781 1.226562 -7.257812 1.46875 -7.40625 C 1.71875 -7.550781 2.007812 -7.625 2.34375 -7.625 C 3.144531 -7.625 3.675781 -7.390625 3.9375 -6.921875 C 4.550781 -7.390625 5.148438 -7.625 5.734375 -7.625 C 6.847656 -7.625 7.40625 -7.09375 7.40625 -6.03125 C 7.40625 -5.601562 7.28125 -5.253906 7.03125 -4.984375 C 6.789062 -4.722656 6.472656 -4.59375 6.078125 -4.59375 C 5.847656 -4.59375 5.660156 -4.640625 5.515625 -4.734375 C 5.367188 -4.828125 5.234375 -4.921875 5.109375 -5.015625 C 4.984375 -5.117188 4.84375 -5.171875 4.6875 -5.171875 C 4.457031 -5.171875 4.28125 -5.085938 4.15625 -4.921875 Z M 4.15625 -1.71875 "/></g></g></g><g fill="#222222" fill-opacity="1"><g transform="translate(163.075284, 150.751306)"><g><path d="M 5.078125 0.109375 C 4.242188 0.109375 3.492188 -0.0351562 2.828125 -0.328125 C 2.160156 -0.628906 1.625 -1.078125 1.21875 -1.671875 C 0.820312 -2.273438 0.625 -2.976562 0.625 -3.78125 C 0.625 -4.988281 1.039062 -5.953125 1.875 -6.671875 C 2.707031 -7.390625 3.773438 -7.75 5.078125 -7.75 C 6.378906 -7.75 7.4375 -7.390625 8.25 -6.671875 C 9.070312 -5.953125 9.484375 -4.988281 9.484375 -3.78125 C 9.484375 -2.570312 9.0625 -1.617188 8.21875 -0.921875 C 7.382812 -0.234375 6.335938 0.109375 5.078125 0.109375 Z M 5.90625 -3.796875 C 5.90625 -4.347656 5.832031 -4.832031 5.6875 -5.25 C 5.550781 -5.675781 5.351562 -5.890625 5.09375 -5.890625 C 4.90625 -5.890625 4.742188 -5.78125 4.609375 -5.5625 C 4.472656 -5.351562 4.367188 -5.09375 4.296875 -4.78125 C 4.234375 -4.46875 4.203125 -4.140625 4.203125 -3.796875 C 4.203125 -3.242188 4.273438 -2.765625 4.421875 -2.359375 C 4.578125 -1.953125 4.789062 -1.75 5.0625 -1.75 C 5.34375 -1.75 5.550781 -1.945312 5.6875 -2.34375 C 5.832031 -2.75 5.90625 -3.234375 5.90625 -3.796875 Z M 5.90625 -3.796875 "/></g></g></g><g fill="#222222" fill-opacity="1"><g transform="translate(173.171491, 150.751306)"><g><path d="M 4.234375 -2.421875 C 4.234375 -1.554688 4.085938 -0.9375 3.796875 -0.5625 C 3.515625 -0.1875 3.078125 0 2.484375 0 C 1.878906 0 1.4375 -0.164062 1.15625 -0.5 C 0.882812 -0.84375 0.75 -1.4375 0.75 -2.28125 L 0.71875 -9.046875 C 0.71875 -9.316406 0.742188 -9.554688 0.796875 -9.765625 C 0.859375 -9.984375 0.941406 -10.164062 1.046875 -10.3125 C 1.148438 -10.46875 1.273438 -10.59375 1.421875 -10.6875 C 1.566406 -10.78125 1.726562 -10.847656 1.90625 -10.890625 C 2.082031 -10.929688 2.273438 -10.953125 2.484375 -10.953125 C 3.066406 -10.953125 3.503906 -10.832031 3.796875 -10.59375 C 4.085938 -10.363281 4.234375 -9.894531 4.234375 -9.1875 Z M 4.234375 -2.421875 "/></g></g></g><g fill="#222222" fill-opacity="1"><g transform="translate(178.163605, 150.751306)"><g/></g></g><g fill="#222222" fill-opacity="1"><g transform="translate(182.483692, 150.751306)"><g><path d="M 5.765625 -2.296875 L 5.75 -5.296875 C 5.5625 -5.597656 5.328125 -5.75 5.046875 -5.75 C 4.859375 -5.75 4.691406 -5.644531 4.546875 -5.4375 C 4.410156 -5.238281 4.300781 -4.988281 4.21875 -4.6875 C 4.144531 -4.382812 4.109375 -4.070312 4.109375 -3.75 C 4.109375 -3.257812 4.1875 -2.820312 4.34375 -2.4375 C 4.507812 -2.050781 4.738281 -1.859375 5.03125 -1.859375 C 5.082031 -1.859375 5.132812 -1.863281 5.1875 -1.875 C 5.238281 -1.882812 5.285156 -1.894531 5.328125 -1.90625 C 5.367188 -1.925781 5.410156 -1.945312 5.453125 -1.96875 C 5.492188 -2 5.53125 -2.03125 5.5625 -2.0625 C 5.59375 -2.09375 5.625 -2.128906 5.65625 -2.171875 C 5.695312 -2.210938 5.734375 -2.253906 5.765625 -2.296875 Z M 9.25 -2.40625 C 9.25 -1.539062 9.101562 -0.921875 8.8125 -0.546875 C 8.53125 -0.179688 8.085938 0 7.484375 0 C 6.804688 0 6.335938 -0.210938 6.078125 -0.640625 C 5.390625 -0.140625 4.550781 0.109375 3.5625 0.109375 C 2.738281 0.109375 2.046875 -0.234375 1.484375 -0.921875 C 0.929688 -1.609375 0.65625 -2.550781 0.65625 -3.75 C 0.65625 -4.957031 0.925781 -5.921875 1.46875 -6.640625 C 2.007812 -7.367188 2.707031 -7.734375 3.5625 -7.734375 C 4.332031 -7.734375 5.054688 -7.484375 5.734375 -6.984375 L 5.734375 -9.046875 C 5.734375 -9.691406 5.890625 -10.171875 6.203125 -10.484375 C 6.523438 -10.796875 6.953125 -10.953125 7.484375 -10.953125 C 8.078125 -10.953125 8.519531 -10.832031 8.8125 -10.59375 C 9.101562 -10.363281 9.25 -9.894531 9.25 -9.1875 Z M 9.25 -2.40625 "/></g></g></g><g fill="#222222" fill-opacity="1"><g transform="translate(192.48389, 150.751306)"><g><path d="M 4.03125 -4.484375 C 4.769531 -4.492188 5.171875 -4.5 5.234375 -4.5 C 5.390625 -4.5 5.503906 -4.59375 5.578125 -4.78125 C 5.640625 -4.914062 5.671875 -5.109375 5.671875 -5.359375 C 5.671875 -6.035156 5.46875 -6.375 5.0625 -6.375 C 4.90625 -6.375 4.753906 -6.289062 4.609375 -6.125 C 4.472656 -5.96875 4.347656 -5.742188 4.234375 -5.453125 C 4.128906 -5.160156 4.0625 -4.835938 4.03125 -4.484375 Z M 5.125 0.09375 C 3.820312 0.09375 2.742188 -0.238281 1.890625 -0.90625 C 1.046875 -1.582031 0.625 -2.5 0.625 -3.65625 C 0.625 -4.914062 1.039062 -5.910156 1.875 -6.640625 C 2.71875 -7.378906 3.800781 -7.75 5.125 -7.75 C 6.375 -7.75 7.285156 -7.523438 7.859375 -7.078125 C 8.441406 -6.640625 8.734375 -6.035156 8.734375 -5.265625 C 8.734375 -5.117188 8.710938 -4.972656 8.671875 -4.828125 C 8.640625 -4.691406 8.582031 -4.554688 8.5 -4.421875 C 8.425781 -4.285156 8.320312 -4.160156 8.1875 -4.046875 C 8.050781 -3.941406 7.894531 -3.84375 7.71875 -3.75 C 7.550781 -3.65625 7.347656 -3.582031 7.109375 -3.53125 C 6.878906 -3.488281 6.632812 -3.46875 6.375 -3.46875 L 4.109375 -3.453125 C 4.210938 -3.109375 4.40625 -2.835938 4.6875 -2.640625 C 4.96875 -2.453125 5.320312 -2.359375 5.75 -2.359375 C 6.207031 -2.359375 6.675781 -2.414062 7.15625 -2.53125 C 7.351562 -2.582031 7.570312 -2.664062 7.8125 -2.78125 C 8.050781 -2.894531 8.226562 -2.953125 8.34375 -2.953125 C 8.519531 -2.953125 8.65625 -2.898438 8.75 -2.796875 C 8.851562 -2.691406 8.90625 -2.5625 8.90625 -2.40625 C 8.90625 -2.207031 8.820312 -1.972656 8.65625 -1.703125 C 8.488281 -1.429688 8.25 -1.160156 7.9375 -0.890625 C 7.632812 -0.617188 7.234375 -0.382812 6.734375 -0.1875 C 6.234375 0 5.695312 0.09375 5.125 0.09375 Z M 5.125 0.09375 "/></g></g></g><g fill="#222222" fill-opacity="1"><g transform="translate(202.004081, 150.751306)"><g/></g></g><g fill="#222222" fill-opacity="1"><g transform="translate(206.324168, 150.751306)"><g><path d="M 11.5625 -2.40625 C 11.5625 -1.539062 11.40625 -0.921875 11.09375 -0.546875 C 10.789062 -0.179688 10.328125 0 9.703125 0 C 9.078125 0 8.617188 -0.164062 8.328125 -0.5 C 8.046875 -0.84375 7.90625 -1.4375 7.90625 -2.28125 L 7.890625 -4.09375 L 4.625 -4.09375 L 4.625 -2.40625 C 4.625 -1.53125 4.472656 -0.910156 4.171875 -0.546875 C 3.878906 -0.179688 3.40625 0 2.75 0 C 2.132812 0 1.679688 -0.164062 1.390625 -0.5 C 1.097656 -0.84375 0.953125 -1.4375 0.953125 -2.28125 L 0.90625 -9.046875 C 0.90625 -9.703125 1.070312 -10.179688 1.40625 -10.484375 C 1.75 -10.796875 2.195312 -10.953125 2.75 -10.953125 C 3.394531 -10.953125 3.867188 -10.832031 4.171875 -10.59375 C 4.472656 -10.363281 4.625 -9.894531 4.625 -9.1875 L 4.625 -6.5 L 7.875 -6.5 L 7.875 -9.046875 C 7.875 -9.492188 7.957031 -9.863281 8.125 -10.15625 C 8.289062 -10.445312 8.503906 -10.648438 8.765625 -10.765625 C 9.023438 -10.890625 9.335938 -10.953125 9.703125 -10.953125 C 10.316406 -10.953125 10.78125 -10.832031 11.09375 -10.59375 C 11.40625 -10.363281 11.5625 -9.894531 11.5625 -9.1875 Z M 11.5625 -2.40625 "/></g></g></g><g fill="#222222" fill-opacity="1"><g transform="translate(218.804421, 150.751306)"><g><path d="M 4.15625 -1.71875 C 4.15625 -1.070312 4.019531 -0.625 3.75 -0.375 C 3.488281 -0.125 3.023438 0 2.359375 0 C 1.722656 0 1.289062 -0.144531 1.0625 -0.4375 C 0.832031 -0.726562 0.71875 -1.210938 0.71875 -1.890625 L 0.71875 -5.828125 C 0.71875 -6.367188 0.863281 -6.800781 1.15625 -7.125 C 1.445312 -7.457031 1.84375 -7.625 2.34375 -7.625 C 2.914062 -7.625 3.359375 -7.5 3.671875 -7.25 C 3.992188 -7 4.15625 -6.539062 4.15625 -5.875 Z M 0.6875 -9.859375 C 0.6875 -9.429688 0.851562 -9.117188 1.1875 -8.921875 C 1.519531 -8.734375 1.9375 -8.640625 2.4375 -8.640625 C 3 -8.640625 3.425781 -8.726562 3.71875 -8.90625 C 4.019531 -9.09375 4.171875 -9.410156 4.171875 -9.859375 C 4.171875 -10.671875 3.59375 -11.078125 2.4375 -11.078125 C 1.875 -11.078125 1.441406 -10.960938 1.140625 -10.734375 C 0.835938 -10.515625 0.6875 -10.222656 0.6875 -9.859375 Z M 0.6875 -9.859375 "/></g></g></g><g fill="#222222" fill-opacity="1"><g transform="translate(223.684513, 150.751306)"><g><path d="M 4.484375 -7.75 C 5.472656 -7.75 6.296875 -7.546875 6.953125 -7.140625 C 7.617188 -6.734375 7.953125 -6.289062 7.953125 -5.8125 C 7.953125 -5.664062 7.890625 -5.535156 7.765625 -5.421875 C 7.648438 -5.304688 7.503906 -5.25 7.328125 -5.25 C 7.171875 -5.25 6.992188 -5.300781 6.796875 -5.40625 C 6.609375 -5.519531 6.425781 -5.640625 6.25 -5.765625 C 6.082031 -5.898438 5.859375 -6.019531 5.578125 -6.125 C 5.304688 -6.226562 5.015625 -6.28125 4.703125 -6.28125 C 4.285156 -6.28125 4.078125 -6.15625 4.078125 -5.90625 C 4.078125 -5.71875 4.179688 -5.570312 4.390625 -5.46875 C 4.609375 -5.363281 4.921875 -5.25 5.328125 -5.125 C 5.742188 -5.007812 6.054688 -4.898438 6.265625 -4.796875 C 7.066406 -4.492188 7.617188 -4.160156 7.921875 -3.796875 C 8.222656 -3.441406 8.375 -2.972656 8.375 -2.390625 C 8.375 -2.097656 8.289062 -1.8125 8.125 -1.53125 C 7.96875 -1.25 7.726562 -0.984375 7.40625 -0.734375 C 7.082031 -0.484375 6.644531 -0.28125 6.09375 -0.125 C 5.550781 0.03125 4.925781 0.109375 4.21875 0.109375 C 2.84375 0.109375 1.816406 -0.203125 1.140625 -0.828125 C 0.804688 -1.140625 0.640625 -1.460938 0.640625 -1.796875 C 0.640625 -1.992188 0.707031 -2.148438 0.84375 -2.265625 C 0.976562 -2.390625 1.164062 -2.453125 1.40625 -2.453125 C 1.65625 -2.453125 2.03125 -2.332031 2.53125 -2.09375 C 3.03125 -1.851562 3.492188 -1.734375 3.921875 -1.734375 C 4.503906 -1.734375 4.796875 -1.875 4.796875 -2.15625 C 4.796875 -2.3125 4.640625 -2.429688 4.328125 -2.515625 C 4.023438 -2.609375 3.625 -2.71875 3.125 -2.84375 C 2.625 -2.976562 2.222656 -3.140625 1.921875 -3.328125 C 1.453125 -3.523438 1.125 -3.773438 0.9375 -4.078125 C 0.75 -4.390625 0.65625 -4.765625 0.65625 -5.203125 C 0.65625 -5.941406 1.007812 -6.550781 1.71875 -7.03125 C 2.425781 -7.507812 3.347656 -7.75 4.484375 -7.75 Z M 4.484375 -7.75 "/></g></g></g><g fill="#222222" fill-opacity="1"><g transform="translate(232.676702, 150.751306)"><g><path d="M 1.53125 -3.421875 L 1.53125 -5.3125 C 1.269531 -5.320312 1.054688 -5.363281 0.890625 -5.4375 C 0.734375 -5.519531 0.617188 -5.625 0.546875 -5.75 C 0.484375 -5.882812 0.453125 -6.046875 0.453125 -6.234375 C 0.453125 -6.847656 0.816406 -7.179688 1.546875 -7.234375 L 1.546875 -8.71875 C 1.546875 -9.125 1.835938 -9.488281 2.421875 -9.8125 C 3.015625 -10.132812 3.597656 -10.296875 4.171875 -10.296875 C 4.523438 -10.296875 4.753906 -10.195312 4.859375 -10 C 4.972656 -9.800781 5.03125 -9.5 5.03125 -9.09375 L 5.046875 -7.25 L 5.46875 -7.25 C 6.0625 -7.25 6.46875 -7.171875 6.6875 -7.015625 C 6.90625 -6.859375 7.015625 -6.578125 7.015625 -6.171875 C 7.015625 -6.003906 6.976562 -5.859375 6.90625 -5.734375 C 6.84375 -5.617188 6.738281 -5.53125 6.59375 -5.46875 C 6.457031 -5.40625 6.285156 -5.359375 6.078125 -5.328125 C 5.878906 -5.304688 5.628906 -5.296875 5.328125 -5.296875 L 5.046875 -5.296875 L 5.046875 -3.53125 C 5.046875 -3.363281 5.050781 -3.222656 5.0625 -3.109375 C 5.082031 -2.992188 5.109375 -2.90625 5.140625 -2.84375 C 5.171875 -2.78125 5.210938 -2.738281 5.265625 -2.71875 C 5.328125 -2.695312 5.398438 -2.6875 5.484375 -2.6875 C 5.617188 -2.6875 5.726562 -2.726562 5.8125 -2.8125 C 5.894531 -2.90625 5.957031 -3.007812 6 -3.125 C 6.050781 -3.238281 6.113281 -3.335938 6.1875 -3.421875 C 6.269531 -3.515625 6.367188 -3.5625 6.484375 -3.5625 C 6.722656 -3.5625 6.910156 -3.503906 7.046875 -3.390625 C 7.179688 -3.273438 7.25 -3.128906 7.25 -2.953125 C 7.25 -2.671875 7.191406 -2.363281 7.078125 -2.03125 C 6.960938 -1.695312 6.796875 -1.375 6.578125 -1.0625 C 6.367188 -0.757812 6.078125 -0.503906 5.703125 -0.296875 C 5.328125 -0.0976562 4.90625 0 4.4375 0 C 3.375 0 2.625 -0.265625 2.1875 -0.796875 C 1.75 -1.328125 1.53125 -2.203125 1.53125 -3.421875 Z M 1.53125 -3.421875 "/></g></g></g><g fill="#222222" fill-opacity="1"><g transform="translate(240.692864, 150.751306)"><g><path d="M 5.078125 0.109375 C 4.242188 0.109375 3.492188 -0.0351562 2.828125 -0.328125 C 2.160156 -0.628906 1.625 -1.078125 1.21875 -1.671875 C 0.820312 -2.273438 0.625 -2.976562 0.625 -3.78125 C 0.625 -4.988281 1.039062 -5.953125 1.875 -6.671875 C 2.707031 -7.390625 3.773438 -7.75 5.078125 -7.75 C 6.378906 -7.75 7.4375 -7.390625 8.25 -6.671875 C 9.070312 -5.953125 9.484375 -4.988281 9.484375 -3.78125 C 9.484375 -2.570312 9.0625 -1.617188 8.21875 -0.921875 C 7.382812 -0.234375 6.335938 0.109375 5.078125 0.109375 Z M 5.90625 -3.796875 C 5.90625 -4.347656 5.832031 -4.832031 5.6875 -5.25 C 5.550781 -5.675781 5.351562 -5.890625 5.09375 -5.890625 C 4.90625 -5.890625 4.742188 -5.78125 4.609375 -5.5625 C 4.472656 -5.351562 4.367188 -5.09375 4.296875 -4.78125 C 4.234375 -4.46875 4.203125 -4.140625 4.203125 -3.796875 C 4.203125 -3.242188 4.273438 -2.765625 4.421875 -2.359375 C 4.578125 -1.953125 4.789062 -1.75 5.0625 -1.75 C 5.34375 -1.75 5.550781 -1.945312 5.6875 -2.34375 C 5.832031 -2.75 5.90625 -3.234375 5.90625 -3.796875 Z M 5.90625 -3.796875 "/></g></g></g><g fill="#222222" fill-opacity="1"><g transform="translate(250.789072, 150.751306)"><g><path d="M 4.15625 -1.71875 C 4.15625 -1.070312 4.019531 -0.625 3.75 -0.375 C 3.488281 -0.125 3.019531 0 2.34375 0 C 1.707031 0 1.273438 -0.144531 1.046875 -0.4375 C 0.828125 -0.726562 0.71875 -1.210938 0.71875 -1.890625 L 0.71875 -5.828125 C 0.71875 -6.191406 0.78125 -6.507812 0.90625 -6.78125 C 1.039062 -7.050781 1.226562 -7.257812 1.46875 -7.40625 C 1.71875 -7.550781 2.007812 -7.625 2.34375 -7.625 C 3.144531 -7.625 3.675781 -7.390625 3.9375 -6.921875 C 4.550781 -7.390625 5.148438 -7.625 5.734375 -7.625 C 6.847656 -7.625 7.40625 -7.09375 7.40625 -6.03125 C 7.40625 -5.601562 7.28125 -5.253906 7.03125 -4.984375 C 6.789062 -4.722656 6.472656 -4.59375 6.078125 -4.59375 C 5.847656 -4.59375 5.660156 -4.640625 5.515625 -4.734375 C 5.367188 -4.828125 5.234375 -4.921875 5.109375 -5.015625 C 4.984375 -5.117188 4.84375 -5.171875 4.6875 -5.171875 C 4.457031 -5.171875 4.28125 -5.085938 4.15625 -4.921875 Z M 4.15625 -1.71875 "/></g></g></g><g fill="#222222" fill-opacity="1"><g transform="translate(258.341239, 150.751306)"><g><path d="M 4.15625 -1.71875 C 4.15625 -1.070312 4.019531 -0.625 3.75 -0.375 C 3.488281 -0.125 3.023438 0 2.359375 0 C 1.722656 0 1.289062 -0.144531 1.0625 -0.4375 C 0.832031 -0.726562 0.71875 -1.210938 0.71875 -1.890625 L 0.71875 -5.828125 C 0.71875 -6.367188 0.863281 -6.800781 1.15625 -7.125 C 1.445312 -7.457031 1.84375 -7.625 2.34375 -7.625 C 2.914062 -7.625 3.359375 -7.5 3.671875 -7.25 C 3.992188 -7 4.15625 -6.539062 4.15625 -5.875 Z M 0.6875 -9.859375 C 0.6875 -9.429688 0.851562 -9.117188 1.1875 -8.921875 C 1.519531 -8.734375 1.9375 -8.640625 2.4375 -8.640625 C 3 -8.640625 3.425781 -8.726562 3.71875 -8.90625 C 4.019531 -9.09375 4.171875 -9.410156 4.171875 -9.859375 C 4.171875 -10.671875 3.59375 -11.078125 2.4375 -11.078125 C 1.875 -11.078125 1.441406 -10.960938 1.140625 -10.734375 C 0.835938 -10.515625 0.6875 -10.222656 0.6875 -9.859375 Z M 0.6875 -9.859375 "/></g></g></g><g fill="#222222" fill-opacity="1"><g transform="translate(263.221331, 150.751306)"><g><path d="M 5.78125 -5.296875 C 5.59375 -5.609375 5.359375 -5.765625 5.078125 -5.765625 C 4.796875 -5.765625 4.566406 -5.5625 4.390625 -5.15625 C 4.222656 -4.75 4.140625 -4.285156 4.140625 -3.765625 C 4.140625 -3.273438 4.21875 -2.835938 4.375 -2.453125 C 4.539062 -2.066406 4.769531 -1.875 5.0625 -1.875 C 5.351562 -1.875 5.59375 -2.015625 5.78125 -2.296875 Z M 3.59375 0.09375 C 2.757812 0.09375 2.0625 -0.25 1.5 -0.9375 C 0.945312 -1.625 0.671875 -2.566406 0.671875 -3.765625 C 0.671875 -4.972656 0.941406 -5.9375 1.484375 -6.65625 C 2.035156 -7.382812 2.738281 -7.75 3.59375 -7.75 C 4.457031 -7.75 5.257812 -7.441406 6 -6.828125 C 6.289062 -7.359375 6.753906 -7.625 7.390625 -7.625 C 7.960938 -7.625 8.410156 -7.5 8.734375 -7.25 C 9.054688 -7 9.21875 -6.539062 9.21875 -5.875 L 9.21875 -1.71875 C 9.21875 -1.070312 9.082031 -0.625 8.8125 -0.375 C 8.550781 -0.125 8.082031 0 7.40625 0 C 6.707031 0 6.242188 -0.195312 6.015625 -0.59375 C 5.328125 -0.132812 4.519531 0.09375 3.59375 0.09375 Z M 3.59375 0.09375 "/></g></g></g><g fill="#222222" fill-opacity="1"><g transform="translate(273.205538, 150.751306)"><g><path d="M 4.484375 -7.75 C 5.472656 -7.75 6.296875 -7.546875 6.953125 -7.140625 C 7.617188 -6.734375 7.953125 -6.289062 7.953125 -5.8125 C 7.953125 -5.664062 7.890625 -5.535156 7.765625 -5.421875 C 7.648438 -5.304688 7.503906 -5.25 7.328125 -5.25 C 7.171875 -5.25 6.992188 -5.300781 6.796875 -5.40625 C 6.609375 -5.519531 6.425781 -5.640625 6.25 -5.765625 C 6.082031 -5.898438 5.859375 -6.019531 5.578125 -6.125 C 5.304688 -6.226562 5.015625 -6.28125 4.703125 -6.28125 C 4.285156 -6.28125 4.078125 -6.15625 4.078125 -5.90625 C 4.078125 -5.71875 4.179688 -5.570312 4.390625 -5.46875 C 4.609375 -5.363281 4.921875 -5.25 5.328125 -5.125 C 5.742188 -5.007812 6.054688 -4.898438 6.265625 -4.796875 C 7.066406 -4.492188 7.617188 -4.160156 7.921875 -3.796875 C 8.222656 -3.441406 8.375 -2.972656 8.375 -2.390625 C 8.375 -2.097656 8.289062 -1.8125 8.125 -1.53125 C 7.96875 -1.25 7.726562 -0.984375 7.40625 -0.734375 C 7.082031 -0.484375 6.644531 -0.28125 6.09375 -0.125 C 5.550781 0.03125 4.925781 0.109375 4.21875 0.109375 C 2.84375 0.109375 1.816406 -0.203125 1.140625 -0.828125 C 0.804688 -1.140625 0.640625 -1.460938 0.640625 -1.796875 C 0.640625 -1.992188 0.707031 -2.148438 0.84375 -2.265625 C 0.976562 -2.390625 1.164062 -2.453125 1.40625 -2.453125 C 1.65625 -2.453125 2.03125 -2.332031 2.53125 -2.09375 C 3.03125 -1.851562 3.492188 -1.734375 3.921875 -1.734375 C 4.503906 -1.734375 4.796875 -1.875 4.796875 -2.15625 C 4.796875 -2.3125 4.640625 -2.429688 4.328125 -2.515625 C 4.023438 -2.609375 3.625 -2.71875 3.125 -2.84375 C 2.625 -2.976562 2.222656 -3.140625 1.921875 -3.328125 C 1.453125 -3.523438 1.125 -3.773438 0.9375 -4.078125 C 0.75 -4.390625 0.65625 -4.765625 0.65625 -5.203125 C 0.65625 -5.941406 1.007812 -6.550781 1.71875 -7.03125 C 2.425781 -7.507812 3.347656 -7.75 4.484375 -7.75 Z M 4.484375 -7.75 "/></g></g></g><g fill="#222222" fill-opacity="1"><g transform="translate(282.197727, 150.751306)"><g/></g></g><g fill="#222222" fill-opacity="1"><g transform="translate(286.517813, 150.751306)"><g><path d="M 7.5625 -7.953125 C 7.5625 -8.171875 7.46875 -8.359375 7.28125 -8.515625 C 7.101562 -8.679688 6.882812 -8.765625 6.625 -8.765625 C 6.113281 -8.765625 5.691406 -8.472656 5.359375 -7.890625 C 5.023438 -7.316406 4.859375 -6.660156 4.859375 -5.921875 C 4.859375 -5.359375 4.960938 -4.847656 5.171875 -4.390625 C 5.390625 -3.941406 5.703125 -3.582031 6.109375 -3.3125 C 6.515625 -3.039062 6.984375 -2.90625 7.515625 -2.90625 C 7.910156 -2.90625 8.289062 -2.984375 8.65625 -3.140625 C 9.019531 -3.296875 9.3125 -3.46875 9.53125 -3.65625 C 9.757812 -3.84375 9.992188 -4.015625 10.234375 -4.171875 C 10.472656 -4.328125 10.679688 -4.40625 10.859375 -4.40625 C 11.097656 -4.40625 11.300781 -4.3125 11.46875 -4.125 C 11.644531 -3.9375 11.734375 -3.738281 11.734375 -3.53125 C 11.734375 -3.3125 11.664062 -3.050781 11.53125 -2.75 C 11.394531 -2.445312 11.179688 -2.128906 10.890625 -1.796875 C 10.609375 -1.460938 10.273438 -1.15625 9.890625 -0.875 C 9.503906 -0.59375 9.023438 -0.359375 8.453125 -0.171875 C 7.878906 0.015625 7.28125 0.109375 6.65625 0.109375 C 5.820312 0.109375 5.050781 -0.015625 4.34375 -0.265625 C 3.632812 -0.515625 3.019531 -0.867188 2.5 -1.328125 C 1.976562 -1.796875 1.566406 -2.378906 1.265625 -3.078125 C 0.960938 -3.785156 0.8125 -4.578125 0.8125 -5.453125 C 0.8125 -7.179688 1.328125 -8.546875 2.359375 -9.546875 C 3.398438 -10.554688 4.757812 -11.0625 6.4375 -11.0625 C 7.289062 -11.0625 8.078125 -10.914062 8.796875 -10.625 C 9.523438 -10.332031 10.101562 -9.929688 10.53125 -9.421875 C 10.957031 -8.910156 11.171875 -8.351562 11.171875 -7.75 C 11.171875 -7.039062 10.9375 -6.398438 10.46875 -5.828125 C 10 -5.253906 9.390625 -4.96875 8.640625 -4.96875 C 8.210938 -4.96875 7.828125 -5.085938 7.484375 -5.328125 C 7.140625 -5.566406 6.96875 -5.90625 6.96875 -6.34375 C 6.96875 -6.539062 7.066406 -6.820312 7.265625 -7.1875 C 7.460938 -7.550781 7.5625 -7.804688 7.5625 -7.953125 Z M 7.5625 -7.953125 "/></g></g></g><g fill="#222222" fill-opacity="1"><g transform="translate(299.046082, 150.751306)"><g><path d="M 4.234375 -2.421875 C 4.234375 -1.554688 4.085938 -0.9375 3.796875 -0.5625 C 3.515625 -0.1875 3.078125 0 2.484375 0 C 1.878906 0 1.4375 -0.164062 1.15625 -0.5 C 0.882812 -0.84375 0.75 -1.4375 0.75 -2.28125 L 0.71875 -9.046875 C 0.71875 -9.316406 0.742188 -9.554688 0.796875 -9.765625 C 0.859375 -9.984375 0.941406 -10.164062 1.046875 -10.3125 C 1.148438 -10.46875 1.273438 -10.59375 1.421875 -10.6875 C 1.566406 -10.78125 1.726562 -10.847656 1.90625 -10.890625 C 2.082031 -10.929688 2.273438 -10.953125 2.484375 -10.953125 C 3.066406 -10.953125 3.503906 -10.832031 3.796875 -10.59375 C 4.085938 -10.363281 4.234375 -9.894531 4.234375 -9.1875 Z M 4.234375 -2.421875 "/></g></g></g><g fill="#222222" fill-opacity="1"><g transform="translate(304.038195, 150.751306)"><g><path d="M 3.15625 -12.046875 C 3.394531 -12.191406 3.648438 -12.265625 3.921875 -12.265625 C 4.296875 -12.265625 4.597656 -12.097656 4.828125 -11.765625 C 5.054688 -11.429688 5.171875 -11.078125 5.171875 -10.703125 C 5.171875 -10.171875 4.84375 -9.773438 4.1875 -9.515625 L 2.234375 -8.875 C 1.960938 -8.78125 1.710938 -8.734375 1.484375 -8.734375 C 1.273438 -8.734375 1.085938 -8.773438 0.921875 -8.859375 C 0.753906 -8.953125 0.628906 -9.066406 0.546875 -9.203125 C 0.460938 -9.347656 0.421875 -9.515625 0.421875 -9.703125 C 0.421875 -10.085938 0.632812 -10.425781 1.0625 -10.71875 C 1.0625 -10.71875 1.144531 -10.78125 1.3125 -10.90625 Z M 3.96875 -1.71875 C 3.96875 -1.070312 3.832031 -0.625 3.5625 -0.375 C 3.300781 -0.125 2.832031 0 2.15625 0 C 1.71875 0 1.378906 -0.0703125 1.140625 -0.21875 C 0.898438 -0.363281 0.738281 -0.566406 0.65625 -0.828125 C 0.570312 -1.085938 0.53125 -1.441406 0.53125 -1.890625 L 0.53125 -5.828125 C 0.53125 -6.367188 0.675781 -6.800781 0.96875 -7.125 C 1.257812 -7.457031 1.648438 -7.625 2.140625 -7.625 C 2.722656 -7.625 3.171875 -7.5 3.484375 -7.25 C 3.804688 -7 3.96875 -6.539062 3.96875 -5.875 Z M 3.96875 -1.71875 "/></g></g></g><g fill="#222222" fill-opacity="1"><g transform="translate(308.566293, 150.751306)"><g><path d="M 5.640625 -4.296875 C 5.640625 -4.898438 5.40625 -5.203125 4.9375 -5.203125 C 4.71875 -5.203125 4.535156 -5.109375 4.390625 -4.921875 C 4.242188 -4.734375 4.160156 -4.484375 4.140625 -4.171875 L 4.140625 -1.71875 C 4.140625 -1.0625 4.003906 -0.609375 3.734375 -0.359375 C 3.472656 -0.117188 3.007812 0 2.34375 0 C 1.707031 0 1.273438 -0.144531 1.046875 -0.4375 C 0.816406 -0.726562 0.703125 -1.210938 0.703125 -1.890625 L 0.703125 -5.828125 C 0.703125 -6.367188 0.847656 -6.800781 1.140625 -7.125 C 1.429688 -7.457031 1.820312 -7.625 2.3125 -7.625 C 2.71875 -7.625 3.0625 -7.566406 3.34375 -7.453125 C 3.625 -7.335938 3.832031 -7.132812 3.96875 -6.84375 C 4.800781 -7.382812 5.816406 -7.65625 7.015625 -7.65625 C 7.765625 -7.65625 8.304688 -7.359375 8.640625 -6.765625 C 8.984375 -6.171875 9.15625 -5.191406 9.15625 -3.828125 C 9.15625 -3.148438 9.140625 -2.597656 9.109375 -2.171875 C 9.078125 -1.753906 9.023438 -1.394531 8.953125 -1.09375 C 8.878906 -0.789062 8.769531 -0.5625 8.625 -0.40625 C 8.476562 -0.257812 8.304688 -0.15625 8.109375 -0.09375 C 7.910156 -0.03125 7.65625 0 7.34375 0 C 6.75 0 6.316406 -0.109375 6.046875 -0.328125 C 5.785156 -0.554688 5.65625 -0.890625 5.65625 -1.328125 Z M 5.640625 -4.296875 "/></g></g></g><g fill="#222222" fill-opacity="1"><g transform="translate(318.422507, 150.751306)"><g><path d="M 4.15625 -1.71875 C 4.15625 -1.070312 4.019531 -0.625 3.75 -0.375 C 3.488281 -0.125 3.023438 0 2.359375 0 C 1.722656 0 1.289062 -0.144531 1.0625 -0.4375 C 0.832031 -0.726562 0.71875 -1.210938 0.71875 -1.890625 L 0.71875 -5.828125 C 0.71875 -6.367188 0.863281 -6.800781 1.15625 -7.125 C 1.445312 -7.457031 1.84375 -7.625 2.34375 -7.625 C 2.914062 -7.625 3.359375 -7.5 3.671875 -7.25 C 3.992188 -7 4.15625 -6.539062 4.15625 -5.875 Z M 0.6875 -9.859375 C 0.6875 -9.429688 0.851562 -9.117188 1.1875 -8.921875 C 1.519531 -8.734375 1.9375 -8.640625 2.4375 -8.640625 C 3 -8.640625 3.425781 -8.726562 3.71875 -8.90625 C 4.019531 -9.09375 4.171875 -9.410156 4.171875 -9.859375 C 4.171875 -10.671875 3.59375 -11.078125 2.4375 -11.078125 C 1.875 -11.078125 1.441406 -10.960938 1.140625 -10.734375 C 0.835938 -10.515625 0.6875 -10.222656 0.6875 -9.859375 Z M 0.6875 -9.859375 "/></g></g></g><g fill="#222222" fill-opacity="1"><g transform="translate(323.302599, 150.751306)"><g><path d="M 5.453125 -5.984375 C 5.453125 -6.234375 5.316406 -6.359375 5.046875 -6.359375 C 4.835938 -6.359375 4.648438 -6.242188 4.484375 -6.015625 C 4.328125 -5.796875 4.207031 -5.515625 4.125 -5.171875 C 4.039062 -4.835938 4 -4.488281 4 -4.125 C 4 -3.59375 4.160156 -3.160156 4.484375 -2.828125 C 4.804688 -2.503906 5.25 -2.34375 5.8125 -2.34375 C 6.351562 -2.34375 6.820312 -2.40625 7.21875 -2.53125 C 7.375 -2.570312 7.566406 -2.648438 7.796875 -2.765625 C 8.023438 -2.878906 8.1875 -2.9375 8.28125 -2.9375 C 8.4375 -2.9375 8.5625 -2.910156 8.65625 -2.859375 C 8.75 -2.804688 8.8125 -2.742188 8.84375 -2.671875 C 8.882812 -2.597656 8.90625 -2.519531 8.90625 -2.4375 C 8.90625 -2.28125 8.851562 -2.09375 8.75 -1.875 C 8.65625 -1.664062 8.5 -1.441406 8.28125 -1.203125 C 8.070312 -0.972656 7.828125 -0.757812 7.546875 -0.5625 C 7.265625 -0.363281 6.914062 -0.203125 6.5 -0.078125 C 6.082031 0.046875 5.644531 0.109375 5.1875 0.109375 C 3.863281 0.109375 2.773438 -0.242188 1.921875 -0.953125 C 1.066406 -1.660156 0.640625 -2.632812 0.640625 -3.875 C 0.640625 -4.664062 0.832031 -5.351562 1.21875 -5.9375 C 1.613281 -6.53125 2.148438 -6.976562 2.828125 -7.28125 C 3.515625 -7.59375 4.300781 -7.75 5.1875 -7.75 C 6.03125 -7.75 6.722656 -7.648438 7.265625 -7.453125 C 7.816406 -7.253906 8.207031 -6.988281 8.4375 -6.65625 C 8.675781 -6.320312 8.796875 -5.925781 8.796875 -5.46875 C 8.796875 -5.269531 8.753906 -5.0625 8.671875 -4.84375 C 8.597656 -4.632812 8.476562 -4.421875 8.3125 -4.203125 C 8.144531 -3.992188 7.898438 -3.820312 7.578125 -3.6875 C 7.265625 -3.550781 6.894531 -3.484375 6.46875 -3.484375 C 6.269531 -3.484375 6.109375 -3.492188 5.984375 -3.515625 C 5.867188 -3.535156 5.742188 -3.582031 5.609375 -3.65625 C 5.472656 -3.726562 5.375 -3.84375 5.3125 -4 C 5.25 -4.15625 5.21875 -4.359375 5.21875 -4.609375 C 5.21875 -4.816406 5.253906 -5.070312 5.328125 -5.375 C 5.410156 -5.6875 5.453125 -5.890625 5.453125 -5.984375 Z M 5.453125 -5.984375 "/></g></g></g><g fill="#222222" fill-opacity="1"><g transform="translate(332.886797, 150.751306)"><g><path d="M 5.78125 -5.296875 C 5.59375 -5.609375 5.359375 -5.765625 5.078125 -5.765625 C 4.796875 -5.765625 4.566406 -5.5625 4.390625 -5.15625 C 4.222656 -4.75 4.140625 -4.285156 4.140625 -3.765625 C 4.140625 -3.273438 4.21875 -2.835938 4.375 -2.453125 C 4.539062 -2.066406 4.769531 -1.875 5.0625 -1.875 C 5.351562 -1.875 5.59375 -2.015625 5.78125 -2.296875 Z M 3.59375 0.09375 C 2.757812 0.09375 2.0625 -0.25 1.5 -0.9375 C 0.945312 -1.625 0.671875 -2.566406 0.671875 -3.765625 C 0.671875 -4.972656 0.941406 -5.9375 1.484375 -6.65625 C 2.035156 -7.382812 2.738281 -7.75 3.59375 -7.75 C 4.457031 -7.75 5.257812 -7.441406 6 -6.828125 C 6.289062 -7.359375 6.753906 -7.625 7.390625 -7.625 C 7.960938 -7.625 8.410156 -7.5 8.734375 -7.25 C 9.054688 -7 9.21875 -6.539062 9.21875 -5.875 L 9.21875 -1.71875 C 9.21875 -1.070312 9.082031 -0.625 8.8125 -0.375 C 8.550781 -0.125 8.082031 0 7.40625 0 C 6.707031 0 6.242188 -0.195312 6.015625 -0.59375 C 5.328125 -0.132812 4.519531 0.09375 3.59375 0.09375 Z M 3.59375 0.09375 "/></g></g></g><g fill="#222222" fill-opacity="1"><g transform="translate(342.871003, 150.751306)"><g><path d="M 4.484375 -7.75 C 5.472656 -7.75 6.296875 -7.546875 6.953125 -7.140625 C 7.617188 -6.734375 7.953125 -6.289062 7.953125 -5.8125 C 7.953125 -5.664062 7.890625 -5.535156 7.765625 -5.421875 C 7.648438 -5.304688 7.503906 -5.25 7.328125 -5.25 C 7.171875 -5.25 6.992188 -5.300781 6.796875 -5.40625 C 6.609375 -5.519531 6.425781 -5.640625 6.25 -5.765625 C 6.082031 -5.898438 5.859375 -6.019531 5.578125 -6.125 C 5.304688 -6.226562 5.015625 -6.28125 4.703125 -6.28125 C 4.285156 -6.28125 4.078125 -6.15625 4.078125 -5.90625 C 4.078125 -5.71875 4.179688 -5.570312 4.390625 -5.46875 C 4.609375 -5.363281 4.921875 -5.25 5.328125 -5.125 C 5.742188 -5.007812 6.054688 -4.898438 6.265625 -4.796875 C 7.066406 -4.492188 7.617188 -4.160156 7.921875 -3.796875 C 8.222656 -3.441406 8.375 -2.972656 8.375 -2.390625 C 8.375 -2.097656 8.289062 -1.8125 8.125 -1.53125 C 7.96875 -1.25 7.726562 -0.984375 7.40625 -0.734375 C 7.082031 -0.484375 6.644531 -0.28125 6.09375 -0.125 C 5.550781 0.03125 4.925781 0.109375 4.21875 0.109375 C 2.84375 0.109375 1.816406 -0.203125 1.140625 -0.828125 C 0.804688 -1.140625 0.640625 -1.460938 0.640625 -1.796875 C 0.640625 -1.992188 0.707031 -2.148438 0.84375 -2.265625 C 0.976562 -2.390625 1.164062 -2.453125 1.40625 -2.453125 C 1.65625 -2.453125 2.03125 -2.332031 2.53125 -2.09375 C 3.03125 -1.851562 3.492188 -1.734375 3.921875 -1.734375 C 4.503906 -1.734375 4.796875 -1.875 4.796875 -2.15625 C 4.796875 -2.3125 4.640625 -2.429688 4.328125 -2.515625 C 4.023438 -2.609375 3.625 -2.71875 3.125 -2.84375 C 2.625 -2.976562 2.222656 -3.140625 1.921875 -3.328125 C 1.453125 -3.523438 1.125 -3.773438 0.9375 -4.078125 C 0.75 -4.390625 0.65625 -4.765625 0.65625 -5.203125 C 0.65625 -5.941406 1.007812 -6.550781 1.71875 -7.03125 C 2.425781 -7.507812 3.347656 -7.75 4.484375 -7.75 Z M 4.484375 -7.75 "/></g></g></g></svg>